<?xml version="1.0" encoding="UTF-8"?>
<svg xmlns="http://www.w3.org/2000/svg" width="300.000mm" height="300.000mm" viewBox="-1158.790039 131.527008 300.000061 300.000000">
    <rect transform="matrix(-1.000000 0.000000 0.000000 1.000000 -1008.789978 281.527008)" style="stroke:#500a78;stroke-width:0.05mm;fill:none" x="-150.000000" y="-150.000000" width="300.000000" height="300.000000"/>
    <path transform="matrix(-1.000830 -0.000001 0.000001 -1.000000 -975.399902 184.000122)" style="stroke:#000000;stroke-width:0.05mm;fill:none" d="M-8.354037,0.125092C-7.820433,0.111389,-6.487875,1.775421,-5.999682,1.775482C-5.48748,1.775513,-4.045588,-0.056061,-3.572386,0.139984C-3.099185,0.336029,-3.375009,2.650726,-3.01285,3.012939C-2.650691,3.375153,-0.336071,3.09964,-0.14009,3.572906C0.055892,4.046143,-1.77582,5.487823,-1.775853,6.000061C-1.775885,6.512268,0.055738,7.954193,-0.140304,8.427429C-0.336345,8.900635,-2.651074,8.624817,-3.013279,8.986969C-3.375484,9.349121,-3.099909,11.66391,-3.573136,11.859924C-4.046362,12.055908,-5.488015,10.224152,-6.000217,10.224121C-6.51242,10.224091,-7.954313,12.055664,-8.427513,11.859619C-8.900714,11.663574,-8.62489,9.348877,-8.987049,8.986694C-9.349208,8.624481,-11.663937,8.899994,-11.859917,8.426727C-12.055899,7.953491,-10.224187,6.51181,-10.224154,5.999573C-10.224121,5.487366,-12.055637,4.045441,-11.859595,3.572205C-11.663554,3.098999,-9.348933,3.374817,-8.986729,3.012665C-8.624524,2.650482,-8.899989,0.335724,-8.426764,0.139709C-8.404585,0.130707,-8.380284,0.125824,-8.354034,0.125122L-8.354037,0.125092z"/>
    <path transform="matrix(-0.000001 1.000000 1.054450 0.000001 -1249.595215 -587.004150)" style="stroke:#000000;stroke-width:0.05mm;fill:none" d="M777.512024,323.096008C777.543457,323.417297,777.671631,323.721375,777.880005,323.967987C777.970886,324.098755,778.07843,324.217102,778.200012,324.320007C778.638916,324.707336,779.089783,325.080811,779.552002,325.440002C779.956543,325.77533,780.262146,326.214752,780.432007,326.712006C780.482239,326.978394,780.507751,327.248932,780.504028,327.519989L780.504028,360.127991C780.496094,362.8862,778.262268,365.120483,775.504028,365.127991L754.504028,365.127991C752.839966,365.13327,751.28302,364.304657,750.359985,362.920013C749.84668,362.17276,749.551331,361.297363,749.504028,360.391998L749.504028,327.320007C749.521179,326.58139,749.869324,325.889099,750.455994,325.440002C750.909424,325.070557,751.360596,324.696777,751.807983,324.320007C752.22821,323.980408,752.481689,323.475861,752.504028,322.936005C752.47998,321.62674,752.482666,320.317139,752.512024,319.007996L752.512024,301.864014L752.504028,298.032013L752.504028,262.752014C752.7146,257.379913,757.127808,253.132401,762.504028,253.128006L767.504028,253.128006C773.023376,253.136246,777.495422,257.608643,777.504028,263.127991L777.504028,322.936005L777.512024,323.096008z"/>
    <path transform="matrix(-0.667220 -0.000001 0.000001 -1.000000 -342.540405 620.938721)" style="stroke:#000000;stroke-width:0.05mm;fill:none" d="M825.544006,430.455994C825.672913,430.48172,825.791687,430.539581,825.903992,430.608002C826.063599,430.718262,826.194458,430.866974,826.263977,431.048004C826.30249,431.176025,826.330322,431.306946,826.343994,431.440002L826.343994,454.440002C826.334229,454.573669,826.310059,454.706055,826.263977,454.832001L826.176025,455C826.093384,455.098419,826.001465,455.188354,825.903992,455.272003L825.736023,455.359985C825.611328,455.410156,825.478149,455.432037,825.343994,455.440002L824.343994,455.440002L824.143982,455.415985C824.017578,455.385468,823.897766,455.334534,823.783997,455.272003C823.562012,455.129974,823.408508,454.900299,823.367981,454.640015L823.343994,454.440002L823.343994,448.664001C823.417786,448.616669,823.487976,448.563904,823.552002,448.503998L823.679993,448.35199C823.826904,448.128082,823.874329,447.85498,823.823975,447.59201L823.768005,447.40799C823.715637,447.289154,823.638489,447.184479,823.552002,447.088013L823.40802,446.967987L823.343994,446.928009L823.343994,438.944L823.40802,438.911987C823.798096,438.63681,823.946655,438.130646,823.768005,437.687988C823.672363,437.494476,823.527283,437.330322,823.343994,437.216003L823.343994,431.440002L823.367981,431.23999C823.420715,430.983276,823.566406,430.754211,823.783997,430.608002L823.952026,430.519989L824.143982,430.455994L824.343994,430.440002L825.343994,430.440002L825.544006,430.455994z"/>
    <path transform="matrix(-0.000001 1.000000 0.750622 0.000001 -1146.705200 -587.067993)" style="stroke:#000000;stroke-width:0.05mm;fill:none" d="M776.567993,348.847992L770.791992,348.847992C770.698425,348.716492,770.584778,348.601166,770.455994,348.503998C770.307495,348.421478,770.144226,348.372742,769.976013,348.35199C769.748413,348.340576,769.526245,348.410767,769.335999,348.536011C769.246521,348.609039,769.167969,348.693817,769.096008,348.783997L769.064026,348.847992L761.080017,348.847992C761.031067,348.77536,760.979187,348.704712,760.919983,348.640015C760.779968,348.499634,760.603699,348.398529,760.40802,348.368011C760.278809,348.341766,760.145691,348.343872,760.015991,348.368011L759.83197,348.424011C759.667358,348.492157,759.523193,348.601624,759.416016,348.743988L759.343994,348.847992L753.567993,348.847992C753.431641,348.837799,753.296265,348.815552,753.16803,348.768005C752.805725,348.603729,752.566772,348.245667,752.567993,347.847992L752.567993,346.847992C752.565552,346.6315,752.638306,346.421387,752.768005,346.247986C752.9552,345.994965,753.253235,345.849426,753.567993,345.847992L759.343994,345.847992L759.416016,345.951996L759.504028,346.056L759.656006,346.18399C759.768494,346.249054,759.889648,346.297699,760.015991,346.328003L760.216003,346.343994L760.40802,346.328003C760.535217,346.296082,760.656372,346.244751,760.768005,346.175995C760.878906,346.111969,760.967896,346.017914,761.039978,345.911987L761.080017,345.847992L769.064026,345.847992C769.124695,345.974609,769.219421,346.081696,769.335999,346.160004C769.478638,346.252716,769.639343,346.313354,769.807983,346.335999C770.03418,346.359314,770.259705,346.306213,770.455994,346.191986C770.585449,346.095337,770.703186,345.983368,770.791992,345.847992L776.567993,345.847992C776.697266,345.868744,776.82605,345.892456,776.952026,345.928009L777.119995,346.015991C777.18042,346.058807,777.23468,346.108917,777.288025,346.160004C777.465088,346.345703,777.563538,346.591492,777.567993,346.847992L777.567993,347.847992C777.560547,348.131378,777.439209,348.398621,777.231995,348.59201L777.119995,348.679993L776.952026,348.768005C776.826111,348.804108,776.69812,348.833099,776.567993,348.847992z"/>
    <path transform="matrix(0.000001 -1.000000 -1.149580 -0.000001 -875.839966 178.000229)" style="stroke:#000000;stroke-width:0.05mm;fill:none" d="M12.5,3.853L12.5,-3.853C12.5,-4.405285,12.052284,-4.853,11.5,-4.853L1.418579,-4.519413C1.212842,-4.758697,0.700477,-5.255511,0.001526,-5.267215C-0.718558,-5.279273,-1.202881,-4.75914,-1.422974,-4.519855L-11.5,-4.853C-12.052284,-4.853,-12.5,-4.405285,-12.5,-3.853L-12.5,3.853"/>
    <rect transform="matrix(-1.000830 -0.000001 0.000001 -0.875000 -941.649902 182.375153)" style="stroke:#000000;stroke-width:0.05mm;fill:none" x="-3.000000" y="-3.000000" width="6.000000" height="6.000000" rx="3.000000"/>
    <rect transform="matrix(-1.000830 -0.000001 0.000001 -0.875000 -941.649902 173.625153)" style="stroke:#000000;stroke-width:0.05mm;fill:none" x="-3.000000" y="-3.000000" width="6.000000" height="6.000000" rx="3.000000"/>
    <rect transform="matrix(-1.000830 -0.000001 0.000001 -0.875000 -927.639893 182.375168)" style="stroke:#000000;stroke-width:0.05mm;fill:none" x="-3.000000" y="-3.000000" width="6.000000" height="6.000000" rx="3.000000"/>
    <rect transform="matrix(-1.000830 -0.000001 0.000001 -0.875000 -913.629883 182.375183)" style="stroke:#000000;stroke-width:0.05mm;fill:none" x="-3.000000" y="-3.000000" width="6.000000" height="6.000000" rx="3.000000"/>
    <rect transform="matrix(-1.000830 -0.000001 0.000001 -0.875000 -927.639893 173.625168)" style="stroke:#000000;stroke-width:0.05mm;fill:none" x="-3.000000" y="-3.000000" width="6.000000" height="6.000000" rx="3.000000"/>
    <rect transform="matrix(-1.000830 -0.000001 0.000001 -0.875000 -913.629883 173.625183)" style="stroke:#000000;stroke-width:0.05mm;fill:none" x="-3.000000" y="-3.000000" width="6.000000" height="6.000000" rx="3.000000"/>
    <path transform="matrix(1.000830 0.000001 0.000001 -1.000000 -1042.179077 183.999878)" style="stroke:#000000;stroke-width:0.05mm;fill:none" d="M-8.354037,0.125092C-7.820433,0.111389,-6.487875,1.775421,-5.999682,1.775482C-5.48748,1.775513,-4.045588,-0.056061,-3.572386,0.139984C-3.099185,0.336029,-3.375009,2.650726,-3.01285,3.012939C-2.650691,3.375153,-0.336071,3.09964,-0.14009,3.572906C0.055892,4.046143,-1.77582,5.487823,-1.775853,6.000061C-1.775885,6.512268,0.055738,7.954193,-0.140304,8.427429C-0.336345,8.900635,-2.651074,8.624817,-3.013279,8.986969C-3.375484,9.349121,-3.099909,11.66391,-3.573136,11.859924C-4.046362,12.055908,-5.488015,10.224152,-6.000217,10.224121C-6.51242,10.224091,-7.954313,12.055664,-8.427513,11.859619C-8.900714,11.663574,-8.62489,9.348877,-8.987049,8.986694C-9.349208,8.624481,-11.663937,8.899994,-11.859917,8.426727C-12.055899,7.953491,-10.224187,6.51181,-10.224154,5.999573C-10.224121,5.487366,-12.055637,4.045441,-11.859595,3.572205C-11.663554,3.098999,-9.348933,3.374817,-8.986729,3.012665C-8.624524,2.650482,-8.899989,0.335724,-8.426764,0.139709C-8.404585,0.130707,-8.380284,0.125824,-8.354034,0.125122L-8.354037,0.125092z"/>
    <path transform="matrix(-0.000001 1.000000 -1.054450 -0.000001 -767.982239 -587.003906)" style="stroke:#000000;stroke-width:0.05mm;fill:none" d="M777.512024,323.096008C777.543457,323.417297,777.671631,323.721375,777.880005,323.967987C777.970886,324.098755,778.07843,324.217102,778.200012,324.320007C778.638916,324.707336,779.089783,325.080811,779.552002,325.440002C779.956543,325.77533,780.262146,326.214752,780.432007,326.712006C780.482239,326.978394,780.507751,327.248932,780.504028,327.519989L780.504028,360.127991C780.496094,362.8862,778.262268,365.120483,775.504028,365.127991L754.504028,365.127991C752.839966,365.13327,751.28302,364.304657,750.359985,362.920013C749.84668,362.17276,749.551331,361.297363,749.504028,360.391998L749.504028,327.320007C749.521179,326.58139,749.869324,325.889099,750.455994,325.440002C750.909424,325.070557,751.360596,324.696777,751.807983,324.320007C752.22821,323.980408,752.481689,323.475861,752.504028,322.936005C752.47998,321.62674,752.482666,320.317139,752.512024,319.007996L752.512024,301.864014L752.504028,298.032013L752.504028,262.752014C752.7146,257.379913,757.127808,253.132401,762.504028,253.128006L767.504028,253.128006C773.023376,253.136246,777.495422,257.608643,777.504028,263.127991L777.504028,322.936005L777.512024,323.096008z"/>
    <path transform="matrix(0.667220 0.000001 0.000001 -1.000000 -1675.039551 620.937256)" style="stroke:#000000;stroke-width:0.05mm;fill:none" d="M825.544006,430.455994C825.672913,430.48172,825.791687,430.539581,825.903992,430.608002C826.063599,430.718262,826.194458,430.866974,826.263977,431.048004C826.30249,431.176025,826.330322,431.306946,826.343994,431.440002L826.343994,454.440002C826.334229,454.573669,826.310059,454.706055,826.263977,454.832001L826.176025,455C826.093384,455.098419,826.001465,455.188354,825.903992,455.272003L825.736023,455.359985C825.611328,455.410156,825.478149,455.432037,825.343994,455.440002L824.343994,455.440002L824.143982,455.415985C824.017578,455.385468,823.897766,455.334534,823.783997,455.272003C823.562012,455.129974,823.408508,454.900299,823.367981,454.640015L823.343994,454.440002L823.343994,448.664001C823.417786,448.616669,823.487976,448.563904,823.552002,448.503998L823.679993,448.35199C823.826904,448.128082,823.874329,447.85498,823.823975,447.59201L823.768005,447.40799C823.715637,447.289154,823.638489,447.184479,823.552002,447.088013L823.40802,446.967987L823.343994,446.928009L823.343994,438.944L823.40802,438.911987C823.798096,438.63681,823.946655,438.130646,823.768005,437.687988C823.672363,437.494476,823.527283,437.330322,823.343994,437.216003L823.343994,431.440002L823.367981,431.23999C823.420715,430.983276,823.566406,430.754211,823.783997,430.608002L823.952026,430.519989L824.143982,430.455994L824.343994,430.440002L825.343994,430.440002L825.544006,430.455994z"/>
    <path transform="matrix(-0.000001 1.000000 -0.750622 -0.000001 -870.872253 -587.067993)" style="stroke:#000000;stroke-width:0.05mm;fill:none" d="M776.567993,348.847992L770.791992,348.847992C770.698425,348.716492,770.584778,348.601166,770.455994,348.503998C770.307495,348.421478,770.144226,348.372742,769.976013,348.35199C769.748413,348.340576,769.526245,348.410767,769.335999,348.536011C769.246521,348.609039,769.167969,348.693817,769.096008,348.783997L769.064026,348.847992L761.080017,348.847992C761.031067,348.77536,760.979187,348.704712,760.919983,348.640015C760.779968,348.499634,760.603699,348.398529,760.40802,348.368011C760.278809,348.341766,760.145691,348.343872,760.015991,348.368011L759.83197,348.424011C759.667358,348.492157,759.523193,348.601624,759.416016,348.743988L759.343994,348.847992L753.567993,348.847992C753.431641,348.837799,753.296265,348.815552,753.16803,348.768005C752.805725,348.603729,752.566772,348.245667,752.567993,347.847992L752.567993,346.847992C752.565552,346.6315,752.638306,346.421387,752.768005,346.247986C752.9552,345.994965,753.253235,345.849426,753.567993,345.847992L759.343994,345.847992L759.416016,345.951996L759.504028,346.056L759.656006,346.18399C759.768494,346.249054,759.889648,346.297699,760.015991,346.328003L760.216003,346.343994L760.40802,346.328003C760.535217,346.296082,760.656372,346.244751,760.768005,346.175995C760.878906,346.111969,760.967896,346.017914,761.039978,345.911987L761.080017,345.847992L769.064026,345.847992C769.124695,345.974609,769.219421,346.081696,769.335999,346.160004C769.478638,346.252716,769.639343,346.313354,769.807983,346.335999C770.03418,346.359314,770.259705,346.306213,770.455994,346.191986C770.585449,346.095337,770.703186,345.983368,770.791992,345.847992L776.567993,345.847992C776.697266,345.868744,776.82605,345.892456,776.952026,345.928009L777.119995,346.015991C777.18042,346.058807,777.23468,346.108917,777.288025,346.160004C777.465088,346.345703,777.563538,346.591492,777.567993,346.847992L777.567993,347.847992C777.560547,348.131378,777.439209,348.398621,777.231995,348.59201L777.119995,348.679993L776.952026,348.768005C776.826111,348.804108,776.69812,348.833099,776.567993,348.847992z"/>
    <path transform="matrix(0.000001 -1.000000 1.149580 0.000001 -1141.739014 177.999771)" style="stroke:#000000;stroke-width:0.05mm;fill:none" d="M12.5,3.853L12.5,-3.853C12.5,-4.405285,12.052284,-4.853,11.5,-4.853L1.418579,-4.519413C1.212842,-4.758697,0.700477,-5.255511,0.001526,-5.267215C-0.718558,-5.279273,-1.202881,-4.75914,-1.422974,-4.519855L-11.5,-4.853C-12.052284,-4.853,-12.5,-4.405285,-12.5,-3.853L-12.5,3.853"/>
    <rect transform="matrix(1.000830 0.000001 0.000001 -0.875000 -1075.929077 182.374847)" style="stroke:#000000;stroke-width:0.05mm;fill:none" x="-3.000000" y="-3.000000" width="6.000000" height="6.000000" rx="3.000000"/>
    <rect transform="matrix(1.000830 0.000001 0.000001 -0.875000 -1075.929077 173.624847)" style="stroke:#000000;stroke-width:0.05mm;fill:none" x="-3.000000" y="-3.000000" width="6.000000" height="6.000000" rx="3.000000"/>
    <rect transform="matrix(1.000830 0.000001 0.000001 -0.875000 -1089.939087 182.374832)" style="stroke:#000000;stroke-width:0.05mm;fill:none" x="-3.000000" y="-3.000000" width="6.000000" height="6.000000" rx="3.000000"/>
    <rect transform="matrix(1.000830 0.000001 0.000001 -0.875000 -1103.949097 182.374817)" style="stroke:#000000;stroke-width:0.05mm;fill:none" x="-3.000000" y="-3.000000" width="6.000000" height="6.000000" rx="3.000000"/>
    <rect transform="matrix(1.000830 0.000001 0.000001 -0.875000 -1089.939087 173.624832)" style="stroke:#000000;stroke-width:0.05mm;fill:none" x="-3.000000" y="-3.000000" width="6.000000" height="6.000000" rx="3.000000"/>
    <rect transform="matrix(1.000830 0.000001 0.000001 -0.875000 -1103.949097 173.624817)" style="stroke:#000000;stroke-width:0.05mm;fill:none" x="-3.000000" y="-3.000000" width="6.000000" height="6.000000" rx="3.000000"/>
    <rect transform="matrix(1.198600 0.000005 -0.000005 1.000830 -1008.000000 147.003998)" style="stroke:#000000;stroke-width:0.05mm;fill:none" x="-83.430969" y="-12.500001" width="166.861938" height="25.000002" rx="10.000000"/>
    <path transform="matrix(1.000000 0.000004 -0.000004 1.000830 -918.497009 140.996002)" style="stroke:#000000;stroke-width:0.05mm;fill:none" d="M-8.354037,0.125092C-7.820433,0.111389,-6.487875,1.775421,-5.999682,1.775482C-5.48748,1.775513,-4.045588,-0.056061,-3.572386,0.139984C-3.099185,0.336029,-3.375009,2.650726,-3.01285,3.012939C-2.650691,3.375153,-0.336071,3.09964,-0.14009,3.572906C0.055892,4.046143,-1.77582,5.487823,-1.775853,6.000061C-1.775885,6.512268,0.055738,7.954193,-0.140304,8.427429C-0.336345,8.900635,-2.651074,8.624817,-3.013279,8.986969C-3.375484,9.349121,-3.099909,11.66391,-3.573136,11.859924C-4.046362,12.055908,-5.488015,10.224152,-6.000217,10.224121C-6.51242,10.224091,-7.954313,12.055664,-8.427513,11.859619C-8.900714,11.663574,-8.62489,9.348877,-8.987049,8.986694C-9.349208,8.624481,-11.663937,8.899994,-11.859917,8.426727C-12.055899,7.953491,-10.224187,6.51181,-10.224154,5.999573C-10.224121,5.487366,-12.055637,4.045441,-11.859595,3.572205C-11.663554,3.098999,-9.348933,3.374817,-8.986729,3.012665C-8.624524,2.650482,-8.899989,0.335724,-8.426764,0.139709C-8.404585,0.130707,-8.380284,0.125824,-8.354034,0.125122L-8.354037,0.125092z"/>
    <path transform="matrix(1.000000 0.000004 -0.000004 1.000830 -1085.500000 140.996002)" style="stroke:#000000;stroke-width:0.05mm;fill:none" d="M-8.354037,0.125092C-7.820433,0.111389,-6.487875,1.775421,-5.999682,1.775482C-5.48748,1.775513,-4.045588,-0.056061,-3.572386,0.139984C-3.099185,0.336029,-3.375009,2.650726,-3.01285,3.012939C-2.650691,3.375153,-0.336071,3.09964,-0.14009,3.572906C0.055892,4.046143,-1.77582,5.487823,-1.775853,6.000061C-1.775885,6.512268,0.055738,7.954193,-0.140304,8.427429C-0.336345,8.900635,-2.651074,8.624817,-3.013279,8.986969C-3.375484,9.349121,-3.099909,11.66391,-3.573136,11.859924C-4.046362,12.055908,-5.488015,10.224152,-6.000217,10.224121C-6.51242,10.224091,-7.954313,12.055664,-8.427513,11.859619C-8.900714,11.663574,-8.62489,9.348877,-8.987049,8.986694C-9.349208,8.624481,-11.663937,8.899994,-11.859917,8.426727C-12.055899,7.953491,-10.224187,6.51181,-10.224154,5.999573C-10.224121,5.487366,-12.055637,4.045441,-11.859595,3.572205C-11.663554,3.098999,-9.348933,3.374817,-8.986729,3.012665C-8.624524,2.650482,-8.899989,0.335724,-8.426764,0.139709C-8.404585,0.130707,-8.380284,0.125824,-8.354034,0.125122L-8.354037,0.125092z"/>
    <rect transform="matrix(-1.000000 -0.000002 0.000002 -1.000830 -1064.000000 151.382996)" style="stroke:#000000;stroke-width:0.05mm;fill:none" x="-3.000000" y="-2.624841" width="6.000000" height="5.249683" rx="3.000000"/>
    <rect transform="matrix(-1.000000 -0.000002 0.000002 -1.000830 -1050.000000 151.382996)" style="stroke:#000000;stroke-width:0.05mm;fill:none" x="-3.000000" y="-2.624841" width="6.000000" height="5.249683" rx="3.000000"/>
    <rect transform="matrix(-1.000000 -0.000002 0.000002 -1.000830 -1036.000000 151.382996)" style="stroke:#000000;stroke-width:0.05mm;fill:none" x="-3.000000" y="-2.624841" width="6.000000" height="5.249683" rx="3.000000"/>
    <rect transform="matrix(-1.000000 -0.000002 0.000002 -1.000830 -1022.000000 151.382996)" style="stroke:#000000;stroke-width:0.05mm;fill:none" x="-3.000000" y="-2.624841" width="6.000000" height="5.249683" rx="3.000000"/>
    <rect transform="matrix(-1.000000 -0.000002 0.000002 -1.000830 -1008.000000 151.382996)" style="stroke:#000000;stroke-width:0.05mm;fill:none" x="-3.000000" y="-2.624841" width="6.000000" height="5.249683" rx="3.000000"/>
    <rect transform="matrix(-1.000000 -0.000002 0.000002 -1.000830 -993.997986 151.382004)" style="stroke:#000000;stroke-width:0.05mm;fill:none" x="-3.000000" y="-2.624841" width="6.000000" height="5.249683" rx="3.000000"/>
    <rect transform="matrix(-1.000000 -0.000002 0.000002 -1.000830 -979.997986 151.382004)" style="stroke:#000000;stroke-width:0.05mm;fill:none" x="-3.000000" y="-2.624841" width="6.000000" height="5.249683" rx="3.000000"/>
    <rect transform="matrix(-1.000000 -0.000002 0.000002 -1.000830 -965.997986 151.382004)" style="stroke:#000000;stroke-width:0.05mm;fill:none" x="-3.000000" y="-2.624841" width="6.000000" height="5.249683" rx="3.000000"/>
    <rect transform="matrix(-1.000000 -0.000002 0.000002 -1.000830 -951.997986 151.382004)" style="stroke:#000000;stroke-width:0.05mm;fill:none" x="-3.000000" y="-2.624841" width="6.000000" height="5.249683" rx="3.000000"/>
    <rect transform="matrix(-1.000000 -0.000002 0.000002 -1.000830 -1064.000000 142.626999)" style="stroke:#000000;stroke-width:0.05mm;fill:none" x="-3.000000" y="-2.624841" width="6.000000" height="5.249683" rx="3.000000"/>
    <rect transform="matrix(-1.000000 -0.000002 0.000002 -1.000830 -1050.000000 142.628006)" style="stroke:#000000;stroke-width:0.05mm;fill:none" x="-3.000000" y="-2.624841" width="6.000000" height="5.249683" rx="3.000000"/>
    <rect transform="matrix(-1.000000 -0.000002 0.000002 -1.000830 -1036.000000 142.628006)" style="stroke:#000000;stroke-width:0.05mm;fill:none" x="-3.000000" y="-2.624841" width="6.000000" height="5.249683" rx="3.000000"/>
    <rect transform="matrix(-1.000000 -0.000002 0.000002 -1.000830 -1022.000000 142.628006)" style="stroke:#000000;stroke-width:0.05mm;fill:none" x="-3.000000" y="-2.624841" width="6.000000" height="5.249683" rx="3.000000"/>
    <rect transform="matrix(-1.000000 -0.000002 0.000002 -1.000830 -1008.000000 142.628006)" style="stroke:#000000;stroke-width:0.05mm;fill:none" x="-3.000000" y="-2.624841" width="6.000000" height="5.249683" rx="3.000000"/>
    <rect transform="matrix(-1.000000 -0.000002 0.000002 -1.000830 -993.997986 142.628006)" style="stroke:#000000;stroke-width:0.05mm;fill:none" x="-3.000000" y="-2.624841" width="6.000000" height="5.249683" rx="3.000000"/>
    <rect transform="matrix(-1.000000 -0.000002 0.000002 -1.000830 -979.997986 142.628006)" style="stroke:#000000;stroke-width:0.05mm;fill:none" x="-3.000000" y="-2.624841" width="6.000000" height="5.249683" rx="3.000000"/>
    <rect transform="matrix(-1.000000 -0.000002 0.000002 -1.000830 -965.997986 142.628006)" style="stroke:#000000;stroke-width:0.05mm;fill:none" x="-3.000000" y="-2.624841" width="6.000000" height="5.249683" rx="3.000000"/>
    <rect transform="matrix(-1.000000 -0.000002 0.000002 -1.000830 -951.997986 142.628006)" style="stroke:#000000;stroke-width:0.05mm;fill:none" x="-3.000000" y="-2.624841" width="6.000000" height="5.249683" rx="3.000000"/>
    <path transform="matrix(-0.000000 -1.097260 1.183430 -0.000000 -1117.334961 212.171326)" style="stroke:#0000ff;stroke-width:0.05mm;fill:none" d="M-1.425781,0.292969C-1.287414,0.195557,-1.114748,0.160174,-0.949219,0.195313C-0.799144,0.264107,-0.736254,0.358617,-0.568237,0.360596C-0.411896,0.362437,-0.348242,0.273438,-0.300781,0.226563L-0.300781,2.300781"/>
    <path transform="matrix(-0.000000 -1.097260 1.183430 -0.000000 -1117.334961 212.255325)" style="stroke:#0000ff;stroke-width:0.05mm;fill:none" d="M-2.28125,0.191406C-1.873348,0.253636,-1.557671,0.582133,-1.511719,0.992188C-1.45108,1.305655,-1.497874,1.63046,-1.644531,1.914063C-1.937833,2.34533,-2.512219,2.477881,-2.964844,2.21875C-3.251633,2.055948,-3.42914,1.751651,-3.429688,1.421875C-3.465131,1.143901,-3.414701,0.861764,-3.285156,0.613281C-3.068893,0.280028,-2.670644,0.11267,-2.28125,0.191406z"/>
    <path transform="matrix(-0.000000 -1.097260 1.183430 -0.000000 -1117.334961 212.587326)" style="stroke:#0000ff;stroke-width:0.05mm;fill:none" d="M4.945313,3.09375L4.945313,2.085938C4.692813,2.379975,4.258301,2.434078,3.941406,2.210938C3.635324,1.988594,3.466712,1.623266,3.496094,1.246094C3.469369,0.887179,3.623141,0.538629,3.90625,0.316406C4.100109,0.190039,4.336886,0.147757,4.5625,0.199219C4.732965,0.242613,4.880754,0.348575,4.976563,0.496094L4.976563,0.226563"/>
    <path transform="matrix(-0.000000 -1.097260 1.183430 -0.000000 -1117.334961 212.479324)" style="stroke:#0000ff;stroke-width:0.05mm;fill:none" d="M-3.652344,0.226563L-4.441406,2.300781L-5.26709,-0.156982"/>
    <path transform="matrix(-0.000000 -1.287830 1.183430 -0.000000 -1349.284912 1369.221313)" style="stroke:#0000ff;stroke-width:0.05mm;fill:none" d="M900.60553,197.298935L899.871765,197.298935"/>
    <path transform="matrix(-0.000000 -1.097260 1.183430 -0.000000 -1117.334961 212.880325)" style="stroke:#0000ff;stroke-width:0.05mm;fill:none" d="M2.410156,0.195313C2.817629,0.27876,3.12139,0.620691,3.15625,1.035156C3.208729,1.334751,3.162096,1.643351,3.023438,1.914063C2.842752,2.200053,2.521384,2.365968,2.183594,2.347656"/>
    <path transform="matrix(-0.000000 -1.097260 1.183430 -0.000000 -1349.284912 1196.831299)" style="stroke:#0000ff;stroke-width:0.05mm;fill:none" d="M898.307251,195.714539L898.307251,197.839371C898.346619,198.05722,898.206726,198.267883,897.990845,198.316101C897.845398,198.339386,897.696777,198.334076,897.553345,198.300476"/>
    <path transform="matrix(-0.000000 -1.097260 1.183430 -0.000000 -1117.334961 211.982330)" style="stroke:#0000ff;stroke-width:0.05mm;fill:none" d="M0.046875,0.226563L0.993774,0.224319"/>
    <path transform="matrix(-1.037070 0.000000 0.000000 1.000000 183.546188 138.774994)" style="stroke:#000000;stroke-width:0.05mm;fill:none" d="M1260.015991,62.751999C1262.03894,62.751392,1264.020752,63.319523,1265.735962,64.391998C1267.176514,65.296951,1268.306885,66.61982,1268.975952,68.183998C1269.295532,68.907021,1269.567993,69.649902,1269.791992,70.407997C1270.076538,71.234085,1270.324707,72.072212,1270.536011,72.919998C1271.603516,77.608017,1272.700684,82.278671,1273.832031,86.952003C1274.920776,91.819656,1275.883789,96.714867,1276.719971,101.632004C1278.925781,114.284851,1280.700195,127.010406,1282.040039,139.783997C1283.15918,150.296707,1284.010254,160.836243,1284.592041,171.391998C1284.685791,173.310394,1284.72583,175.231415,1284.712036,177.151993C1284.405396,189.162552,1283.50293,201.151062,1282.008057,213.072006C1281.525391,216.675537,1280.951904,220.265472,1280.287964,223.839996C1279.589111,227.558334,1278.678467,231.233627,1277.560059,234.848007C1276.700684,237.441696,1275.627808,239.959732,1274.352051,242.376007C1272.296265,246.345703,1269.968262,250.168198,1267.384033,253.815994C1261.947266,261.565399,1255.757202,268.757629,1248.904053,275.287994C1248.086182,276.026855,1247.199097,276.685455,1246.255981,277.256012C1244.286377,278.508514,1242.205566,279.576935,1240.040039,280.447998C1236.562988,281.89566,1232.98877,283.098694,1229.343994,284.048004C1224.262207,285.41922,1219.117676,286.545837,1213.927979,287.424011C1207.294312,288.569916,1200.624512,289.487701,1193.927979,290.175995C1179.822754,291.68158,1165.656006,292.541138,1151.472046,292.752014C1145.672119,292.763947,1139.872437,292.622589,1134.079956,292.328003C1122.084961,291.806824,1110.115479,290.808655,1098.199951,289.335999C1091.946777,288.548889,1085.723633,287.534851,1079.543945,286.29599C1074.924805,285.370117,1070.356323,284.208679,1065.855957,282.81601C1062.757935,281.84436,1059.729492,280.663086,1056.791992,279.279999C1055.063599,278.437012,1053.405273,277.457733,1051.832031,276.35199C1051.110962,275.814728,1050.429199,275.226563,1049.791992,274.59201C1042.984741,268.000061,1036.845581,260.751495,1031.463989,252.951996C1030.02356,250.866089,1028.654663,248.731323,1027.359985,246.552002C1025.819458,243.914642,1024.427979,241.192978,1023.192017,238.399994C1021.816101,234.953049,1020.742676,231.393005,1019.984009,227.759995C1018.829712,222.549377,1017.937927,217.284088,1017.312012,211.983994C1016.276672,203.73642,1015.545715,195.453415,1015.119995,187.151993C1014.931213,183.759369,1014.797913,180.365234,1014.719971,176.968002C1014.73291,174.034775,1014.836914,171.102722,1015.031982,168.175995C1016.325684,146.440216,1018.79071,124.790337,1022.416016,103.32C1023.093872,99.429482,1023.816772,95.545815,1024.583984,91.671997C1025.384766,87.93425,1026.237915,84.209518,1027.144043,80.496002C1027.752686,77.921539,1028.34729,75.362854,1028.936035,72.783997C1029.358398,71.150757,1029.895752,69.549416,1030.543945,67.991997C1031.037354,66.888168,1031.779541,65.913666,1032.712036,65.143997C1034.407349,63.714775,1036.528687,62.887794,1038.744019,62.792C1038.96936,62.762218,1039.196655,62.749149,1039.42395,62.751999L1129.719971,59.855999L1169.719971,59.855999L1260.015991,62.751999z"/>
    <path transform="matrix(-0.997024 -0.087158 0.087231 -0.996196 -1126.791016 237.563004)" style="stroke:#000000;stroke-width:0.05mm;fill:none" d="M-8.354037,0.125092C-7.820433,0.111389,-6.487875,1.775421,-5.999682,1.775482C-5.48748,1.775513,-4.045588,-0.056061,-3.572386,0.139984C-3.099185,0.336029,-3.375009,2.650726,-3.01285,3.012939C-2.650691,3.375153,-0.336071,3.09964,-0.14009,3.572906C0.055892,4.046143,-1.77582,5.487823,-1.775853,6.000061C-1.775885,6.512268,0.055738,7.954193,-0.140304,8.427429C-0.336345,8.900635,-2.651074,8.624817,-3.013279,8.986969C-3.375484,9.349121,-3.099909,11.66391,-3.573136,11.859924C-4.046362,12.055908,-5.488015,10.224152,-6.000217,10.224121C-6.51242,10.224091,-7.954313,12.055664,-8.427513,11.859619C-8.900714,11.663574,-8.62489,9.348877,-8.987049,8.986694C-9.349208,8.624481,-11.663937,8.899994,-11.859917,8.426727C-12.055899,7.953491,-10.224187,6.51181,-10.224154,5.999573C-10.224121,5.487366,-12.055637,4.045441,-11.859595,3.572205C-11.663554,3.098999,-9.348933,3.374817,-8.986729,3.012665C-8.624524,2.650482,-8.899989,0.335724,-8.426764,0.139709C-8.404585,0.130707,-8.380284,0.125824,-8.354034,0.125122L-8.354037,0.125092z"/>
    <path transform="matrix(-0.997024 0.087154 -0.087226 -0.996196 -902.751038 238.613007)" style="stroke:#000000;stroke-width:0.05mm;fill:none" d="M-8.354037,0.125092C-7.820433,0.111389,-6.487875,1.775421,-5.999682,1.775482C-5.48748,1.775513,-4.045588,-0.056061,-3.572386,0.139984C-3.099185,0.336029,-3.375009,2.650726,-3.01285,3.012939C-2.650691,3.375153,-0.336071,3.09964,-0.14009,3.572906C0.055892,4.046143,-1.77582,5.487823,-1.775853,6.000061C-1.775885,6.512268,0.055738,7.954193,-0.140304,8.427429C-0.336345,8.900635,-2.651074,8.624817,-3.013279,8.986969C-3.375484,9.349121,-3.099909,11.66391,-3.573136,11.859924C-4.046362,12.055908,-5.488015,10.224152,-6.000217,10.224121C-6.51242,10.224091,-7.954313,12.055664,-8.427513,11.859619C-8.900714,11.663574,-8.62489,9.348877,-8.987049,8.986694C-9.349208,8.624481,-11.663937,8.899994,-11.859917,8.426727C-12.055899,7.953491,-10.224187,6.51181,-10.224154,5.999573C-10.224121,5.487366,-12.055637,4.045441,-11.859595,3.572205C-11.663554,3.098999,-9.348933,3.374817,-8.986729,3.012665C-8.624524,2.650482,-8.899989,0.335724,-8.426764,0.139709C-8.404585,0.130707,-8.380284,0.125824,-8.354034,0.125122L-8.354037,0.125092z"/>
</svg>
