<?xml version="1.0" encoding="UTF-8" standalone="no"?>
<svg
   xmlns:dc="http://purl.org/dc/elements/1.1/"
   xmlns:cc="http://creativecommons.org/ns#"
   xmlns:rdf="http://www.w3.org/1999/02/22-rdf-syntax-ns#"
   xmlns:svg="http://www.w3.org/2000/svg"
   xmlns="http://www.w3.org/2000/svg"
   xmlns:sodipodi="http://sodipodi.sourceforge.net/DTD/sodipodi-0.dtd"
   xmlns:inkscape="http://www.inkscape.org/namespaces/inkscape"
   width="300.000mm"
   height="300.000mm"
   viewBox="-1119.000000 154.000000 300.000000 300.000000"
   version="1.1"
   id="svg184"
   sodipodi:docname="Petrov Face Shield on 12x12in.svg"
   inkscape:version="0.92.4 (5da689c313, 2019-01-14)">
  <metadata
     id="metadata190">
    <rdf:RDF>
      <cc:Work
         rdf:about="">
        <dc:format>image/svg+xml</dc:format>
        <dc:type
           rdf:resource="http://purl.org/dc/dcmitype/StillImage" />
      </cc:Work>
    </rdf:RDF>
  </metadata>
  <defs
     id="defs188" />
  <sodipodi:namedview
     pagecolor="#ffffff"
     bordercolor="#666666"
     borderopacity="1"
     objecttolerance="10"
     gridtolerance="10"
     guidetolerance="10"
     inkscape:pageopacity="0"
     inkscape:pageshadow="2"
     inkscape:window-width="3840"
     inkscape:window-height="2066"
     id="namedview186"
     showgrid="false"
     inkscape:zoom="1.1774114"
     inkscape:cx="376.9932"
     inkscape:cy="330.35607"
     inkscape:window-x="-11"
     inkscape:window-y="-11"
     inkscape:window-maximized="1"
     inkscape:current-layer="svg184" />
  <rect
     transform="matrix(1.183470 -0.000002 -0.000003 -1.000000 -986.268982 183.330002)"
     style="stroke:#000000;stroke-width:0.05mm;fill:none"
     x="-83.430969"
     y="-12.500001"
     width="166.861938"
     height="25.000002"
     rx="10.000000"
     id="rect2" />
  <path
     transform="matrix(-0.000000 -1.097260 1.182450 -0.000000 -1087.808105 214.929504)"
     style="stroke:#0000ff;stroke-width:0.05mm;fill:none"
     d="M-1.425781,0.292969C-1.287414,0.195557,-1.114748,0.160174,-0.949219,0.195313C-0.799144,0.264107,-0.736254,0.358617,-0.568237,0.360596C-0.411896,0.362437,-0.348242,0.273438,-0.300781,0.226563L-0.300781,2.300781"
     id="path4" />
  <path
     transform="matrix(-0.000000 -1.097260 1.182450 -0.000000 -1087.808105 215.014496)"
     style="stroke:#0000ff;stroke-width:0.05mm;fill:none"
     d="M-2.28125,0.191406C-1.873348,0.253636,-1.557671,0.582133,-1.511719,0.992188C-1.45108,1.305655,-1.497874,1.63046,-1.644531,1.914063C-1.937833,2.34533,-2.512219,2.477881,-2.964844,2.21875C-3.251633,2.055948,-3.42914,1.751651,-3.429688,1.421875C-3.465131,1.143901,-3.414701,0.861764,-3.285156,0.613281C-3.068893,0.280028,-2.670644,0.11267,-2.28125,0.191406z"
     id="path6" />
  <path
     transform="matrix(-0.000000 -1.097260 1.182450 -0.000000 -1087.808105 215.346497)"
     style="stroke:#0000ff;stroke-width:0.05mm;fill:none"
     d="M4.945313,3.09375L4.945313,2.085938C4.692813,2.379975,4.258301,2.434078,3.941406,2.210938C3.635324,1.988594,3.466712,1.623266,3.496094,1.246094C3.469369,0.887179,3.623141,0.538629,3.90625,0.316406C4.100109,0.190039,4.336886,0.147757,4.5625,0.199219C4.732965,0.242613,4.880754,0.348575,4.976563,0.496094L4.976563,0.226563"
     id="path8" />
  <path
     transform="matrix(-0.000000 -1.097260 1.182450 -0.000000 -1087.808105 215.238495)"
     style="stroke:#0000ff;stroke-width:0.05mm;fill:none"
     d="M-3.652344,0.226563L-4.441406,2.300781L-5.26709,-0.156982"
     id="path10" />
  <path
     transform="matrix(-0.000000 -1.287830 1.182450 -0.000000 -1319.572021 1371.981934)"
     style="stroke:#0000ff;stroke-width:0.05mm;fill:none"
     d="M900.60553,197.298935L899.871765,197.298935"
     id="path12" />
  <path
     transform="matrix(-0.000000 -1.097260 1.182450 -0.000000 -1087.808105 215.638977)"
     style="stroke:#0000ff;stroke-width:0.05mm;fill:none"
     d="M2.410156,0.195313C2.817629,0.27876,3.12139,0.620691,3.15625,1.035156C3.208729,1.334751,3.162096,1.643351,3.023438,1.914063C2.842752,2.200053,2.521384,2.365968,2.183594,2.347656"
     id="path14" />
  <path
     transform="matrix(-0.000000 -1.097260 1.182450 -0.000000 -1319.572021 1199.593018)"
     style="stroke:#0000ff;stroke-width:0.05mm;fill:none"
     d="M898.307251,195.714539L898.307251,197.839371C898.346619,198.05722,898.206726,198.267883,897.990845,198.316101C897.845398,198.339386,897.696777,198.334076,897.553345,198.300476"
     id="path16" />
  <path
     transform="matrix(-0.000000 -1.097260 1.182450 -0.000000 -1087.808105 214.740952)"
     style="stroke:#0000ff;stroke-width:0.05mm;fill:none"
     d="M0.046875,0.226563L0.993774,0.224319"
     id="path18" />
  <path
     transform="matrix(-0.000000 1.000000 1.000000 0.000000 -849.661987 310.175995)"
     style="stroke:#000000;stroke-width:0.05mm;fill:none"
     d="M-8.354037,0.125092C-7.820433,0.111389,-6.487875,1.775421,-5.999682,1.775482C-5.48748,1.775513,-4.045588,-0.056061,-3.572386,0.139984C-3.099185,0.336029,-3.375009,2.650726,-3.01285,3.012939C-2.650691,3.375153,-0.336071,3.09964,-0.14009,3.572906C0.055892,4.046143,-1.77582,5.487823,-1.775853,6.000061C-1.775885,6.512268,0.055738,7.954193,-0.140304,8.427429C-0.336345,8.900635,-2.651074,8.624817,-3.013279,8.986969C-3.375484,9.349121,-3.099909,11.66391,-3.573136,11.859924C-4.046362,12.055908,-5.488015,10.224152,-6.000217,10.224121C-6.51242,10.224091,-7.954313,12.055664,-8.427513,11.859619C-8.900714,11.663574,-8.62489,9.348877,-8.987049,8.986694C-9.349208,8.624481,-11.663937,8.899994,-11.859917,8.426727C-12.055899,7.953491,-10.224187,6.51181,-10.224154,5.999573C-10.224121,5.487366,-12.055637,4.045441,-11.859595,3.572205C-11.663554,3.098999,-9.348933,3.374817,-8.986729,3.012665C-8.624524,2.650482,-8.899989,0.335724,-8.426764,0.139709C-8.404585,0.130707,-8.380284,0.125824,-8.354034,0.125122L-8.354037,0.125092z"
     id="path20" />
  <path
     transform="matrix(-1.000000 0.000000 0.000000 -1.000000 -78.657997 569.588013)"
     style="stroke:#000000;stroke-width:0.05mm;fill:none"
     d="M777.512024,323.096008C777.543457,323.417297,777.671631,323.721375,777.880005,323.967987C777.970886,324.098755,778.07843,324.217102,778.200012,324.320007C778.638916,324.707336,779.089783,325.080811,779.552002,325.440002C779.956543,325.77533,780.262146,326.214752,780.432007,326.712006C780.482239,326.978394,780.507751,327.248932,780.504028,327.519989L780.504028,360.127991C780.496094,362.8862,778.262268,365.120483,775.504028,365.127991L754.504028,365.127991C752.839966,365.13327,751.28302,364.304657,750.359985,362.920013C749.84668,362.17276,749.551331,361.297363,749.504028,360.391998L749.504028,327.320007C749.521179,326.58139,749.869324,325.889099,750.455994,325.440002C750.909424,325.070557,751.360596,324.696777,751.807983,324.320007C752.22821,323.980408,752.481689,323.475861,752.504028,322.936005C752.47998,321.62674,752.482666,320.317139,752.512024,319.007996L752.512024,301.864014L752.504028,298.032013L752.504028,262.752014C752.7146,257.379913,757.127808,253.132401,762.504028,253.128006L767.504028,253.128006C773.023376,253.136246,777.495422,257.608643,777.504028,263.127991L777.504028,322.936005L777.512024,323.096008z"
     id="path22" />
  <path
     transform="matrix(-0.000000 -1.000000 1.000000 -0.000000 -849.661987 328.743988)"
     style="stroke:#000000;stroke-width:0.05mm;fill:none"
     d="M-8.354037,0.125092C-7.820433,0.111389,-6.487875,1.775421,-5.999682,1.775482C-5.48748,1.775513,-4.045588,-0.056061,-3.572386,0.139984C-3.099185,0.336029,-3.375009,2.650726,-3.01285,3.012939C-2.650691,3.375153,-0.336071,3.09964,-0.14009,3.572906C0.055892,4.046143,-1.77582,5.487823,-1.775853,6.000061C-1.775885,6.512268,0.055738,7.954193,-0.140304,8.427429C-0.336345,8.900635,-2.651074,8.624817,-3.013279,8.986969C-3.375484,9.349121,-3.099909,11.66391,-3.573136,11.859924C-4.046362,12.055908,-5.488015,10.224152,-6.000217,10.224121C-6.51242,10.224091,-7.954313,12.055664,-8.427513,11.859619C-8.900714,11.663574,-8.62489,9.348877,-8.987049,8.986694C-9.349208,8.624481,-11.663937,8.899994,-11.859917,8.426727C-12.055899,7.953491,-10.224187,6.51181,-10.224154,5.999573C-10.224121,5.487366,-12.055637,4.045441,-11.859595,3.572205C-11.663554,3.098999,-9.348933,3.374817,-8.986729,3.012665C-8.624524,2.650482,-8.899989,0.335724,-8.426764,0.139709C-8.404585,0.130707,-8.380284,0.125824,-8.354034,0.125122L-8.354037,0.125092z"
     id="path24" />
  <path
     transform="matrix(-1.000000 0.000000 0.000000 1.000000 -78.657997 69.332001)"
     style="stroke:#000000;stroke-width:0.05mm;fill:none"
     d="M777.512024,323.096008C777.543457,323.417297,777.671631,323.721375,777.880005,323.967987C777.970886,324.098755,778.07843,324.217102,778.200012,324.320007C778.638916,324.707336,779.089783,325.080811,779.552002,325.440002C779.956543,325.77533,780.262146,326.214752,780.432007,326.712006C780.482239,326.978394,780.507751,327.248932,780.504028,327.519989L780.504028,360.127991C780.496094,362.8862,778.262268,365.120483,775.504028,365.127991L754.504028,365.127991C752.839966,365.13327,751.28302,364.304657,750.359985,362.920013C749.84668,362.17276,749.551331,361.297363,749.504028,360.391998L749.504028,327.320007C749.521179,326.58139,749.869324,325.889099,750.455994,325.440002C750.909424,325.070557,751.360596,324.696777,751.807983,324.320007C752.22821,323.980408,752.481689,323.475861,752.504028,322.936005C752.47998,321.62674,752.482666,320.317139,752.512024,319.007996L752.512024,301.864014L752.504028,298.032013L752.504028,262.752014C752.7146,257.379913,757.127808,253.132401,762.504028,253.128006L767.504028,253.128006C773.023376,253.136246,777.495422,257.608643,777.504028,263.127991L777.504028,322.936005L777.512024,323.096008z"
     id="path26" />
  <path
     transform="matrix(-1.000000 0.000000 0.000000 -0.957447 5.338010 614.486389)"
     style="stroke:#004754;stroke-width:0.08111971;fill:none;stroke-miterlimit:4;stroke-dasharray:1.94687292, 1.94687291999999990;stroke-dashoffset:0.06489576;opacity:0.99"
     d="M858,227L858,274"
     id="path28" />
  <path
     transform="matrix(-1.000000 0.000000 0.000000 -0.957447 8.338010 606.986389)"
     style="stroke:#004754;stroke-width:0.08111971;fill:none;stroke-miterlimit:4;stroke-dasharray:1.94687292, 1.94687291999999990;stroke-dashoffset:0.06489576;opacity:0.99"
     d="M858,227L858,274"
     id="path30" />
  <path
     transform="matrix(-1.000000 0.000000 0.000000 -0.957447 11.338010 614.486389)"
     style="stroke:#004754;stroke-width:0.08111971;fill:none;stroke-miterlimit:4;stroke-dasharray:1.94687292, 1.94687291999999990;stroke-dashoffset:0.06489576;opacity:0.99"
     d="M858,227L858,274"
     id="path32" />
  <path
     transform="matrix(-1.000000 0.000000 0.000000 -0.957447 14.338010 606.986389)"
     style="stroke:#004754;stroke-width:0.08111971;fill:none;stroke-miterlimit:4;stroke-dasharray:1.94687292, 1.94687291999999990;stroke-dashoffset:0.06489576;opacity:0.99"
     d="M858,227L858,274"
     id="path34" />
  <path
     transform="matrix(-1.000000 0.000000 0.000000 -0.957447 17.338009 614.486389)"
     style="stroke:#004754;stroke-width:0.08111971;fill:none;stroke-miterlimit:4;stroke-dasharray:1.94687292, 1.94687291999999990;stroke-dashoffset:0.06489576;opacity:0.99"
     d="M858,227L858,274"
     id="path36" />
  <path
     transform="matrix(-1.000000 0.000000 0.000000 -0.957447 20.338009 606.986389)"
     style="stroke:#004754;stroke-width:0.08111971;fill:none;stroke-miterlimit:4;stroke-dasharray:1.94687292, 1.94687291999999990;stroke-dashoffset:0.06489576;opacity:0.99"
     d="M858,227L858,274"
     id="path38" />
  <path
     transform="matrix(-1.000000 0.000000 0.000000 -0.957447 23.338009 614.486389)"
     style="stroke:#004754;stroke-width:0.08111971;fill:none;stroke-miterlimit:4;stroke-dasharray:1.94687292, 1.94687291999999990;stroke-dashoffset:0.06489576;opacity:0.99"
     d="M858,227L858,274"
     id="path40" />
  <path
     transform="matrix(-1.000000 0.000000 0.000000 0.957447 5.338010 24.298800)"
     style="stroke:#004754;stroke-width:0.08111971;fill:none;stroke-miterlimit:4;stroke-dasharray:1.94687292, 1.94687291999999990;stroke-dashoffset:0.06489576;opacity:0.99"
     d="M858,227L858,274"
     id="path42" />
  <path
     transform="matrix(-1.000000 0.000000 0.000000 0.957447 8.338010 31.798800)"
     style="stroke:#004754;stroke-width:0.08111971;fill:none;stroke-miterlimit:4;stroke-dasharray:1.94687292, 1.94687291999999990;stroke-dashoffset:0.06489576;opacity:0.99"
     d="M858,227L858,274"
     id="path44" />
  <path
     transform="matrix(-1.000000 0.000000 0.000000 0.957447 11.338000 24.298800)"
     style="stroke:#004754;stroke-width:0.08111971;fill:none;stroke-miterlimit:4;stroke-dasharray:1.94687292, 1.94687291999999990;stroke-dashoffset:0.06489576;opacity:0.99"
     d="M858,227L858,274"
     id="path46" />
  <path
     transform="matrix(-1.000000 0.000000 0.000000 0.957447 14.338000 31.798800)"
     style="stroke:#004754;stroke-width:0.08111971;fill:none;stroke-miterlimit:4;stroke-dasharray:1.94687292, 1.94687291999999990;stroke-dashoffset:0.06489576;opacity:0.99"
     d="M858,227L858,274"
     id="path48" />
  <path
     transform="matrix(-1.000000 0.000000 0.000000 0.957447 17.337999 24.298800)"
     style="stroke:#004754;stroke-width:0.08111971;fill:none;stroke-miterlimit:4;stroke-dasharray:1.94687292, 1.94687291999999990;stroke-dashoffset:0.06489576;opacity:0.99"
     d="M858,227L858,274"
     id="path50" />
  <path
     transform="matrix(-1.000000 0.000000 0.000000 0.957447 20.337999 31.798800)"
     style="stroke:#004754;stroke-width:0.08111971;fill:none;stroke-miterlimit:4;stroke-dasharray:1.94687292, 1.94687291999999990;stroke-dashoffset:0.06489576;opacity:0.99"
     d="M858,227L858,274"
     id="path52" />
  <path
     transform="matrix(-1.000000 0.000000 0.000000 0.957447 23.337999 24.298800)"
     style="stroke:#004754;stroke-width:0.08111971;fill:none;stroke-miterlimit:4;stroke-dasharray:1.94687292, 1.94687291999999990;stroke-dashoffset:0.06489576;opacity:0.99"
     d="M858,227L858,274"
     id="path54" />
  <path
     transform="matrix(1.000000 -0.000002 -0.000002 -1.000000 -896.768066 189.328491)"
     style="stroke:#000000;stroke-width:0.05mm;fill:none"
     d="M-8.354037,0.125092C-7.820433,0.111389,-6.487875,1.775421,-5.999682,1.775482C-5.48748,1.775513,-4.045588,-0.056061,-3.572386,0.139984C-3.099185,0.336029,-3.375009,2.650726,-3.01285,3.012939C-2.650691,3.375153,-0.336071,3.09964,-0.14009,3.572906C0.055892,4.046143,-1.77582,5.487823,-1.775853,6.000061C-1.775885,6.512268,0.055738,7.954193,-0.140304,8.427429C-0.336345,8.900635,-2.651074,8.624817,-3.013279,8.986969C-3.375484,9.349121,-3.099909,11.66391,-3.573136,11.859924C-4.046362,12.055908,-5.488015,10.224152,-6.000217,10.224121C-6.51242,10.224091,-7.954313,12.055664,-8.427513,11.859619C-8.900714,11.663574,-8.62489,9.348877,-8.987049,8.986694C-9.349208,8.624481,-11.663937,8.899994,-11.859917,8.426727C-12.055899,7.953491,-10.224187,6.51181,-10.224154,5.999573C-10.224121,5.487366,-12.055637,4.045441,-11.859595,3.572205C-11.663554,3.098999,-9.348933,3.374817,-8.986729,3.012665C-8.624524,2.650482,-8.899989,0.335724,-8.426764,0.139709C-8.404585,0.130707,-8.380284,0.125824,-8.354034,0.125122L-8.354037,0.125092z"
     id="path56" />
  <path
     transform="matrix(1.000000 -0.000002 -0.000002 -1.000000 -1063.769043 189.329498)"
     style="stroke:#000000;stroke-width:0.05mm;fill:none"
     d="M-8.354037,0.125092C-7.820433,0.111389,-6.487875,1.775421,-5.999682,1.775482C-5.48748,1.775513,-4.045588,-0.056061,-3.572386,0.139984C-3.099185,0.336029,-3.375009,2.650726,-3.01285,3.012939C-2.650691,3.375153,-0.336071,3.09964,-0.14009,3.572906C0.055892,4.046143,-1.77582,5.487823,-1.775853,6.000061C-1.775885,6.512268,0.055738,7.954193,-0.140304,8.427429C-0.336345,8.900635,-2.651074,8.624817,-3.013279,8.986969C-3.375484,9.349121,-3.099909,11.66391,-3.573136,11.859924C-4.046362,12.055908,-5.488015,10.224152,-6.000217,10.224121C-6.51242,10.224091,-7.954313,12.055664,-8.427513,11.859619C-8.900714,11.663574,-8.62489,9.348877,-8.987049,8.986694C-9.349208,8.624481,-11.663937,8.899994,-11.859917,8.426727C-12.055899,7.953491,-10.224187,6.51181,-10.224154,5.999573C-10.224121,5.487366,-12.055637,4.045441,-11.859595,3.572205C-11.663554,3.098999,-9.348933,3.374817,-8.986729,3.012665C-8.624524,2.650482,-8.899989,0.335724,-8.426764,0.139709C-8.404585,0.130707,-8.380284,0.125824,-8.354034,0.125122L-8.354037,0.125092z"
     id="path58" />
  <path
     transform="matrix(-1.451610 0.000000 0.000000 1.000000 425.421967 19.329500)"
     style="stroke:#004754;stroke-width:0.06588078;fill:none;stroke-miterlimit:4;stroke-dasharray:1.58113882, 1.58113882000000006;stroke-dashoffset:0.05270463;opacity:0.99"
     d="M1019,155L926,155"
     id="path60" />
  <path
     transform="matrix(-1.451610 0.000000 0.000000 1.000000 425.421967 25.329500)"
     style="stroke:#004754;stroke-width:0.06588078;fill:none;stroke-miterlimit:4;stroke-dasharray:1.58113882, 1.58113882000000006;stroke-dashoffset:0.05270463;opacity:0.99"
     d="M1019,155L926,155"
     id="path62" />
  <path
     transform="matrix(-1.451610 0.000000 0.000000 1.000000 425.421967 31.329500)"
     style="stroke:#004754;stroke-width:0.06588078;fill:none;stroke-miterlimit:4;stroke-dasharray:1.58113882, 1.58113882000000006;stroke-dashoffset:0.05270463;opacity:0.99"
     d="M1019,155L926,155"
     id="path64" />
  <path
     transform="matrix(-1.451610 0.000000 0.000000 1.000000 425.421967 37.329498)"
     style="stroke:#004754;stroke-width:0.06588078;fill:none;stroke-miterlimit:4;stroke-dasharray:1.58113882, 1.58113882000000006;stroke-dashoffset:0.05270463;opacity:0.99"
     d="M1019,155L926,155"
     id="path66" />
  <path
     transform="matrix(-1.612900 0.000000 0.000000 1.000000 582.276978 22.329500)"
     style="stroke:#004754;stroke-width:0.0625;fill:none;stroke-miterlimit:4;stroke-dasharray:1.49999999, 1.49999999000000006;stroke-dashoffset:0.05;opacity:0.99"
     d="M1019,155L926,155"
     id="path68" />
  <path
     transform="matrix(-1.612900 0.000000 0.000000 1.000000 582.276978 28.329500)"
     style="stroke:#004754;stroke-width:0.0625;fill:none;stroke-miterlimit:4;stroke-dasharray:1.49999999, 1.49999999000000006;stroke-dashoffset:0.05;opacity:0.99"
     d="M1019,155L926,155"
     id="path70" />
  <path
     transform="matrix(-1.612900 0.000000 0.000000 1.000000 582.276978 34.329498)"
     style="stroke:#004754;stroke-width:0.0625;fill:none;stroke-miterlimit:4;stroke-dasharray:1.49999999, 1.49999999000000006;stroke-dashoffset:0.05;opacity:0.99"
     d="M1019,155L926,155"
     id="path72" />
  <path
     transform="matrix(-0.000000 -0.666667 1.000000 -0.000000 -1286.599976 955.549988)"
     style="stroke:#000000;stroke-width:0.05mm;fill:none"
     d="M825.544006,430.455994C825.672913,430.48172,825.791687,430.539581,825.903992,430.608002C826.063599,430.718262,826.194458,430.866974,826.263977,431.048004C826.30249,431.176025,826.330322,431.306946,826.343994,431.440002L826.343994,454.440002C826.334229,454.573669,826.310059,454.706055,826.263977,454.832001L826.176025,455C826.093384,455.098419,826.001465,455.188354,825.903992,455.272003L825.736023,455.359985C825.611328,455.410156,825.478149,455.432037,825.343994,455.440002L824.343994,455.440002L824.143982,455.415985C824.017578,455.385468,823.897766,455.334534,823.783997,455.272003C823.562012,455.129974,823.408508,454.900299,823.367981,454.640015L823.343994,454.440002L823.343994,448.664001C823.417786,448.616669,823.487976,448.563904,823.552002,448.503998L823.679993,448.35199C823.826904,448.128082,823.874329,447.85498,823.823975,447.59201L823.768005,447.40799C823.715637,447.289154,823.638489,447.184479,823.552002,447.088013L823.40802,446.967987L823.343994,446.928009L823.343994,438.944L823.40802,438.911987C823.798096,438.63681,823.946655,438.130646,823.768005,437.687988C823.672363,437.494476,823.527283,437.330322,823.343994,437.216003L823.343994,431.440002L823.367981,431.23999C823.420715,430.983276,823.566406,430.754211,823.783997,430.608002L823.952026,430.519989L824.143982,430.455994L824.343994,430.440002L825.343994,430.440002L825.544006,430.455994z"
     id="path74" />
  <path
     transform="matrix(-1.000000 0.000000 0.000000 0.750000 -78.594002 152.050003)"
     style="stroke:#000000;stroke-width:0.05mm;fill:none"
     d="M776.567993,348.847992L770.791992,348.847992C770.698425,348.716492,770.584778,348.601166,770.455994,348.503998C770.307495,348.421478,770.144226,348.372742,769.976013,348.35199C769.748413,348.340576,769.526245,348.410767,769.335999,348.536011C769.246521,348.609039,769.167969,348.693817,769.096008,348.783997L769.064026,348.847992L761.080017,348.847992C761.031067,348.77536,760.979187,348.704712,760.919983,348.640015C760.779968,348.499634,760.603699,348.398529,760.40802,348.368011C760.278809,348.341766,760.145691,348.343872,760.015991,348.368011L759.83197,348.424011C759.667358,348.492157,759.523193,348.601624,759.416016,348.743988L759.343994,348.847992L753.567993,348.847992C753.431641,348.837799,753.296265,348.815552,753.16803,348.768005C752.805725,348.603729,752.566772,348.245667,752.567993,347.847992L752.567993,346.847992C752.565552,346.6315,752.638306,346.421387,752.768005,346.247986C752.9552,345.994965,753.253235,345.849426,753.567993,345.847992L759.343994,345.847992L759.416016,345.951996L759.504028,346.056L759.656006,346.18399C759.768494,346.249054,759.889648,346.297699,760.015991,346.328003L760.216003,346.343994L760.40802,346.328003C760.535217,346.296082,760.656372,346.244751,760.768005,346.175995C760.878906,346.111969,760.967896,346.017914,761.039978,345.911987L761.080017,345.847992L769.064026,345.847992C769.124695,345.974609,769.219421,346.081696,769.335999,346.160004C769.478638,346.252716,769.639343,346.313354,769.807983,346.335999C770.03418,346.359314,770.259705,346.306213,770.455994,346.191986C770.585449,346.095337,770.703186,345.983368,770.791992,345.847992L776.567993,345.847992C776.697266,345.868744,776.82605,345.892456,776.952026,345.928009L777.119995,346.015991C777.18042,346.058807,777.23468,346.108917,777.288025,346.160004C777.465088,346.345703,777.563538,346.591492,777.567993,346.847992L777.567993,347.847992C777.560547,348.131378,777.439209,348.398621,777.231995,348.59201L777.119995,348.679993L776.952026,348.768005C776.826111,348.804108,776.69812,348.833099,776.567993,348.847992z"
     id="path76" />
  <path
     transform="matrix(-1.000000 0.000000 0.000000 -1.148630 -843.661987 422.691986)"
     style="stroke:#000000;stroke-width:0.05mm;fill:none"
     d="M12.5,3.853L12.5,-3.853C12.5,-4.405285,12.052284,-4.853,11.5,-4.853L-11.5,-4.853C-12.052284,-4.853,-12.5,-4.405285,-12.5,-3.853L-12.5,3.853"
     id="path78" />
  <path
     transform="matrix(-1.000000 0.000000 0.000000 1.015740 6.338010 13.488900)"
     style="stroke:#000000;stroke-width:0.05mm;fill:none"
     d="M1118.167969,306.23999C1117.906616,317.47702,1117.19397,328.700104,1116.031982,339.880005C1115.56897,344.228271,1114.990234,348.562622,1114.296021,352.880005C1113.730469,356.40921,1113.00708,359.911591,1112.128052,363.376007C1111.415894,366.237366,1110.45752,369.031677,1109.264038,371.727997C1107.464478,375.783142,1105.393066,379.712036,1103.063965,383.488007C1098.114624,391.540863,1092.394409,399.09375,1085.984009,406.040009C1085.361328,406.731232,1084.698975,407.385925,1084,408C1082.124634,409.490356,1080.091187,410.770111,1077.936035,411.81601C1074.943115,413.274353,1071.846802,414.509796,1068.671997,415.511993C1063.974243,416.993011,1059.199219,418.216125,1054.368042,419.175995C1049.759399,420.107788,1045.121948,420.894958,1040.463989,421.536011C1032.019287,422.697632,1023.537415,423.562073,1015.031982,424.127991C1008.302185,424.597534,1001.561218,424.88562,994.815979,424.992004C989.445313,425.005371,984.074219,424.861328,978.711975,424.559998C968.928223,424.082245,959.167358,423.233673,949.447998,422.015991C944.176514,421.354065,938.928467,420.519012,933.711975,419.511993C928.811096,418.586731,923.961914,417.406525,919.184021,415.976013C915.925598,415.005371,912.739136,413.80777,909.64801,412.391998C907.395935,411.37674,905.253967,410.132813,903.255981,408.679993C902.32074,407.987213,901.45813,407.201508,900.679993,406.335999C897.386658,402.810333,894.283752,399.111908,891.383972,395.256012C887.72998,390.469635,884.394714,385.448212,881.400024,380.223999C879.353088,376.670319,877.567139,372.972534,876.05603,369.160004C874.983643,366.196747,874.117554,363.162811,873.463989,360.079987C872.41449,355.143219,871.584351,350.162262,870.976013,345.152008C869.955994,336.794922,869.219666,328.407013,868.768005,320C868.498474,315.352722,868.311829,310.701813,868.208008,306.048004C868.224121,303.035065,868.320129,300.023804,868.495972,297.015991C869.625366,276.055237,871.704834,255.156311,874.728027,234.384003C875.516418,229.049744,876.388245,223.730621,877.343994,218.423996C878.079468,214.586365,878.868896,210.759277,879.711975,206.944C880.278076,204.303741,880.829834,201.662018,881.367981,199.016006C881.725647,197.507492,882.166199,196.019867,882.687988,194.559998C882.903625,193.93454,883.185486,193.334015,883.528015,192.768005C885.066589,190.406845,887.634583,188.916168,890.447998,188.751999C890.657349,188.722595,890.868652,188.709015,891.080017,188.712006L1095.303955,188.712006C1096.34668,188.725891,1097.380859,188.903625,1098.368042,189.240005C1100.508911,189.978348,1102.275513,191.526306,1103.287964,193.552002C1103.719604,194.532074,1104.078003,195.542892,1104.359985,196.576004C1104.616943,197.42981,1104.846313,198.291489,1105.047974,199.160004C1106.036621,203.962769,1107.056152,208.784485,1108.095947,213.576004C1108.880005,217.425308,1109.584106,221.289581,1110.208008,225.167999C1111.738892,234.458069,1113.045898,243.78302,1114.128052,253.136002C1115.968384,268.815552,1117.278442,284.552032,1118.05603,300.320007C1118.133057,302.228394,1118.172974,304.138031,1118.176025,306.048004L1118.167969,306.23999z"
     id="path80" />
  <path
     transform="matrix(0.996195 -0.087158 -0.087158 -0.996195 -880.356018 236.488007)"
     style="stroke:#000000;stroke-width:0.05mm;fill:none"
     d="M-8.354037,0.125092C-7.820433,0.111389,-6.487875,1.775421,-5.999682,1.775482C-5.48748,1.775513,-4.045588,-0.056061,-3.572386,0.139984C-3.099185,0.336029,-3.375009,2.650726,-3.01285,3.012939C-2.650691,3.375153,-0.336071,3.09964,-0.14009,3.572906C0.055892,4.046143,-1.77582,5.487823,-1.775853,6.000061C-1.775885,6.512268,0.055738,7.954193,-0.140304,8.427429C-0.336345,8.900635,-2.651074,8.624817,-3.013279,8.986969C-3.375484,9.349121,-3.099909,11.66391,-3.573136,11.859924C-4.046362,12.055908,-5.488015,10.224152,-6.000217,10.224121C-6.51242,10.224091,-7.954313,12.055664,-8.427513,11.859619C-8.900714,11.663574,-8.62489,9.348877,-8.987049,8.986694C-9.349208,8.624481,-11.663937,8.899994,-11.859917,8.426727C-12.055899,7.953491,-10.224187,6.51181,-10.224154,5.999573C-10.224121,5.487366,-12.055637,4.045441,-11.859595,3.572205C-11.663554,3.098999,-9.348933,3.374817,-8.986729,3.012665C-8.624524,2.650482,-8.899989,0.335724,-8.426764,0.139709C-8.404585,0.130707,-8.380284,0.125824,-8.354034,0.125122L-8.354037,0.125092z"
     id="path82" />
  <path
     transform="matrix(0.996195 0.087154 0.087154 -0.996195 -1081.400024 237.537994)"
     style="stroke:#000000;stroke-width:0.05mm;fill:none"
     d="M-8.354037,0.125092C-7.820433,0.111389,-6.487875,1.775421,-5.999682,1.775482C-5.48748,1.775513,-4.045588,-0.056061,-3.572386,0.139984C-3.099185,0.336029,-3.375009,2.650726,-3.01285,3.012939C-2.650691,3.375153,-0.336071,3.09964,-0.14009,3.572906C0.055892,4.046143,-1.77582,5.487823,-1.775853,6.000061C-1.775885,6.512268,0.055738,7.954193,-0.140304,8.427429C-0.336345,8.900635,-2.651074,8.624817,-3.013279,8.986969C-3.375484,9.349121,-3.099909,11.66391,-3.573136,11.859924C-4.046362,12.055908,-5.488015,10.224152,-6.000217,10.224121C-6.51242,10.224091,-7.954313,12.055664,-8.427513,11.859619C-8.900714,11.663574,-8.62489,9.348877,-8.987049,8.986694C-9.349208,8.624481,-11.663937,8.899994,-11.859917,8.426727C-12.055899,7.953491,-10.224187,6.51181,-10.224154,5.999573C-10.224121,5.487366,-12.055637,4.045441,-11.859595,3.572205C-11.663554,3.098999,-9.348933,3.374817,-8.986729,3.012665C-8.624524,2.650482,-8.899989,0.335724,-8.426764,0.139709C-8.404585,0.130707,-8.380284,0.125824,-8.354034,0.125122L-8.354037,0.125092z"
     id="path84" />
  <rect
     transform="matrix(-1.000000 0.000000 0.000000 1.000000 -969.000000 304.000000)"
     style="stroke:#500a78;stroke-width:0.05mm;fill:none"
     x="-150.000000"
     y="-150.000000"
     width="300.000000"
     height="300.000000"
     id="rect86" />
  <path
     transform="matrix(-0.000000 0.666667 1.000000 0.000000 -1286.599976 -317.156006)"
     style="stroke:#000000;stroke-width:0.05mm;fill:none"
     d="M825.544006,430.455994C825.672913,430.48172,825.791687,430.539581,825.903992,430.608002C826.063599,430.718262,826.194458,430.866974,826.263977,431.048004C826.30249,431.176025,826.330322,431.306946,826.343994,431.440002L826.343994,454.440002C826.334229,454.573669,826.310059,454.706055,826.263977,454.832001L826.176025,455C826.093384,455.098419,826.001465,455.188354,825.903992,455.272003L825.736023,455.359985C825.611328,455.410156,825.478149,455.432037,825.343994,455.440002L824.343994,455.440002L824.143982,455.415985C824.017578,455.385468,823.897766,455.334534,823.783997,455.272003C823.562012,455.129974,823.408508,454.900299,823.367981,454.640015L823.343994,454.440002L823.343994,448.664001C823.417786,448.616669,823.487976,448.563904,823.552002,448.503998L823.679993,448.35199C823.826904,448.128082,823.874329,447.85498,823.823975,447.59201L823.768005,447.40799C823.715637,447.289154,823.638489,447.184479,823.552002,447.088013L823.40802,446.967987L823.343994,446.928009L823.343994,438.944L823.40802,438.911987C823.798096,438.63681,823.946655,438.130646,823.768005,437.687988C823.672363,437.494476,823.527283,437.330322,823.343994,437.216003L823.343994,431.440002L823.367981,431.23999C823.420715,430.983276,823.566406,430.754211,823.783997,430.608002L823.952026,430.519989L824.143982,430.455994L824.343994,430.440002L825.343994,430.440002L825.544006,430.455994z"
     id="path88" />
  <path
     transform="matrix(-1.000000 0.000000 0.000000 -0.750000 -78.594002 486.342987)"
     style="stroke:#000000;stroke-width:0.05mm;fill:none"
     d="M776.567993,348.847992L770.791992,348.847992C770.698425,348.716492,770.584778,348.601166,770.455994,348.503998C770.307495,348.421478,770.144226,348.372742,769.976013,348.35199C769.748413,348.340576,769.526245,348.410767,769.335999,348.536011C769.246521,348.609039,769.167969,348.693817,769.096008,348.783997L769.064026,348.847992L761.080017,348.847992C761.031067,348.77536,760.979187,348.704712,760.919983,348.640015C760.779968,348.499634,760.603699,348.398529,760.40802,348.368011C760.278809,348.341766,760.145691,348.343872,760.015991,348.368011L759.83197,348.424011C759.667358,348.492157,759.523193,348.601624,759.416016,348.743988L759.343994,348.847992L753.567993,348.847992C753.431641,348.837799,753.296265,348.815552,753.16803,348.768005C752.805725,348.603729,752.566772,348.245667,752.567993,347.847992L752.567993,346.847992C752.565552,346.6315,752.638306,346.421387,752.768005,346.247986C752.9552,345.994965,753.253235,345.849426,753.567993,345.847992L759.343994,345.847992L759.416016,345.951996L759.504028,346.056L759.656006,346.18399C759.768494,346.249054,759.889648,346.297699,760.015991,346.328003L760.216003,346.343994L760.40802,346.328003C760.535217,346.296082,760.656372,346.244751,760.768005,346.175995C760.878906,346.111969,760.967896,346.017914,761.039978,345.911987L761.080017,345.847992L769.064026,345.847992C769.124695,345.974609,769.219421,346.081696,769.335999,346.160004C769.478638,346.252716,769.639343,346.313354,769.807983,346.335999C770.03418,346.359314,770.259705,346.306213,770.455994,346.191986C770.585449,346.095337,770.703186,345.983368,770.791992,345.847992L776.567993,345.847992C776.697266,345.868744,776.82605,345.892456,776.952026,345.928009L777.119995,346.015991C777.18042,346.058807,777.23468,346.108917,777.288025,346.160004C777.465088,346.345703,777.563538,346.591492,777.567993,346.847992L777.567993,347.847992C777.560547,348.131378,777.439209,348.398621,777.231995,348.59201L777.119995,348.679993L776.952026,348.768005C776.826111,348.804108,776.69812,348.833099,776.567993,348.847992z"
     id="path90" />
  <path
     transform="matrix(-1.000000 0.000000 0.000000 1.148630 -843.661987 215.701004)"
     style="stroke:#000000;stroke-width:0.05mm;fill:none"
     d="M12.5,3.853L12.5,-3.853C12.5,-4.405285,12.052284,-4.853,11.5,-4.853L-11.5,-4.853C-12.052284,-4.853,-12.5,-4.405285,-12.5,-3.853L-12.5,3.853"
     id="path92" />
  <rect
     transform="matrix(1.183470 -0.000002 -0.000003 -1.000000 -986.268982 183.330002)"
     style="stroke:#000000;stroke-width:0.05mm;fill:none"
     x="-83.430969"
     y="-12.500001"
     width="166.861938"
     height="25.000002"
     rx="10.000000"
     id="rect94" />
  <path
     transform="matrix(-0.000000 -1.097260 1.182450 -0.000000 -1087.808105 214.929504)"
     style="stroke:#0000ff;stroke-width:0.05mm;fill:none"
     d="M-1.425781,0.292969C-1.287414,0.195557,-1.114748,0.160174,-0.949219,0.195313C-0.799144,0.264107,-0.736254,0.358617,-0.568237,0.360596C-0.411896,0.362437,-0.348242,0.273438,-0.300781,0.226563L-0.300781,2.300781"
     id="path96" />
  <path
     transform="matrix(-0.000000 -1.097260 1.182450 -0.000000 -1087.808105 215.014496)"
     style="stroke:#0000ff;stroke-width:0.05mm;fill:none"
     d="M-2.28125,0.191406C-1.873348,0.253636,-1.557671,0.582133,-1.511719,0.992188C-1.45108,1.305655,-1.497874,1.63046,-1.644531,1.914063C-1.937833,2.34533,-2.512219,2.477881,-2.964844,2.21875C-3.251633,2.055948,-3.42914,1.751651,-3.429688,1.421875C-3.465131,1.143901,-3.414701,0.861764,-3.285156,0.613281C-3.068893,0.280028,-2.670644,0.11267,-2.28125,0.191406z"
     id="path98" />
  <path
     transform="matrix(-0.000000 -1.097260 1.182450 -0.000000 -1087.808105 215.346497)"
     style="stroke:#0000ff;stroke-width:0.05mm;fill:none"
     d="M4.945313,3.09375L4.945313,2.085938C4.692813,2.379975,4.258301,2.434078,3.941406,2.210938C3.635324,1.988594,3.466712,1.623266,3.496094,1.246094C3.469369,0.887179,3.623141,0.538629,3.90625,0.316406C4.100109,0.190039,4.336886,0.147757,4.5625,0.199219C4.732965,0.242613,4.880754,0.348575,4.976563,0.496094L4.976563,0.226563"
     id="path100" />
  <path
     transform="matrix(-0.000000 -1.097260 1.182450 -0.000000 -1087.808105 215.238495)"
     style="stroke:#0000ff;stroke-width:0.05mm;fill:none"
     d="M-3.652344,0.226563L-4.441406,2.300781L-5.26709,-0.156982"
     id="path102" />
  <path
     transform="matrix(-0.000000 -1.287830 1.182450 -0.000000 -1319.572021 1371.981934)"
     style="stroke:#0000ff;stroke-width:0.05mm;fill:none"
     d="M900.60553,197.298935L899.871765,197.298935"
     id="path104" />
  <path
     transform="matrix(-0.000000 -1.097260 1.182450 -0.000000 -1087.808105 215.638977)"
     style="stroke:#0000ff;stroke-width:0.05mm;fill:none"
     d="M2.410156,0.195313C2.817629,0.27876,3.12139,0.620691,3.15625,1.035156C3.208729,1.334751,3.162096,1.643351,3.023438,1.914063C2.842752,2.200053,2.521384,2.365968,2.183594,2.347656"
     id="path106" />
  <path
     transform="matrix(-0.000000 -1.097260 1.182450 -0.000000 -1319.572021 1199.593018)"
     style="stroke:#0000ff;stroke-width:0.05mm;fill:none"
     d="M898.307251,195.714539L898.307251,197.839371C898.346619,198.05722,898.206726,198.267883,897.990845,198.316101C897.845398,198.339386,897.696777,198.334076,897.553345,198.300476"
     id="path108" />
  <path
     transform="matrix(-0.000000 -1.097260 1.182450 -0.000000 -1087.808105 214.740952)"
     style="stroke:#0000ff;stroke-width:0.05mm;fill:none"
     d="M0.046875,0.226563L0.993774,0.224319"
     id="path110" />
  <path
     transform="matrix(-0.000000 1.000000 1.000000 0.000000 -849.661987 310.175995)"
     style="stroke:#000000;stroke-width:0.05mm;fill:none"
     d="M-8.354037,0.125092C-7.820433,0.111389,-6.487875,1.775421,-5.999682,1.775482C-5.48748,1.775513,-4.045588,-0.056061,-3.572386,0.139984C-3.099185,0.336029,-3.375009,2.650726,-3.01285,3.012939C-2.650691,3.375153,-0.336071,3.09964,-0.14009,3.572906C0.055892,4.046143,-1.77582,5.487823,-1.775853,6.000061C-1.775885,6.512268,0.055738,7.954193,-0.140304,8.427429C-0.336345,8.900635,-2.651074,8.624817,-3.013279,8.986969C-3.375484,9.349121,-3.099909,11.66391,-3.573136,11.859924C-4.046362,12.055908,-5.488015,10.224152,-6.000217,10.224121C-6.51242,10.224091,-7.954313,12.055664,-8.427513,11.859619C-8.900714,11.663574,-8.62489,9.348877,-8.987049,8.986694C-9.349208,8.624481,-11.663937,8.899994,-11.859917,8.426727C-12.055899,7.953491,-10.224187,6.51181,-10.224154,5.999573C-10.224121,5.487366,-12.055637,4.045441,-11.859595,3.572205C-11.663554,3.098999,-9.348933,3.374817,-8.986729,3.012665C-8.624524,2.650482,-8.899989,0.335724,-8.426764,0.139709C-8.404585,0.130707,-8.380284,0.125824,-8.354034,0.125122L-8.354037,0.125092z"
     id="path112" />
  <path
     transform="matrix(-1.000000 0.000000 0.000000 -1.000000 -78.657997 569.588013)"
     style="stroke:#000000;stroke-width:0.05mm;fill:none"
     d="M777.512024,323.096008C777.543457,323.417297,777.671631,323.721375,777.880005,323.967987C777.970886,324.098755,778.07843,324.217102,778.200012,324.320007C778.638916,324.707336,779.089783,325.080811,779.552002,325.440002C779.956543,325.77533,780.262146,326.214752,780.432007,326.712006C780.482239,326.978394,780.507751,327.248932,780.504028,327.519989L780.504028,360.127991C780.496094,362.8862,778.262268,365.120483,775.504028,365.127991L754.504028,365.127991C752.839966,365.13327,751.28302,364.304657,750.359985,362.920013C749.84668,362.17276,749.551331,361.297363,749.504028,360.391998L749.504028,327.320007C749.521179,326.58139,749.869324,325.889099,750.455994,325.440002C750.909424,325.070557,751.360596,324.696777,751.807983,324.320007C752.22821,323.980408,752.481689,323.475861,752.504028,322.936005C752.47998,321.62674,752.482666,320.317139,752.512024,319.007996L752.512024,301.864014L752.504028,298.032013L752.504028,262.752014C752.7146,257.379913,757.127808,253.132401,762.504028,253.128006L767.504028,253.128006C773.023376,253.136246,777.495422,257.608643,777.504028,263.127991L777.504028,322.936005L777.512024,323.096008z"
     id="path114" />
  <path
     transform="matrix(-0.000000 -1.000000 1.000000 -0.000000 -849.661987 328.743988)"
     style="stroke:#000000;stroke-width:0.05mm;fill:none"
     d="M-8.354037,0.125092C-7.820433,0.111389,-6.487875,1.775421,-5.999682,1.775482C-5.48748,1.775513,-4.045588,-0.056061,-3.572386,0.139984C-3.099185,0.336029,-3.375009,2.650726,-3.01285,3.012939C-2.650691,3.375153,-0.336071,3.09964,-0.14009,3.572906C0.055892,4.046143,-1.77582,5.487823,-1.775853,6.000061C-1.775885,6.512268,0.055738,7.954193,-0.140304,8.427429C-0.336345,8.900635,-2.651074,8.624817,-3.013279,8.986969C-3.375484,9.349121,-3.099909,11.66391,-3.573136,11.859924C-4.046362,12.055908,-5.488015,10.224152,-6.000217,10.224121C-6.51242,10.224091,-7.954313,12.055664,-8.427513,11.859619C-8.900714,11.663574,-8.62489,9.348877,-8.987049,8.986694C-9.349208,8.624481,-11.663937,8.899994,-11.859917,8.426727C-12.055899,7.953491,-10.224187,6.51181,-10.224154,5.999573C-10.224121,5.487366,-12.055637,4.045441,-11.859595,3.572205C-11.663554,3.098999,-9.348933,3.374817,-8.986729,3.012665C-8.624524,2.650482,-8.899989,0.335724,-8.426764,0.139709C-8.404585,0.130707,-8.380284,0.125824,-8.354034,0.125122L-8.354037,0.125092z"
     id="path116" />
  <path
     transform="matrix(-1.000000 0.000000 0.000000 1.000000 -78.657997 69.332001)"
     style="stroke:#000000;stroke-width:0.05mm;fill:none"
     d="M777.512024,323.096008C777.543457,323.417297,777.671631,323.721375,777.880005,323.967987C777.970886,324.098755,778.07843,324.217102,778.200012,324.320007C778.638916,324.707336,779.089783,325.080811,779.552002,325.440002C779.956543,325.77533,780.262146,326.214752,780.432007,326.712006C780.482239,326.978394,780.507751,327.248932,780.504028,327.519989L780.504028,360.127991C780.496094,362.8862,778.262268,365.120483,775.504028,365.127991L754.504028,365.127991C752.839966,365.13327,751.28302,364.304657,750.359985,362.920013C749.84668,362.17276,749.551331,361.297363,749.504028,360.391998L749.504028,327.320007C749.521179,326.58139,749.869324,325.889099,750.455994,325.440002C750.909424,325.070557,751.360596,324.696777,751.807983,324.320007C752.22821,323.980408,752.481689,323.475861,752.504028,322.936005C752.47998,321.62674,752.482666,320.317139,752.512024,319.007996L752.512024,301.864014L752.504028,298.032013L752.504028,262.752014C752.7146,257.379913,757.127808,253.132401,762.504028,253.128006L767.504028,253.128006C773.023376,253.136246,777.495422,257.608643,777.504028,263.127991L777.504028,322.936005L777.512024,323.096008z"
     id="path118" />
  <path
     transform="matrix(-1.000000 0.000000 0.000000 -0.957447 5.338010 614.486389)"
     style="stroke:#004754;stroke-width:0.08111971;fill:none;stroke-miterlimit:4;stroke-dasharray:1.94687292, 1.94687291999999990;stroke-dashoffset:0.06489576;opacity:0.99"
     d="M858,227L858,274"
     id="path120" />
  <path
     transform="matrix(-1.000000 0.000000 0.000000 -0.957447 8.338010 606.986389)"
     style="stroke:#004754;stroke-width:0.08111971;fill:none;stroke-miterlimit:4;stroke-dasharray:1.94687292, 1.94687291999999990;stroke-dashoffset:0.06489576;opacity:0.99"
     d="M858,227L858,274"
     id="path122" />
  <path
     transform="matrix(-1.000000 0.000000 0.000000 -0.957447 11.338010 614.486389)"
     style="stroke:#004754;stroke-width:0.08111971;fill:none;stroke-miterlimit:4;stroke-dasharray:1.94687292, 1.94687291999999990;stroke-dashoffset:0.06489576;opacity:0.99"
     d="M858,227L858,274"
     id="path124" />
  <path
     transform="matrix(-1.000000 0.000000 0.000000 -0.957447 14.338010 606.986389)"
     style="stroke:#004754;stroke-width:0.08111971;fill:none;stroke-miterlimit:4;stroke-dasharray:1.94687292, 1.94687291999999990;stroke-dashoffset:0.06489576;opacity:0.99"
     d="M858,227L858,274"
     id="path126" />
  <path
     transform="matrix(-1.000000 0.000000 0.000000 -0.957447 17.338009 614.486389)"
     style="stroke:#004754;stroke-width:0.08111971;fill:none;stroke-miterlimit:4;stroke-dasharray:1.94687292, 1.94687291999999990;stroke-dashoffset:0.06489576;opacity:0.99"
     d="M858,227L858,274"
     id="path128" />
  <path
     transform="matrix(-1.000000 0.000000 0.000000 -0.957447 20.338009 606.986389)"
     style="stroke:#004754;stroke-width:0.08111971;fill:none;stroke-miterlimit:4;stroke-dasharray:1.94687292, 1.94687291999999990;stroke-dashoffset:0.06489576;opacity:0.99"
     d="M858,227L858,274"
     id="path130" />
  <path
     transform="matrix(-1.000000 0.000000 0.000000 -0.957447 23.338009 614.486389)"
     style="stroke:#004754;stroke-width:0.08111971;fill:none;stroke-miterlimit:4;stroke-dasharray:1.94687292, 1.94687291999999990;stroke-dashoffset:0.06489576;opacity:0.99"
     d="M858,227L858,274"
     id="path132" />
  <path
     transform="matrix(-1.000000 0.000000 0.000000 0.957447 5.338010 24.298800)"
     style="stroke:#004754;stroke-width:0.08111971;fill:none;stroke-miterlimit:4;stroke-dasharray:1.94687292, 1.94687291999999990;stroke-dashoffset:0.06489576;opacity:0.99"
     d="M858,227L858,274"
     id="path134" />
  <path
     transform="matrix(-1.000000 0.000000 0.000000 0.957447 8.338010 31.798800)"
     style="stroke:#004754;stroke-width:0.08111971;fill:none;stroke-miterlimit:4;stroke-dasharray:1.94687292, 1.94687291999999990;stroke-dashoffset:0.06489576;opacity:0.99"
     d="M858,227L858,274"
     id="path136" />
  <path
     transform="matrix(-1.000000 0.000000 0.000000 0.957447 11.338000 24.298800)"
     style="stroke:#004754;stroke-width:0.08111971;fill:none;stroke-miterlimit:4;stroke-dasharray:1.94687292, 1.94687291999999990;stroke-dashoffset:0.06489576;opacity:0.99"
     d="M858,227L858,274"
     id="path138" />
  <path
     transform="matrix(-1.000000 0.000000 0.000000 0.957447 14.338000 31.798800)"
     style="stroke:#004754;stroke-width:0.08111971;fill:none;stroke-miterlimit:4;stroke-dasharray:1.94687292, 1.94687291999999990;stroke-dashoffset:0.06489576;opacity:0.99"
     d="M858,227L858,274"
     id="path140" />
  <path
     transform="matrix(-1.000000 0.000000 0.000000 0.957447 17.337999 24.298800)"
     style="stroke:#004754;stroke-width:0.08111971;fill:none;stroke-miterlimit:4;stroke-dasharray:1.94687292, 1.94687291999999990;stroke-dashoffset:0.06489576;opacity:0.99"
     d="M858,227L858,274"
     id="path142" />
  <path
     transform="matrix(-1.000000 0.000000 0.000000 0.957447 20.337999 31.798800)"
     style="stroke:#004754;stroke-width:0.08111971;fill:none;stroke-miterlimit:4;stroke-dasharray:1.94687292, 1.94687291999999990;stroke-dashoffset:0.06489576;opacity:0.99"
     d="M858,227L858,274"
     id="path144" />
  <path
     transform="matrix(-1.000000 0.000000 0.000000 0.957447 23.337999 24.298800)"
     style="stroke:#004754;stroke-width:0.08111971;fill:none;stroke-miterlimit:4;stroke-dasharray:1.94687292, 1.94687291999999990;stroke-dashoffset:0.06489576;opacity:0.99"
     d="M858,227L858,274"
     id="path146" />
  <path
     transform="matrix(1.000000 -0.000002 -0.000002 -1.000000 -896.768066 189.328491)"
     style="stroke:#000000;stroke-width:0.05mm;fill:none"
     d="M-8.354037,0.125092C-7.820433,0.111389,-6.487875,1.775421,-5.999682,1.775482C-5.48748,1.775513,-4.045588,-0.056061,-3.572386,0.139984C-3.099185,0.336029,-3.375009,2.650726,-3.01285,3.012939C-2.650691,3.375153,-0.336071,3.09964,-0.14009,3.572906C0.055892,4.046143,-1.77582,5.487823,-1.775853,6.000061C-1.775885,6.512268,0.055738,7.954193,-0.140304,8.427429C-0.336345,8.900635,-2.651074,8.624817,-3.013279,8.986969C-3.375484,9.349121,-3.099909,11.66391,-3.573136,11.859924C-4.046362,12.055908,-5.488015,10.224152,-6.000217,10.224121C-6.51242,10.224091,-7.954313,12.055664,-8.427513,11.859619C-8.900714,11.663574,-8.62489,9.348877,-8.987049,8.986694C-9.349208,8.624481,-11.663937,8.899994,-11.859917,8.426727C-12.055899,7.953491,-10.224187,6.51181,-10.224154,5.999573C-10.224121,5.487366,-12.055637,4.045441,-11.859595,3.572205C-11.663554,3.098999,-9.348933,3.374817,-8.986729,3.012665C-8.624524,2.650482,-8.899989,0.335724,-8.426764,0.139709C-8.404585,0.130707,-8.380284,0.125824,-8.354034,0.125122L-8.354037,0.125092z"
     id="path148" />
  <path
     transform="matrix(1.000000 -0.000002 -0.000002 -1.000000 -1063.769043 189.329498)"
     style="stroke:#000000;stroke-width:0.05mm;fill:none"
     d="M-8.354037,0.125092C-7.820433,0.111389,-6.487875,1.775421,-5.999682,1.775482C-5.48748,1.775513,-4.045588,-0.056061,-3.572386,0.139984C-3.099185,0.336029,-3.375009,2.650726,-3.01285,3.012939C-2.650691,3.375153,-0.336071,3.09964,-0.14009,3.572906C0.055892,4.046143,-1.77582,5.487823,-1.775853,6.000061C-1.775885,6.512268,0.055738,7.954193,-0.140304,8.427429C-0.336345,8.900635,-2.651074,8.624817,-3.013279,8.986969C-3.375484,9.349121,-3.099909,11.66391,-3.573136,11.859924C-4.046362,12.055908,-5.488015,10.224152,-6.000217,10.224121C-6.51242,10.224091,-7.954313,12.055664,-8.427513,11.859619C-8.900714,11.663574,-8.62489,9.348877,-8.987049,8.986694C-9.349208,8.624481,-11.663937,8.899994,-11.859917,8.426727C-12.055899,7.953491,-10.224187,6.51181,-10.224154,5.999573C-10.224121,5.487366,-12.055637,4.045441,-11.859595,3.572205C-11.663554,3.098999,-9.348933,3.374817,-8.986729,3.012665C-8.624524,2.650482,-8.899989,0.335724,-8.426764,0.139709C-8.404585,0.130707,-8.380284,0.125824,-8.354034,0.125122L-8.354037,0.125092z"
     id="path150" />
  <path
     transform="matrix(-1.451610 0.000000 0.000000 1.000000 425.421967 19.329500)"
     style="stroke:#004754;stroke-width:0.06588078;fill:none;stroke-miterlimit:4;stroke-dasharray:1.58113882, 1.58113882000000006;stroke-dashoffset:0.05270463;opacity:0.99"
     d="M1019,155L926,155"
     id="path152" />
  <path
     transform="matrix(-1.451610 0.000000 0.000000 1.000000 425.421967 25.329500)"
     style="stroke:#004754;stroke-width:0.06588078;fill:none;stroke-miterlimit:4;stroke-dasharray:1.58113882, 1.58113882000000006;stroke-dashoffset:0.05270463;opacity:0.99"
     d="M1019,155L926,155"
     id="path154" />
  <path
     transform="matrix(-1.451610 0.000000 0.000000 1.000000 425.421967 31.329500)"
     style="stroke:#004754;stroke-width:0.06588078;fill:none;stroke-miterlimit:4;stroke-dasharray:1.58113882, 1.58113882000000006;stroke-dashoffset:0.05270463;opacity:0.99"
     d="M1019,155L926,155"
     id="path156" />
  <path
     transform="matrix(-1.451610 0.000000 0.000000 1.000000 425.421967 37.329498)"
     style="stroke:#004754;stroke-width:0.06588078;fill:none;stroke-miterlimit:4;stroke-dasharray:1.58113882, 1.58113882000000006;stroke-dashoffset:0.05270463;opacity:0.99"
     d="M1019,155L926,155"
     id="path158" />
  <path
     transform="matrix(-1.612900 0.000000 0.000000 1.000000 582.276978 22.329500)"
     style="stroke:#004754;stroke-width:0.0625;fill:none;stroke-miterlimit:4;stroke-dasharray:1.49999999, 1.49999999000000006;stroke-dashoffset:0.05;opacity:0.99"
     d="M1019,155L926,155"
     id="path160" />
  <path
     transform="matrix(-1.612900 0.000000 0.000000 1.000000 582.276978 28.329500)"
     style="stroke:#004754;stroke-width:0.0625;fill:none;stroke-miterlimit:4;stroke-dasharray:1.49999999, 1.49999999000000006;stroke-dashoffset:0.05;opacity:0.99"
     d="M1019,155L926,155"
     id="path162" />
  <path
     transform="matrix(-1.612900 0.000000 0.000000 1.000000 582.276978 34.329498)"
     style="stroke:#004754;stroke-width:0.0625;fill:none;stroke-miterlimit:4;stroke-dasharray:1.49999999, 1.49999999000000006;stroke-dashoffset:0.05;opacity:0.99"
     d="M1019,155L926,155"
     id="path164" />
  <path
     transform="matrix(-0.000000 -0.666667 1.000000 -0.000000 -1286.599976 955.549988)"
     style="stroke:#000000;stroke-width:0.05mm;fill:none"
     d="M825.544006,430.455994C825.672913,430.48172,825.791687,430.539581,825.903992,430.608002C826.063599,430.718262,826.194458,430.866974,826.263977,431.048004C826.30249,431.176025,826.330322,431.306946,826.343994,431.440002L826.343994,454.440002C826.334229,454.573669,826.310059,454.706055,826.263977,454.832001L826.176025,455C826.093384,455.098419,826.001465,455.188354,825.903992,455.272003L825.736023,455.359985C825.611328,455.410156,825.478149,455.432037,825.343994,455.440002L824.343994,455.440002L824.143982,455.415985C824.017578,455.385468,823.897766,455.334534,823.783997,455.272003C823.562012,455.129974,823.408508,454.900299,823.367981,454.640015L823.343994,454.440002L823.343994,448.664001C823.417786,448.616669,823.487976,448.563904,823.552002,448.503998L823.679993,448.35199C823.826904,448.128082,823.874329,447.85498,823.823975,447.59201L823.768005,447.40799C823.715637,447.289154,823.638489,447.184479,823.552002,447.088013L823.40802,446.967987L823.343994,446.928009L823.343994,438.944L823.40802,438.911987C823.798096,438.63681,823.946655,438.130646,823.768005,437.687988C823.672363,437.494476,823.527283,437.330322,823.343994,437.216003L823.343994,431.440002L823.367981,431.23999C823.420715,430.983276,823.566406,430.754211,823.783997,430.608002L823.952026,430.519989L824.143982,430.455994L824.343994,430.440002L825.343994,430.440002L825.544006,430.455994z"
     id="path166" />
  <path
     transform="matrix(-1.000000 0.000000 0.000000 0.750000 -78.594002 152.050003)"
     style="stroke:#000000;stroke-width:0.05mm;fill:none"
     d="M776.567993,348.847992L770.791992,348.847992C770.698425,348.716492,770.584778,348.601166,770.455994,348.503998C770.307495,348.421478,770.144226,348.372742,769.976013,348.35199C769.748413,348.340576,769.526245,348.410767,769.335999,348.536011C769.246521,348.609039,769.167969,348.693817,769.096008,348.783997L769.064026,348.847992L761.080017,348.847992C761.031067,348.77536,760.979187,348.704712,760.919983,348.640015C760.779968,348.499634,760.603699,348.398529,760.40802,348.368011C760.278809,348.341766,760.145691,348.343872,760.015991,348.368011L759.83197,348.424011C759.667358,348.492157,759.523193,348.601624,759.416016,348.743988L759.343994,348.847992L753.567993,348.847992C753.431641,348.837799,753.296265,348.815552,753.16803,348.768005C752.805725,348.603729,752.566772,348.245667,752.567993,347.847992L752.567993,346.847992C752.565552,346.6315,752.638306,346.421387,752.768005,346.247986C752.9552,345.994965,753.253235,345.849426,753.567993,345.847992L759.343994,345.847992L759.416016,345.951996L759.504028,346.056L759.656006,346.18399C759.768494,346.249054,759.889648,346.297699,760.015991,346.328003L760.216003,346.343994L760.40802,346.328003C760.535217,346.296082,760.656372,346.244751,760.768005,346.175995C760.878906,346.111969,760.967896,346.017914,761.039978,345.911987L761.080017,345.847992L769.064026,345.847992C769.124695,345.974609,769.219421,346.081696,769.335999,346.160004C769.478638,346.252716,769.639343,346.313354,769.807983,346.335999C770.03418,346.359314,770.259705,346.306213,770.455994,346.191986C770.585449,346.095337,770.703186,345.983368,770.791992,345.847992L776.567993,345.847992C776.697266,345.868744,776.82605,345.892456,776.952026,345.928009L777.119995,346.015991C777.18042,346.058807,777.23468,346.108917,777.288025,346.160004C777.465088,346.345703,777.563538,346.591492,777.567993,346.847992L777.567993,347.847992C777.560547,348.131378,777.439209,348.398621,777.231995,348.59201L777.119995,348.679993L776.952026,348.768005C776.826111,348.804108,776.69812,348.833099,776.567993,348.847992z"
     id="path168" />
  <path
     transform="matrix(-1.000000 0.000000 0.000000 -1.148630 -843.661987 422.691986)"
     style="stroke:#000000;stroke-width:0.05mm;fill:none"
     d="M12.5,3.853L12.5,-3.853C12.5,-4.405285,12.052284,-4.853,11.5,-4.853L-11.5,-4.853C-12.052284,-4.853,-12.5,-4.405285,-12.5,-3.853L-12.5,3.853"
     id="path170" />
  <path
     transform="matrix(-1.000000 0.000000 0.000000 1.015740 6.338010 13.488900)"
     style="stroke:#000000;stroke-width:0.05mm;fill:none"
     d="M1118.167969,306.23999C1117.906616,317.47702,1117.19397,328.700104,1116.031982,339.880005C1115.56897,344.228271,1114.990234,348.562622,1114.296021,352.880005C1113.730469,356.40921,1113.00708,359.911591,1112.128052,363.376007C1111.415894,366.237366,1110.45752,369.031677,1109.264038,371.727997C1107.464478,375.783142,1105.393066,379.712036,1103.063965,383.488007C1098.114624,391.540863,1092.394409,399.09375,1085.984009,406.040009C1085.361328,406.731232,1084.698975,407.385925,1084,408C1082.124634,409.490356,1080.091187,410.770111,1077.936035,411.81601C1074.943115,413.274353,1071.846802,414.509796,1068.671997,415.511993C1063.974243,416.993011,1059.199219,418.216125,1054.368042,419.175995C1049.759399,420.107788,1045.121948,420.894958,1040.463989,421.536011C1032.019287,422.697632,1023.537415,423.562073,1015.031982,424.127991C1008.302185,424.597534,1001.561218,424.88562,994.815979,424.992004C989.445313,425.005371,984.074219,424.861328,978.711975,424.559998C968.928223,424.082245,959.167358,423.233673,949.447998,422.015991C944.176514,421.354065,938.928467,420.519012,933.711975,419.511993C928.811096,418.586731,923.961914,417.406525,919.184021,415.976013C915.925598,415.005371,912.739136,413.80777,909.64801,412.391998C907.395935,411.37674,905.253967,410.132813,903.255981,408.679993C902.32074,407.987213,901.45813,407.201508,900.679993,406.335999C897.386658,402.810333,894.283752,399.111908,891.383972,395.256012C887.72998,390.469635,884.394714,385.448212,881.400024,380.223999C879.353088,376.670319,877.567139,372.972534,876.05603,369.160004C874.983643,366.196747,874.117554,363.162811,873.463989,360.079987C872.41449,355.143219,871.584351,350.162262,870.976013,345.152008C869.955994,336.794922,869.219666,328.407013,868.768005,320C868.498474,315.352722,868.311829,310.701813,868.208008,306.048004C868.224121,303.035065,868.320129,300.023804,868.495972,297.015991C869.625366,276.055237,871.704834,255.156311,874.728027,234.384003C875.516418,229.049744,876.388245,223.730621,877.343994,218.423996C878.079468,214.586365,878.868896,210.759277,879.711975,206.944C880.278076,204.303741,880.829834,201.662018,881.367981,199.016006C881.725647,197.507492,882.166199,196.019867,882.687988,194.559998C882.903625,193.93454,883.185486,193.334015,883.528015,192.768005C885.066589,190.406845,887.634583,188.916168,890.447998,188.751999C890.657349,188.722595,890.868652,188.709015,891.080017,188.712006L1095.303955,188.712006C1096.34668,188.725891,1097.380859,188.903625,1098.368042,189.240005C1100.508911,189.978348,1102.275513,191.526306,1103.287964,193.552002C1103.719604,194.532074,1104.078003,195.542892,1104.359985,196.576004C1104.616943,197.42981,1104.846313,198.291489,1105.047974,199.160004C1106.036621,203.962769,1107.056152,208.784485,1108.095947,213.576004C1108.880005,217.425308,1109.584106,221.289581,1110.208008,225.167999C1111.738892,234.458069,1113.045898,243.78302,1114.128052,253.136002C1115.968384,268.815552,1117.278442,284.552032,1118.05603,300.320007C1118.133057,302.228394,1118.172974,304.138031,1118.176025,306.048004L1118.167969,306.23999z"
     id="path172" />
  <path
     transform="matrix(0.996195 -0.087158 -0.087158 -0.996195 -880.356018 236.488007)"
     style="stroke:#000000;stroke-width:0.05mm;fill:none"
     d="M-8.354037,0.125092C-7.820433,0.111389,-6.487875,1.775421,-5.999682,1.775482C-5.48748,1.775513,-4.045588,-0.056061,-3.572386,0.139984C-3.099185,0.336029,-3.375009,2.650726,-3.01285,3.012939C-2.650691,3.375153,-0.336071,3.09964,-0.14009,3.572906C0.055892,4.046143,-1.77582,5.487823,-1.775853,6.000061C-1.775885,6.512268,0.055738,7.954193,-0.140304,8.427429C-0.336345,8.900635,-2.651074,8.624817,-3.013279,8.986969C-3.375484,9.349121,-3.099909,11.66391,-3.573136,11.859924C-4.046362,12.055908,-5.488015,10.224152,-6.000217,10.224121C-6.51242,10.224091,-7.954313,12.055664,-8.427513,11.859619C-8.900714,11.663574,-8.62489,9.348877,-8.987049,8.986694C-9.349208,8.624481,-11.663937,8.899994,-11.859917,8.426727C-12.055899,7.953491,-10.224187,6.51181,-10.224154,5.999573C-10.224121,5.487366,-12.055637,4.045441,-11.859595,3.572205C-11.663554,3.098999,-9.348933,3.374817,-8.986729,3.012665C-8.624524,2.650482,-8.899989,0.335724,-8.426764,0.139709C-8.404585,0.130707,-8.380284,0.125824,-8.354034,0.125122L-8.354037,0.125092z"
     id="path174" />
  <path
     transform="matrix(0.996195 0.087154 0.087154 -0.996195 -1081.400024 237.537994)"
     style="stroke:#000000;stroke-width:0.05mm;fill:none"
     d="M-8.354037,0.125092C-7.820433,0.111389,-6.487875,1.775421,-5.999682,1.775482C-5.48748,1.775513,-4.045588,-0.056061,-3.572386,0.139984C-3.099185,0.336029,-3.375009,2.650726,-3.01285,3.012939C-2.650691,3.375153,-0.336071,3.09964,-0.14009,3.572906C0.055892,4.046143,-1.77582,5.487823,-1.775853,6.000061C-1.775885,6.512268,0.055738,7.954193,-0.140304,8.427429C-0.336345,8.900635,-2.651074,8.624817,-3.013279,8.986969C-3.375484,9.349121,-3.099909,11.66391,-3.573136,11.859924C-4.046362,12.055908,-5.488015,10.224152,-6.000217,10.224121C-6.51242,10.224091,-7.954313,12.055664,-8.427513,11.859619C-8.900714,11.663574,-8.62489,9.348877,-8.987049,8.986694C-9.349208,8.624481,-11.663937,8.899994,-11.859917,8.426727C-12.055899,7.953491,-10.224187,6.51181,-10.224154,5.999573C-10.224121,5.487366,-12.055637,4.045441,-11.859595,3.572205C-11.663554,3.098999,-9.348933,3.374817,-8.986729,3.012665C-8.624524,2.650482,-8.899989,0.335724,-8.426764,0.139709C-8.404585,0.130707,-8.380284,0.125824,-8.354034,0.125122L-8.354037,0.125092z"
     id="path176" />
  <path
     transform="matrix(-0.000000 0.666667 1.000000 0.000000 -1286.599976 -317.156006)"
     style="stroke:#000000;stroke-width:0.05mm;fill:none"
     d="M825.544006,430.455994C825.672913,430.48172,825.791687,430.539581,825.903992,430.608002C826.063599,430.718262,826.194458,430.866974,826.263977,431.048004C826.30249,431.176025,826.330322,431.306946,826.343994,431.440002L826.343994,454.440002C826.334229,454.573669,826.310059,454.706055,826.263977,454.832001L826.176025,455C826.093384,455.098419,826.001465,455.188354,825.903992,455.272003L825.736023,455.359985C825.611328,455.410156,825.478149,455.432037,825.343994,455.440002L824.343994,455.440002L824.143982,455.415985C824.017578,455.385468,823.897766,455.334534,823.783997,455.272003C823.562012,455.129974,823.408508,454.900299,823.367981,454.640015L823.343994,454.440002L823.343994,448.664001C823.417786,448.616669,823.487976,448.563904,823.552002,448.503998L823.679993,448.35199C823.826904,448.128082,823.874329,447.85498,823.823975,447.59201L823.768005,447.40799C823.715637,447.289154,823.638489,447.184479,823.552002,447.088013L823.40802,446.967987L823.343994,446.928009L823.343994,438.944L823.40802,438.911987C823.798096,438.63681,823.946655,438.130646,823.768005,437.687988C823.672363,437.494476,823.527283,437.330322,823.343994,437.216003L823.343994,431.440002L823.367981,431.23999C823.420715,430.983276,823.566406,430.754211,823.783997,430.608002L823.952026,430.519989L824.143982,430.455994L824.343994,430.440002L825.343994,430.440002L825.544006,430.455994z"
     id="path178" />
  <path
     transform="matrix(-1.000000 0.000000 0.000000 -0.750000 -78.594002 486.342987)"
     style="stroke:#000000;stroke-width:0.05mm;fill:none"
     d="M776.567993,348.847992L770.791992,348.847992C770.698425,348.716492,770.584778,348.601166,770.455994,348.503998C770.307495,348.421478,770.144226,348.372742,769.976013,348.35199C769.748413,348.340576,769.526245,348.410767,769.335999,348.536011C769.246521,348.609039,769.167969,348.693817,769.096008,348.783997L769.064026,348.847992L761.080017,348.847992C761.031067,348.77536,760.979187,348.704712,760.919983,348.640015C760.779968,348.499634,760.603699,348.398529,760.40802,348.368011C760.278809,348.341766,760.145691,348.343872,760.015991,348.368011L759.83197,348.424011C759.667358,348.492157,759.523193,348.601624,759.416016,348.743988L759.343994,348.847992L753.567993,348.847992C753.431641,348.837799,753.296265,348.815552,753.16803,348.768005C752.805725,348.603729,752.566772,348.245667,752.567993,347.847992L752.567993,346.847992C752.565552,346.6315,752.638306,346.421387,752.768005,346.247986C752.9552,345.994965,753.253235,345.849426,753.567993,345.847992L759.343994,345.847992L759.416016,345.951996L759.504028,346.056L759.656006,346.18399C759.768494,346.249054,759.889648,346.297699,760.015991,346.328003L760.216003,346.343994L760.40802,346.328003C760.535217,346.296082,760.656372,346.244751,760.768005,346.175995C760.878906,346.111969,760.967896,346.017914,761.039978,345.911987L761.080017,345.847992L769.064026,345.847992C769.124695,345.974609,769.219421,346.081696,769.335999,346.160004C769.478638,346.252716,769.639343,346.313354,769.807983,346.335999C770.03418,346.359314,770.259705,346.306213,770.455994,346.191986C770.585449,346.095337,770.703186,345.983368,770.791992,345.847992L776.567993,345.847992C776.697266,345.868744,776.82605,345.892456,776.952026,345.928009L777.119995,346.015991C777.18042,346.058807,777.23468,346.108917,777.288025,346.160004C777.465088,346.345703,777.563538,346.591492,777.567993,346.847992L777.567993,347.847992C777.560547,348.131378,777.439209,348.398621,777.231995,348.59201L777.119995,348.679993L776.952026,348.768005C776.826111,348.804108,776.69812,348.833099,776.567993,348.847992z"
     id="path180" />
  <path
     transform="matrix(-1.000000 0.000000 0.000000 1.148630 -843.661987 215.701004)"
     style="stroke:#000000;stroke-width:0.05mm;fill:none"
     d="M12.5,3.853L12.5,-3.853C12.5,-4.405285,12.052284,-4.853,11.5,-4.853L-11.5,-4.853C-12.052284,-4.853,-12.5,-4.405285,-12.5,-3.853L-12.5,3.853"
     id="path182" />
</svg>
