  0
SECTION
  2
HEADER
  9
$ACADVER
  1
AC1009
  0
ENDSEC
  0
SECTION
  2
ENTITIES
  0
POLYLINE
  5
90
  8
Layer_2
  62
0
  70
1
  66
1
  10
0
  20
0
  30
0
  0
VERTEX
  5
90
  8
Layer_2
  10
400.6344
  20
704.17023
  0
VERTEX
  5
91
  8
Layer_2
  10
226.82764
  20
704.16986
  0
VERTEX
  5
92
  8
Layer_2
  10
226.21875
  20
704.18286
  0
VERTEX
  5
93
  8
Layer_2
  10
225.61768
  20
704.2215
  0
VERTEX
  5
94
  8
Layer_2
  10
225.02527
  20
704.28503
  0
VERTEX
  5
95
  8
Layer_2
  10
224.4425
  20
704.37305
  0
VERTEX
  5
96
  8
Layer_2
  10
223.87
  20
704.48468
  0
VERTEX
  5
97
  8
Layer_2
  10
223.30835
  20
704.61945
  0
VERTEX
  5
98
  8
Layer_2
  10
222.75842
  20
704.77661
  0
VERTEX
  5
99
  8
Layer_2
  10
222.22107
  20
704.95569
  0
VERTEX
  5
9a
  8
Layer_2
  10
221.18652
  20
705.37683
  0
VERTEX
  5
9b
  8
Layer_2
  10
220.21069
  20
705.87769
  0
VERTEX
  5
9c
  8
Layer_2
  10
219.29956
  20
706.45337
  0
VERTEX
  5
9d
  8
Layer_2
  10
218.45923
  20
707.09875
  0
VERTEX
  5
9e
  8
Layer_2
  10
218.06738
  20
707.44604
  0
VERTEX
  5
9f
  8
Layer_2
  10
217.69531
  20
707.80896
  0
VERTEX
  5
a0
  8
Layer_2
  10
217.34399
  20
708.18665
  0
VERTEX
  5
a1
  8
Layer_2
  10
217.01416
  20
708.57874
  0
VERTEX
  5
a2
  8
Layer_2
  10
216.7063
  20
708.9845
  0
VERTEX
  5
a3
  8
Layer_2
  10
216.42139
  20
709.40326
  0
VERTEX
  5
a4
  8
Layer_2
  10
216.16003
  20
709.83447
  0
VERTEX
  5
a5
  8
Layer_2
  10
215.92297
  20
710.2774
  0
VERTEX
  5
a6
  8
Layer_2
  10
215.71118
  20
710.73151
  0
VERTEX
  5
a7
  8
Layer_2
  10
215.52502
  20
711.19617
  0
VERTEX
  5
a8
  8
Layer_2
  10
215.3656
  20
711.67065
  0
VERTEX
  5
a9
  8
Layer_2
  10
215.2334
  20
712.15448
  0
VERTEX
  5
aa
  8
Layer_2
  10
215.12927
  20
712.64697
  0
VERTEX
  5
ab
  8
Layer_2
  10
215.05408
  20
713.1474
  0
VERTEX
  5
ac
  8
Layer_2
  10
215.0083
  20
713.65527
  0
VERTEX
  5
ad
  8
Layer_2
  10
214.99292
  20
714.16986
  0
VERTEX
  5
ae
  8
Layer_2
  10
214.99292
  20
719.16986
  0
VERTEX
  5
af
  8
Layer_2
  10
215.0083
  20
719.68445
  0
VERTEX
  5
b0
  8
Layer_2
  10
215.05408
  20
720.19226
  0
VERTEX
  5
b1
  8
Layer_2
  10
215.12927
  20
720.69275
  0
VERTEX
  5
b2
  8
Layer_2
  10
215.2334
  20
721.18518
  0
VERTEX
  5
b3
  8
Layer_2
  10
215.3656
  20
721.66901
  0
VERTEX
  5
b4
  8
Layer_2
  10
215.52502
  20
722.14355
  0
VERTEX
  5
b5
  8
Layer_2
  10
215.71118
  20
722.60815
  0
VERTEX
  5
b6
  8
Layer_2
  10
215.92297
  20
723.06232
  0
VERTEX
  5
b7
  8
Layer_2
  10
216.16003
  20
723.50525
  0
VERTEX
  5
b8
  8
Layer_2
  10
216.42139
  20
723.9364
  0
VERTEX
  5
b9
  8
Layer_2
  10
216.7063
  20
724.35522
  0
VERTEX
  5
ba
  8
Layer_2
  10
217.01416
  20
724.76099
  0
VERTEX
  5
bb
  8
Layer_2
  10
217.34399
  20
725.15302
  0
VERTEX
  5
bc
  8
Layer_2
  10
217.69531
  20
725.53076
  0
VERTEX
  5
bd
  8
Layer_2
  10
218.06738
  20
725.89362
  0
VERTEX
  5
be
  8
Layer_2
  10
218.45923
  20
726.24091
  0
VERTEX
  5
bf
  8
Layer_2
  10
219.29956
  20
726.88635
  0
VERTEX
  5
c0
  8
Layer_2
  10
220.21069
  20
727.46204
  0
VERTEX
  5
c1
  8
Layer_2
  10
221.18652
  20
727.96289
  0
VERTEX
  5
c2
  8
Layer_2
  10
222.22107
  20
728.38403
  0
VERTEX
  5
c3
  8
Layer_2
  10
222.75842
  20
728.56311
  0
VERTEX
  5
c4
  8
Layer_2
  10
223.30835
  20
728.72028
  0
VERTEX
  5
c5
  8
Layer_2
  10
223.87
  20
728.85504
  0
VERTEX
  5
c6
  8
Layer_2
  10
224.4425
  20
728.96667
  0
VERTEX
  5
c7
  8
Layer_2
  10
225.02527
  20
729.05469
  0
VERTEX
  5
c8
  8
Layer_2
  10
225.61768
  20
729.11823
  0
VERTEX
  5
c9
  8
Layer_2
  10
226.21875
  20
729.15686
  0
VERTEX
  5
ca
  8
Layer_2
  10
226.82764
  20
729.16986
  0
VERTEX
  5
cb
  8
Layer_2
  10
400.63434
  20
729.17023
  0
VERTEX
  5
cc
  8
Layer_2
  10
401.24335
  20
729.15723
  0
VERTEX
  5
cd
  8
Layer_2
  10
401.84436
  20
729.11859
  0
VERTEX
  5
ce
  8
Layer_2
  10
402.43665
  20
729.05505
  0
VERTEX
  5
cf
  8
Layer_2
  10
403.01947
  20
728.96704
  0
VERTEX
  5
d0
  8
Layer_2
  10
403.59204
  20
728.85541
  0
VERTEX
  5
d1
  8
Layer_2
  10
404.15369
  20
728.72064
  0
VERTEX
  5
d2
  8
Layer_2
  10
404.70349
  20
728.56348
  0
VERTEX
  5
d3
  8
Layer_2
  10
405.24097
  20
728.3844
  0
VERTEX
  5
d4
  8
Layer_2
  10
406.27545
  20
727.96326
  0
VERTEX
  5
d5
  8
Layer_2
  10
407.25122
  20
727.4624
  0
VERTEX
  5
d6
  8
Layer_2
  10
408.16229
  20
726.88672
  0
VERTEX
  5
d7
  8
Layer_2
  10
409.00275
  20
726.24133
  0
VERTEX
  5
d8
  8
Layer_2
  10
409.39465
  20
725.89404
  0
VERTEX
  5
d9
  8
Layer_2
  10
409.7666
  20
725.53113
  0
VERTEX
  5
da
  8
Layer_2
  10
410.11798
  20
725.15344
  0
VERTEX
  5
db
  8
Layer_2
  10
410.44794
  20
724.76135
  0
VERTEX
  5
dc
  8
Layer_2
  10
410.7558
  20
724.35559
  0
VERTEX
  5
dd
  8
Layer_2
  10
411.04071
  20
723.93683
  0
VERTEX
  5
de
  8
Layer_2
  10
411.30212
  20
723.50562
  0
VERTEX
  5
df
  8
Layer_2
  10
411.53906
  20
723.06268
  0
VERTEX
  5
e0
  8
Layer_2
  10
411.75098
  20
722.60858
  0
VERTEX
  5
e1
  8
Layer_2
  10
411.93701
  20
722.14392
  0
VERTEX
  5
e2
  8
Layer_2
  10
412.0965
  20
721.66943
  0
VERTEX
  5
e3
  8
Layer_2
  10
412.22864
  20
721.18561
  0
VERTEX
  5
e4
  8
Layer_2
  10
412.33276
  20
720.69312
  0
VERTEX
  5
e5
  8
Layer_2
  10
412.40796
  20
720.19269
  0
VERTEX
  5
e6
  8
Layer_2
  10
412.45367
  20
719.68481
  0
VERTEX
  5
e7
  8
Layer_2
  10
412.46906
  20
719.17023
  0
VERTEX
  5
e8
  8
Layer_2
  10
412.46906
  20
714.17023
  0
VERTEX
  5
e9
  8
Layer_2
  10
412.45374
  20
713.65564
  0
VERTEX
  5
ea
  8
Layer_2
  10
412.40802
  20
713.14783
  0
VERTEX
  5
eb
  8
Layer_2
  10
412.33276
  20
712.64734
  0
VERTEX
  5
ec
  8
Layer_2
  10
412.2287
  20
712.15491
  0
VERTEX
  5
ed
  8
Layer_2
  10
412.09662
  20
711.67108
  0
VERTEX
  5
ee
  8
Layer_2
  10
411.93707
  20
711.19653
  0
VERTEX
  5
ef
  8
Layer_2
  10
411.75098
  20
710.73193
  0
VERTEX
  5
f0
  8
Layer_2
  10
411.53906
  20
710.27777
  0
VERTEX
  5
f1
  8
Layer_2
  10
411.30212
  20
709.83484
  0
VERTEX
  5
f2
  8
Layer_2
  10
411.04071
  20
709.40369
  0
VERTEX
  5
f3
  8
Layer_2
  10
410.7558
  20
708.98486
  0
VERTEX
  5
f4
  8
Layer_2
  10
410.44794
  20
708.5791
  0
VERTEX
  5
f5
  8
Layer_2
  10
410.11798
  20
708.18707
  0
VERTEX
  5
f6
  8
Layer_2
  10
409.7666
  20
707.80933
  0
VERTEX
  5
f7
  8
Layer_2
  10
409.39465
  20
707.44647
  0
VERTEX
  5
f8
  8
Layer_2
  10
409.00281
  20
707.09918
  0
VERTEX
  5
f9
  8
Layer_2
  10
408.16241
  20
706.45374
  0
VERTEX
  5
fa
  8
Layer_2
  10
407.25134
  20
705.87805
  0
VERTEX
  5
fb
  8
Layer_2
  10
406.27557
  20
705.3772
  0
VERTEX
  5
fc
  8
Layer_2
  10
405.24103
  20
704.95605
  0
VERTEX
  5
fd
  8
Layer_2
  10
404.70361
  20
704.77698
  0
VERTEX
  5
fe
  8
Layer_2
  10
404.15369
  20
704.61981
  0
VERTEX
  5
ff
  8
Layer_2
  10
403.59204
  20
704.48505
  0
VERTEX
  5
100
  8
Layer_2
  10
403.01953
  20
704.37341
  0
VERTEX
  5
101
  8
Layer_2
  10
402.43665
  20
704.2854
  0
VERTEX
  5
102
  8
Layer_2
  10
401.84436
  20
704.22186
  0
VERTEX
  5
103
  8
Layer_2
  10
401.24341
  20
704.18323
  0
VERTEX
  5
104
  8
Layer_2
  10
400.6344
  20
704.17023
  0
SEQEND
  0
POLYLINE
  5
106
  8
Layer_0
  62
5
  66
1
  10
0
  20
0
  30
0
  0
VERTEX
  5
106
  8
Layer_0
  10
212.53638
  20
683.50604
  0
VERTEX
  5
107
  8
Layer_0
  10
212.46387
  20
683.62628
  0
VERTEX
  5
108
  8
Layer_0
  10
212.4198
  20
683.75635
  0
VERTEX
  5
109
  8
Layer_0
  10
212.40515
  20
683.89197
  0
VERTEX
  5
10a
  8
Layer_0
  10
212.4209
  20
684.02899
  0
VERTEX
  5
10b
  8
Layer_0
  10
212.48535
  20
684.13782
  0
VERTEX
  5
10c
  8
Layer_0
  10
212.54822
  20
684.23059
  0
VERTEX
  5
10d
  8
Layer_0
  10
212.59631
  20
684.32703
  0
VERTEX
  5
10e
  8
Layer_0
  10
212.61633
  20
684.44702
  0
VERTEX
  5
10f
  8
Layer_0
  10
212.60034
  20
684.55792
  0
VERTEX
  5
110
  8
Layer_0
  10
212.55872
  20
684.63855
  0
VERTEX
  5
111
  8
Layer_0
  10
212.50635
  20
684.69678
  0
VERTEX
  5
112
  8
Layer_0
  10
212.45789
  20
684.74048
  0
VERTEX
  5
113
  8
Layer_0
  10
214.91052
  20
684.74048
  0
SEQEND
  0
POLYLINE
  5
115
  8
Layer_0
  62
5
  70
1
  66
1
  10
0
  20
0
  30
0
  0
VERTEX
  5
115
  8
Layer_0
  10
212.41626
  20
682.48242
  0
VERTEX
  5
116
  8
Layer_0
  10
212.45825
  20
682.64514
  0
VERTEX
  5
117
  8
Layer_0
  10
212.5271
  20
682.79602
  0
VERTEX
  5
118
  8
Layer_0
  10
212.62036
  20
682.93298
  0
VERTEX
  5
119
  8
Layer_0
  10
212.73547
  20
683.05353
  0
VERTEX
  5
11a
  8
Layer_0
  10
212.86975
  20
683.15546
  0
VERTEX
  5
11b
  8
Layer_0
  10
213.021
  20
683.23651
  0
VERTEX
  5
11c
  8
Layer_0
  10
213.18628
  20
683.29437
  0
VERTEX
  5
11d
  8
Layer_0
  10
213.36316
  20
683.32678
  0
VERTEX
  5
11e
  8
Layer_0
  10
213.6427
  20
683.35474
  0
VERTEX
  5
11f
  8
Layer_0
  10
213.92139
  20
683.33923
  0
VERTEX
  5
120
  8
Layer_0
  10
214.1936
  20
683.28107
  0
VERTEX
  5
121
  8
Layer_0
  10
214.45325
  20
683.18103
  0
VERTEX
  5
122
  8
Layer_0
  10
214.62781
  20
683.04675
  0
VERTEX
  5
123
  8
Layer_0
  10
214.76782
  20
682.88873
  0
VERTEX
  5
124
  8
Layer_0
  10
214.87219
  20
682.71216
  0
VERTEX
  5
125
  8
Layer_0
  10
214.93945
  20
682.52222
  0
VERTEX
  5
126
  8
Layer_0
  10
214.96851
  20
682.3241
  0
VERTEX
  5
127
  8
Layer_0
  10
214.95813
  20
682.12292
  0
VERTEX
  5
128
  8
Layer_0
  10
214.90686
  20
681.92395
  0
VERTEX
  5
129
  8
Layer_0
  10
214.81348
  20
681.7323
  0
VERTEX
  5
12a
  8
Layer_0
  10
214.63989
  20
681.51996
  0
VERTEX
  5
12b
  8
Layer_0
  10
214.4165
  20
681.3595
  0
VERTEX
  5
12c
  8
Layer_0
  10
214.15601
  20
681.25793
  0
VERTEX
  5
12d
  8
Layer_0
  10
213.87122
  20
681.22229
  0
VERTEX
  5
12e
  8
Layer_0
  10
213.62451
  20
681.21063
  0
VERTEX
  5
12f
  8
Layer_0
  10
213.38013
  20
681.23364
  0
VERTEX
  5
130
  8
Layer_0
  10
213.14221
  20
681.29065
  0
VERTEX
  5
131
  8
Layer_0
  10
212.91516
  20
681.38086
  0
VERTEX
  5
132
  8
Layer_0
  10
212.65771
  20
681.59302
  0
VERTEX
  5
133
  8
Layer_0
  10
212.48291
  20
681.86035
  0
VERTEX
  5
134
  8
Layer_0
  10
212.4292
  20
682.00867
  0
VERTEX
  5
135
  8
Layer_0
  10
212.39954
  20
682.16339
  0
VERTEX
  5
136
  8
Layer_0
  10
212.39478
  20
682.32214
  0
VERTEX
  5
137
  8
Layer_0
  10
212.41626
  20
682.48242
  0
SEQEND
  0
POLYLINE
  5
139
  8
Layer_0
  62
5
  66
1
  10
0
  20
0
  30
0
  0
VERTEX
  5
139
  8
Layer_0
  10
215.84814
  20
690.07983
  0
VERTEX
  5
13a
  8
Layer_0
  10
214.65649
  20
690.07983
  0
VERTEX
  5
13b
  8
Layer_0
  10
214.77356
  20
689.96722
  0
VERTEX
  5
13c
  8
Layer_0
  10
214.8634
  20
689.83972
  0
VERTEX
  5
13d
  8
Layer_0
  10
214.92578
  20
689.70117
  0
VERTEX
  5
13e
  8
Layer_0
  10
214.95972
  20
689.55554
  0
VERTEX
  5
13f
  8
Layer_0
  10
214.96509
  20
689.40656
  0
VERTEX
  5
140
  8
Layer_0
  10
214.94141
  20
689.25812
  0
VERTEX
  5
141
  8
Layer_0
  10
214.88806
  20
689.11407
  0
VERTEX
  5
142
  8
Layer_0
  10
214.80432
  20
688.97827
  0
VERTEX
  5
143
  8
Layer_0
  10
214.57788
  20
688.75568
  0
VERTEX
  5
144
  8
Layer_0
  10
214.30249
  20
688.59595
  0
VERTEX
  5
145
  8
Layer_0
  10
213.9928
  20
688.50513
  0
VERTEX
  5
146
  8
Layer_0
  10
213.66333
  20
688.48962
  0
VERTEX
  5
147
  8
Layer_0
  10
213.34961
  20
688.50391
  0
VERTEX
  5
148
  8
Layer_0
  10
213.05322
  20
688.58716
  0
VERTEX
  5
149
  8
Layer_0
  10
212.78711
  20
688.73419
  0
VERTEX
  5
14a
  8
Layer_0
  10
212.56409
  20
688.9397
  0
VERTEX
  5
14b
  8
Layer_0
  10
212.47083
  20
689.10718
  0
VERTEX
  5
14c
  8
Layer_0
  10
212.41589
  20
689.28668
  0
VERTEX
  5
14d
  8
Layer_0
  10
212.40039
  20
689.47272
  0
VERTEX
  5
14e
  8
Layer_0
  10
212.42554
  20
689.65979
  0
VERTEX
  5
14f
  8
Layer_0
  10
212.47754
  20
689.79492
  0
VERTEX
  5
150
  8
Layer_0
  10
212.55493
  20
689.91766
  0
VERTEX
  5
151
  8
Layer_0
  10
212.65527
  20
690.02509
  0
VERTEX
  5
152
  8
Layer_0
  10
212.77649
  20
690.11414
  0
VERTEX
  5
153
  8
Layer_0
  10
212.45789
  20
690.11414
  0
SEQEND
  0
POLYLINE
  5
155
  8
Layer_0
  62
5
  66
1
  10
0
  20
0
  30
0
  0
VERTEX
  5
155
  8
Layer_0
  10
212.45789
  20
680.75397
  0
VERTEX
  5
156
  8
Layer_0
  10
214.91052
  20
679.88812
  0
VERTEX
  5
157
  8
Layer_0
  10
212.00427
  20
678.98218
  0
SEQEND
  0
POLYLINE
  5
159
  8
Layer_0
  62
5
  66
1
  10
0
  20
0
  30
0
  0
VERTEX
  5
159
  8
Layer_0
  10
213.72192
  20
687.84485
  0
VERTEX
  5
15a
  8
Layer_0
  10
213.72192
  20
686.8999
  0
SEQEND
  0
POLYLINE
  5
15c
  8
Layer_0
  62
5
  66
1
  10
0
  20
0
  30
0
  0
VERTEX
  5
15c
  8
Layer_0
  10
212.4209
  20
687.00562
  0
VERTEX
  5
15d
  8
Layer_0
  10
212.47168
  20
687.1676
  0
VERTEX
  5
15e
  8
Layer_0
  10
212.54871
  20
687.31677
  0
VERTEX
  5
15f
  8
Layer_0
  10
212.64917
  20
687.45105
  0
VERTEX
  5
160
  8
Layer_0
  10
212.77063
  20
687.56824
  0
VERTEX
  5
161
  8
Layer_0
  10
212.9104
  20
687.66632
  0
VERTEX
  5
162
  8
Layer_0
  10
213.06592
  20
687.7431
  0
VERTEX
  5
163
  8
Layer_0
  10
213.23462
  20
687.79645
  0
VERTEX
  5
164
  8
Layer_0
  10
213.41394
  20
687.82428
  0
VERTEX
  5
165
  8
Layer_0
  10
213.68066
  20
687.84717
  0
VERTEX
  5
166
  8
Layer_0
  10
213.94641
  20
687.83008
  0
VERTEX
  5
167
  8
Layer_0
  10
214.20557
  20
687.77356
  0
VERTEX
  5
168
  8
Layer_0
  10
214.45325
  20
687.67853
  0
VERTEX
  5
169
  8
Layer_0
  10
214.67908
  20
687.50305
  0
VERTEX
  5
16a
  8
Layer_0
  10
214.84448
  20
687.28241
  0
VERTEX
  5
16b
  8
Layer_0
  10
214.9425
  20
687.02948
  0
VERTEX
  5
16c
  8
Layer_0
  10
214.96594
  20
686.75702
  0
SEQEND
  0
POLYLINE
  5
16e
  8
Layer_0
  62
5
  66
1
  10
0
  20
0
  30
0
  0
VERTEX
  5
16e
  8
Layer_0
  10
211.84851
  20
686.08368
  0
VERTEX
  5
16f
  8
Layer_0
  10
214.36108
  20
686.08368
  0
VERTEX
  5
170
  8
Layer_0
  10
214.5498
  20
686.08093
  0
VERTEX
  5
171
  8
Layer_0
  10
214.71802
  20
686.01508
  0
VERTEX
  5
172
  8
Layer_0
  10
214.84888
  20
685.89673
  0
VERTEX
  5
173
  8
Layer_0
  10
214.9248
  20
685.73645
  0
VERTEX
  5
174
  8
Layer_0
  10
214.9408
  20
685.49561
  0
VERTEX
  5
175
  8
Layer_0
  10
214.90625
  20
685.25641
  0
SEQEND
  0
POLYLINE
  5
177
  8
Layer_0
  62
5
  66
1
  10
0
  20
0
  30
0
  0
VERTEX
  5
177
  8
Layer_0
  10
212.45789
  20
685.31049
  0
VERTEX
  5
178
  8
Layer_0
  10
212.4552
  20
686.34949
  0
SEQEND
  0
POLYLINE
  5
17a
  8
Layer_2
  62
0
  70
1
  66
1
  10
0
  20
0
  30
0
  0
VERTEX
  5
17a
  8
Layer_2
  10
450.46313
  20
598.1781
  0
VERTEX
  5
17b
  8
Layer_2
  10
450.47943
  20
598.06909
  0
VERTEX
  5
17c
  8
Layer_2
  10
450.53015
  20
597.94373
  0
VERTEX
  5
17d
  8
Layer_2
  10
450.61035
  20
597.8045
  0
VERTEX
  5
17e
  8
Layer_2
  10
450.71521
  20
597.65375
  0
VERTEX
  5
17f
  8
Layer_2
  10
450.97931
  20
597.32739
  0
VERTEX
  5
180
  8
Layer_2
  10
451.2832
  20
596.98389
  0
VERTEX
  5
181
  8
Layer_2
  10
451.58777
  20
596.64246
  0
VERTEX
  5
182
  8
Layer_2
  10
451.85376
  20
596.32251
  0
VERTEX
  5
183
  8
Layer_2
  10
451.96008
  20
596.17657
  0
VERTEX
  5
184
  8
Layer_2
  10
452.04205
  20
596.04321
  0
VERTEX
  5
185
  8
Layer_2
  10
452.09485
  20
595.9248
  0
VERTEX
  5
186
  8
Layer_2
  10
452.11353
  20
595.82373
  0
VERTEX
  5
187
  8
Layer_2
  10
452.09302
  20
595.71729
  0
VERTEX
  5
188
  8
Layer_2
  10
452.03516
  20
595.5918
  0
VERTEX
  5
189
  8
Layer_2
  10
451.9458
  20
595.45007
  0
VERTEX
  5
18a
  8
Layer_2
  10
451.83038
  20
595.29492
  0
VERTEX
  5
18b
  8
Layer_2
  10
451.54431
  20
594.95538
  0
VERTEX
  5
18c
  8
Layer_2
  10
451.22229
  20
594.59546
  0
VERTEX
  5
18d
  8
Layer_2
  10
450.90942
  20
594.23737
  0
VERTEX
  5
18e
  8
Layer_2
  10
450.65088
  20
593.90332
  0
VERTEX
  5
18f
  8
Layer_2
  10
450.55615
  20
593.75226
  0
VERTEX
  5
190
  8
Layer_2
  10
450.492
  20
593.6156
  0
VERTEX
  5
191
  8
Layer_2
  10
450.46405
  20
593.49603
  0
VERTEX
  5
192
  8
Layer_2
  10
450.47803
  20
593.39642
  0
VERTEX
  5
193
  8
Layer_2
  10
450.5387
  20
593.31616
  0
VERTEX
  5
194
  8
Layer_2
  10
450.64294
  20
593.25134
  0
VERTEX
  5
195
  8
Layer_2
  10
450.78491
  20
593.20007
  0
VERTEX
  5
196
  8
Layer_2
  10
450.95874
  20
593.16028
  0
VERTEX
  5
197
  8
Layer_2
  10
451.37769
  20
593.10693
  0
VERTEX
  5
198
  8
Layer_2
  10
451.85217
  20
593.07501
  0
VERTEX
  5
199
  8
Layer_2
  10
452.33447
  20
593.04834
  0
VERTEX
  5
19a
  8
Layer_2
  10
452.77679
  20
593.01056
  0
VERTEX
  5
19b
  8
Layer_2
  10
452.96814
  20
592.98248
  0
VERTEX
  5
19c
  8
Layer_2
  10
453.13153
  20
592.9455
  0
VERTEX
  5
19d
  8
Layer_2
  10
453.26111
  20
592.89764
  0
VERTEX
  5
19e
  8
Layer_2
  10
453.35095
  20
592.83691
  0
VERTEX
  5
19f
  8
Layer_2
  10
453.4118
  20
592.74707
  0
VERTEX
  5
1a0
  8
Layer_2
  10
453.45966
  20
592.61755
  0
VERTEX
  5
1a1
  8
Layer_2
  10
453.4967
  20
592.4541
  0
VERTEX
  5
1a2
  8
Layer_2
  10
453.52478
  20
592.26282
  0
VERTEX
  5
1a3
  8
Layer_2
  10
453.56256
  20
591.82043
  0
VERTEX
  5
1a4
  8
Layer_2
  10
453.58936
  20
591.3382
  0
VERTEX
  5
1a5
  8
Layer_2
  10
453.62128
  20
590.86371
  0
VERTEX
  5
1a6
  8
Layer_2
  10
453.67468
  20
590.4447
  0
VERTEX
  5
1a7
  8
Layer_2
  10
453.71454
  20
590.271
  0
VERTEX
  5
1a8
  8
Layer_2
  10
453.76587
  20
590.12897
  0
VERTEX
  5
1a9
  8
Layer_2
  10
453.83057
  20
590.02466
  0
VERTEX
  5
1aa
  8
Layer_2
  10
453.91089
  20
589.96411
  0
VERTEX
  5
1ab
  8
Layer_2
  10
454.0105
  20
589.9502
  0
VERTEX
  5
1ac
  8
Layer_2
  10
454.13
  20
589.97815
  0
VERTEX
  5
1ad
  8
Layer_2
  10
454.26672
  20
590.0423
  0
VERTEX
  5
1ae
  8
Layer_2
  10
454.41772
  20
590.13702
  0
VERTEX
  5
1af
  8
Layer_2
  10
454.75171
  20
590.39557
  0
VERTEX
  5
1b0
  8
Layer_2
  10
455.10986
  20
590.7085
  0
VERTEX
  5
1b1
  8
Layer_2
  10
455.46985
  20
591.03064
  0
VERTEX
  5
1b2
  8
Layer_2
  10
455.80933
  20
591.31671
  0
VERTEX
  5
1b3
  8
Layer_2
  10
455.96442
  20
591.43213
  0
VERTEX
  5
1b4
  8
Layer_2
  10
456.10614
  20
591.52155
  0
VERTEX
  5
1b5
  8
Layer_2
  10
456.23157
  20
591.57935
  0
VERTEX
  5
1b6
  8
Layer_2
  10
456.33807
  20
591.59985
  0
VERTEX
  5
1b7
  8
Layer_2
  10
456.44458
  20
591.57941
  0
VERTEX
  5
1b8
  8
Layer_2
  10
456.57007
  20
591.52161
  0
VERTEX
  5
1b9
  8
Layer_2
  10
456.71179
  20
591.43219
  0
VERTEX
  5
1ba
  8
Layer_2
  10
456.86694
  20
591.31677
  0
VERTEX
  5
1bb
  8
Layer_2
  10
457.20642
  20
591.0307
  0
VERTEX
  5
1bc
  8
Layer_2
  10
457.56641
  20
590.70862
  0
VERTEX
  5
1bd
  8
Layer_2
  10
457.92456
  20
590.39575
  0
VERTEX
  5
1be
  8
Layer_2
  10
458.25854
  20
590.13721
  0
VERTEX
  5
1bf
  8
Layer_2
  10
458.40955
  20
590.04248
  0
VERTEX
  5
1c0
  8
Layer_2
  10
458.54626
  20
589.97833
  0
VERTEX
  5
1c1
  8
Layer_2
  10
458.66583
  20
589.95044
  0
VERTEX
  5
1c2
  8
Layer_2
  10
458.76544
  20
589.96436
  0
VERTEX
  5
1c3
  8
Layer_2
  10
458.8457
  20
590.0249
  0
VERTEX
  5
1c4
  8
Layer_2
  10
458.91052
  20
590.12921
  0
VERTEX
  5
1c5
  8
Layer_2
  10
458.96179
  20
590.27124
  0
VERTEX
  5
1c6
  8
Layer_2
  10
459.00159
  20
590.44501
  0
VERTEX
  5
1c7
  8
Layer_2
  10
459.05493
  20
590.86401
  0
VERTEX
  5
1c8
  8
Layer_2
  10
459.08685
  20
591.3385
  0
VERTEX
  5
1c9
  8
Layer_2
  10
459.11359
  20
591.8208
  0
VERTEX
  5
1ca
  8
Layer_2
  10
459.15137
  20
592.26318
  0
VERTEX
  5
1cb
  8
Layer_2
  10
459.17944
  20
592.45447
  0
VERTEX
  5
1cc
  8
Layer_2
  10
459.21643
  20
592.61792
  0
VERTEX
  5
1cd
  8
Layer_2
  10
459.26428
  20
592.74756
  0
VERTEX
  5
1ce
  8
Layer_2
  10
459.32501
  20
592.83728
  0
VERTEX
  5
1cf
  8
Layer_2
  10
459.41479
  20
592.89807
  0
VERTEX
  5
1d0
  8
Layer_2
  10
459.54437
  20
592.94592
  0
VERTEX
  5
1d1
  8
Layer_2
  10
459.70776
  20
592.98291
  0
VERTEX
  5
1d2
  8
Layer_2
  10
459.89911
  20
593.01111
  0
VERTEX
  5
1d3
  8
Layer_2
  10
460.34143
  20
593.04889
  0
VERTEX
  5
1d4
  8
Layer_2
  10
460.82379
  20
593.07562
  0
VERTEX
  5
1d5
  8
Layer_2
  10
461.29834
  20
593.10754
  0
VERTEX
  5
1d6
  8
Layer_2
  10
461.71729
  20
593.16101
  0
VERTEX
  5
1d7
  8
Layer_2
  10
461.89111
  20
593.20081
  0
VERTEX
  5
1d8
  8
Layer_2
  10
462.03308
  20
593.25208
  0
VERTEX
  5
1d9
  8
Layer_2
  10
462.13733
  20
593.31689
  0
VERTEX
  5
1da
  8
Layer_2
  10
462.19794
  20
593.39716
  0
VERTEX
  5
1db
  8
Layer_2
  10
462.21185
  20
593.49677
  0
VERTEX
  5
1dc
  8
Layer_2
  10
462.1839
  20
593.61633
  0
VERTEX
  5
1dd
  8
Layer_2
  10
462.11975
  20
593.75299
  0
VERTEX
  5
1de
  8
Layer_2
  10
462.02502
  20
593.90399
  0
VERTEX
  5
1df
  8
Layer_2
  10
461.76648
  20
594.23804
  0
VERTEX
  5
1e0
  8
Layer_2
  10
461.45349
  20
594.59607
  0
VERTEX
  5
1e1
  8
Layer_2
  10
461.13135
  20
594.95599
  0
VERTEX
  5
1e2
  8
Layer_2
  10
460.84534
  20
595.29547
  0
VERTEX
  5
1e3
  8
Layer_2
  10
460.72992
  20
595.45062
  0
VERTEX
  5
1e4
  8
Layer_2
  10
460.6405
  20
595.59235
  0
VERTEX
  5
1e5
  8
Layer_2
  10
460.58264
  20
595.71777
  0
VERTEX
  5
1e6
  8
Layer_2
  10
460.56213
  20
595.82422
  0
VERTEX
  5
1e7
  8
Layer_2
  10
460.58264
  20
595.93073
  0
VERTEX
  5
1e8
  8
Layer_2
  10
460.6405
  20
596.05621
  0
VERTEX
  5
1e9
  8
Layer_2
  10
460.72986
  20
596.19794
  0
VERTEX
  5
1ea
  8
Layer_2
  10
460.84528
  20
596.35309
  0
VERTEX
  5
1eb
  8
Layer_2
  10
461.13135
  20
596.69263
  0
VERTEX
  5
1ec
  8
Layer_2
  10
461.45337
  20
597.05255
  0
VERTEX
  5
1ed
  8
Layer_2
  10
461.76624
  20
597.41064
  0
VERTEX
  5
1ee
  8
Layer_2
  10
462.02478
  20
597.74469
  0
VERTEX
  5
1ef
  8
Layer_2
  10
462.11951
  20
597.89575
  0
VERTEX
  5
1f0
  8
Layer_2
  10
462.18365
  20
598.03241
  0
VERTEX
  5
1f1
  8
Layer_2
  10
462.21161
  20
598.15192
  0
VERTEX
  5
1f2
  8
Layer_2
  10
462.19763
  20
598.25159
  0
VERTEX
  5
1f3
  8
Layer_2
  10
462.13696
  20
598.33185
  0
VERTEX
  5
1f4
  8
Layer_2
  10
462.03271
  20
598.39661
  0
VERTEX
  5
1f5
  8
Layer_2
  10
461.89075
  20
598.44788
  0
VERTEX
  5
1f6
  8
Layer_2
  10
461.71692
  20
598.48767
  0
VERTEX
  5
1f7
  8
Layer_2
  10
461.29797
  20
598.54102
  0
VERTEX
  5
1f8
  8
Layer_2
  10
460.82349
  20
598.573
  0
VERTEX
  5
1f9
  8
Layer_2
  10
460.34119
  20
598.59967
  0
VERTEX
  5
1fa
  8
Layer_2
  10
459.89886
  20
598.63739
  0
VERTEX
  5
1fb
  8
Layer_2
  10
459.70752
  20
598.66547
  0
VERTEX
  5
1fc
  8
Layer_2
  10
459.54413
  20
598.70245
  0
VERTEX
  5
1fd
  8
Layer_2
  10
459.41455
  20
598.75031
  0
VERTEX
  5
1fe
  8
Layer_2
  10
459.32471
  20
598.8111
  0
VERTEX
  5
1ff
  8
Layer_2
  10
459.26392
  20
598.90088
  0
VERTEX
  5
200
  8
Layer_2
  10
459.21606
  20
599.03052
  0
VERTEX
  5
201
  8
Layer_2
  10
459.17908
  20
599.19391
  0
VERTEX
  5
202
  8
Layer_2
  10
459.151
  20
599.38519
  0
VERTEX
  5
203
  8
Layer_2
  10
459.11316
  20
599.82758
  0
VERTEX
  5
204
  8
Layer_2
  10
459.08643
  20
600.30988
  0
VERTEX
  5
205
  8
Layer_2
  10
459.05444
  20
600.78436
  0
VERTEX
  5
206
  8
Layer_2
  10
459.00098
  20
601.20337
  0
VERTEX
  5
207
  8
Layer_2
  10
458.96112
  20
601.37708
  0
VERTEX
  5
208
  8
Layer_2
  10
458.90979
  20
601.5191
  0
VERTEX
  5
209
  8
Layer_2
  10
458.84509
  20
601.62341
  0
VERTEX
  5
20a
  8
Layer_2
  10
458.76477
  20
601.68396
  0
VERTEX
  5
20b
  8
Layer_2
  10
458.66516
  20
601.69788
  0
VERTEX
  5
20c
  8
Layer_2
  10
458.54565
  20
601.66992
  0
VERTEX
  5
20d
  8
Layer_2
  10
458.40894
  20
601.60577
  0
VERTEX
  5
20e
  8
Layer_2
  10
458.25793
  20
601.51105
  0
VERTEX
  5
20f
  8
Layer_2
  10
457.92395
  20
601.25256
  0
VERTEX
  5
210
  8
Layer_2
  10
457.5658
  20
600.93958
  0
VERTEX
  5
211
  8
Layer_2
  10
457.20593
  20
600.61743
  0
VERTEX
  5
212
  8
Layer_2
  10
456.86646
  20
600.33136
  0
VERTEX
  5
213
  8
Layer_2
  10
456.7113
  20
600.216
  0
VERTEX
  5
214
  8
Layer_2
  10
456.56958
  20
600.12659
  0
VERTEX
  5
215
  8
Layer_2
  10
456.44409
  20
600.06873
  0
VERTEX
  5
216
  8
Layer_2
  10
456.33759
  20
600.04822
  0
VERTEX
  5
217
  8
Layer_2
  10
456.23108
  20
600.06866
  0
VERTEX
  5
218
  8
Layer_2
  10
456.10559
  20
600.12646
  0
VERTEX
  5
219
  8
Layer_2
  10
455.96387
  20
600.21588
  0
VERTEX
  5
21a
  8
Layer_2
  10
455.80872
  20
600.3313
  0
VERTEX
  5
21b
  8
Layer_2
  10
455.46924
  20
600.61731
  0
VERTEX
  5
21c
  8
Layer_2
  10
455.10925
  20
600.93945
  0
VERTEX
  5
21d
  8
Layer_2
  10
454.7511
  20
601.25232
  0
VERTEX
  5
21e
  8
Layer_2
  10
454.41711
  20
601.5108
  0
VERTEX
  5
21f
  8
Layer_2
  10
454.26611
  20
601.60547
  0
VERTEX
  5
220
  8
Layer_2
  10
454.12939
  20
601.66962
  0
VERTEX
  5
221
  8
Layer_2
  10
454.00983
  20
601.69757
  0
VERTEX
  5
222
  8
Layer_2
  10
453.91022
  20
601.68359
  0
VERTEX
  5
223
  8
Layer_2
  10
453.82996
  20
601.62305
  0
VERTEX
  5
224
  8
Layer_2
  10
453.76514
  20
601.51874
  0
VERTEX
  5
225
  8
Layer_2
  10
453.71387
  20
601.37671
  0
VERTEX
  5
226
  8
Layer_2
  10
453.67407
  20
601.203
  0
VERTEX
  5
227
  8
Layer_2
  10
453.62073
  20
600.784
  0
VERTEX
  5
228
  8
Layer_2
  10
453.58881
  20
600.30951
  0
VERTEX
  5
229
  8
Layer_2
  10
453.56207
  20
599.82727
  0
VERTEX
  5
22a
  8
Layer_2
  10
453.52429
  20
599.38489
  0
VERTEX
  5
22b
  8
Layer_2
  10
453.49622
  20
599.1936
  0
VERTEX
  5
22c
  8
Layer_2
  10
453.45929
  20
599.03015
  0
VERTEX
  5
22d
  8
Layer_2
  10
453.4115
  20
598.90051
  0
VERTEX
  5
22e
  8
Layer_2
  10
453.35071
  20
598.81079
  0
VERTEX
  5
22f
  8
Layer_2
  10
453.26086
  20
598.75
  0
VERTEX
  5
230
  8
Layer_2
  10
453.13129
  20
598.70215
  0
VERTEX
  5
231
  8
Layer_2
  10
452.9679
  20
598.66516
  0
VERTEX
  5
232
  8
Layer_2
  10
452.77655
  20
598.63696
  0
VERTEX
  5
233
  8
Layer_2
  10
452.33423
  20
598.59918
  0
VERTEX
  5
234
  8
Layer_2
  10
451.85193
  20
598.57239
  0
VERTEX
  5
235
  8
Layer_2
  10
451.37744
  20
598.54041
  0
VERTEX
  5
236
  8
Layer_2
  10
450.95844
  20
598.487
  0
VERTEX
  5
237
  8
Layer_2
  10
450.78461
  20
598.44714
  0
VERTEX
  5
238
  8
Layer_2
  10
450.64258
  20
598.39587
  0
VERTEX
  5
239
  8
Layer_2
  10
450.53833
  20
598.33105
  0
VERTEX
  5
23a
  8
Layer_2
  10
450.47772
  20
598.25079
  0
VERTEX
  5
23b
  8
Layer_2
  10
450.46735
  20
598.21594
  0
VERTEX
  5
23c
  8
Layer_2
  10
450.46313
  20
598.1781
  0
SEQEND
  0
POLYLINE
  5
23e
  8
Layer_2
  62
0
  70
1
  66
1
  10
0
  20
0
  30
0
  0
VERTEX
  5
23e
  8
Layer_2
  10
443.82996
  20
653.50812
  0
VERTEX
  5
23f
  8
Layer_2
  10
443.78857
  20
653.74524
  0
VERTEX
  5
240
  8
Layer_2
  10
443.7124
  20
653.97211
  0
VERTEX
  5
241
  8
Layer_2
  10
443.60303
  20
654.185
  0
VERTEX
  5
242
  8
Layer_2
  10
443.46204
  20
654.38013
  0
VERTEX
  5
243
  8
Layer_2
  10
443.31348
  20
654.56653
  0
VERTEX
  5
244
  8
Layer_2
  10
443.14197
  20
654.73212
  0
VERTEX
  5
245
  8
Layer_2
  10
442.47473
  20
655.30267
  0
VERTEX
  5
246
  8
Layer_2
  10
441.79004
  20
655.85211
  0
VERTEX
  5
247
  8
Layer_2
  10
441.50574
  20
656.12244
  0
VERTEX
  5
248
  8
Layer_2
  10
441.26196
  20
656.42737
  0
VERTEX
  5
249
  8
Layer_2
  10
441.06226
  20
656.76276
  0
VERTEX
  5
24a
  8
Layer_2
  10
440.91003
  20
657.12415
  0
VERTEX
  5
24b
  8
Layer_2
  10
440.85376
  20
657.52637
  0
VERTEX
  5
24c
  8
Layer_2
  10
440.83801
  20
657.93213
  0
VERTEX
  5
24d
  8
Layer_2
  10
440.83801
  20
690.5401
  0
VERTEX
  5
24e
  8
Layer_2
  10
440.86511
  20
691.05072
  0
VERTEX
  5
24f
  8
Layer_2
  10
440.94202
  20
691.54651
  0
VERTEX
  5
250
  8
Layer_2
  10
441.06604
  20
692.02515
  0
VERTEX
  5
251
  8
Layer_2
  10
441.23474
  20
692.48389
  0
VERTEX
  5
252
  8
Layer_2
  10
441.44568
  20
692.92047
  0
VERTEX
  5
253
  8
Layer_2
  10
441.69623
  20
693.33228
  0
VERTEX
  5
254
  8
Layer_2
  10
441.98407
  20
693.7168
  0
VERTEX
  5
255
  8
Layer_2
  10
442.30664
  20
694.07159
  0
VERTEX
  5
256
  8
Layer_2
  10
442.66144
  20
694.39417
  0
VERTEX
  5
257
  8
Layer_2
  10
443.0459
  20
694.68201
  0
VERTEX
  5
258
  8
Layer_2
  10
443.45764
  20
694.93262
  0
VERTEX
  5
259
  8
Layer_2
  10
443.89417
  20
695.14355
  0
VERTEX
  5
25a
  8
Layer_2
  10
444.35297
  20
695.31226
  0
VERTEX
  5
25b
  8
Layer_2
  10
444.83154
  20
695.43622
  0
VERTEX
  5
25c
  8
Layer_2
  10
445.32739
  20
695.513
  0
VERTEX
  5
25d
  8
Layer_2
  10
445.83801
  20
695.5401
  0
VERTEX
  5
25e
  8
Layer_2
  10
466.83801
  20
695.5401
  0
VERTEX
  5
25f
  8
Layer_2
  10
467.45593
  20
695.50354
  0
VERTEX
  5
260
  8
Layer_2
  10
468.05774
  20
695.39203
  0
VERTEX
  5
261
  8
Layer_2
  10
468.63708
  20
695.20886
  0
VERTEX
  5
262
  8
Layer_2
  10
469.18787
  20
694.95734
  0
VERTEX
  5
263
  8
Layer_2
  10
469.70398
  20
694.64063
  0
VERTEX
  5
264
  8
Layer_2
  10
470.17908
  20
694.26202
  0
VERTEX
  5
265
  8
Layer_2
  10
470.60718
  20
693.82477
  0
VERTEX
  5
266
  8
Layer_2
  10
470.98206
  20
693.33215
  0
VERTEX
  5
267
  8
Layer_2
  10
471.32568
  20
692.74915
  0
VERTEX
  5
268
  8
Layer_2
  10
471.58472
  20
692.12744
  0
VERTEX
  5
269
  8
Layer_2
  10
471.75647
  20
691.47595
  0
VERTEX
  5
26a
  8
Layer_2
  10
471.83801
  20
690.80408
  0
VERTEX
  5
26b
  8
Layer_2
  10
471.83801
  20
657.73212
  0
VERTEX
  5
26c
  8
Layer_2
  10
471.81628
  20
657.4577
  0
VERTEX
  5
26d
  8
Layer_2
  10
471.76447
  20
657.18994
  0
VERTEX
  5
26e
  8
Layer_2
  10
471.68384
  20
656.93109
  0
VERTEX
  5
26f
  8
Layer_2
  10
471.57556
  20
656.68353
  0
VERTEX
  5
270
  8
Layer_2
  10
471.44043
  20
656.44958
  0
VERTEX
  5
271
  8
Layer_2
  10
471.27979
  20
656.23145
  0
VERTEX
  5
272
  8
Layer_2
  10
471.0946
  20
656.03149
  0
VERTEX
  5
273
  8
Layer_2
  10
470.88599
  20
655.85211
  0
VERTEX
  5
274
  8
Layer_2
  10
470.20776
  20
655.29486
  0
VERTEX
  5
275
  8
Layer_2
  10
469.53406
  20
654.73212
  0
VERTEX
  5
276
  8
Layer_2
  10
469.25116
  20
654.44849
  0
VERTEX
  5
277
  8
Layer_2
  10
469.0368
  20
654.11523
  0
VERTEX
  5
278
  8
Layer_2
  10
468.89709
  20
653.74438
  0
VERTEX
  5
279
  8
Layer_2
  10
468.83801
  20
653.34814
  0
VERTEX
  5
27a
  8
Layer_2
  10
468.854
  20
651.38403
  0
VERTEX
  5
27b
  8
Layer_2
  10
468.82996
  20
649.4201
  0
VERTEX
  5
27c
  8
Layer_2
  10
468.82996
  20
632.27612
  0
VERTEX
  5
27d
  8
Layer_2
  10
468.83801
  20
628.44409
  0
VERTEX
  5
27e
  8
Layer_2
  10
468.83801
  20
593.16412
  0
VERTEX
  5
27f
  8
Layer_2
  10
468.75012
  20
592.17078
  0
VERTEX
  5
280
  8
Layer_2
  10
468.56842
  20
591.20837
  0
VERTEX
  5
281
  8
Layer_2
  10
468.29773
  20
590.28149
  0
VERTEX
  5
282
  8
Layer_2
  10
467.94275
  20
589.39465
  0
VERTEX
  5
283
  8
Layer_2
  10
467.5083
  20
588.55243
  0
VERTEX
  5
284
  8
Layer_2
  10
466.99902
  20
587.7594
  0
VERTEX
  5
285
  8
Layer_2
  10
466.41968
  20
587.02014
  0
VERTEX
  5
286
  8
Layer_2
  10
465.77515
  20
586.33923
  0
VERTEX
  5
287
  8
Layer_2
  10
465.07007
  20
585.72119
  0
VERTEX
  5
288
  8
Layer_2
  10
464.3092
  20
585.17065
  0
VERTEX
  5
289
  8
Layer_2
  10
463.49725
  20
584.69214
  0
VERTEX
  5
28a
  8
Layer_2
  10
462.63904
  20
584.29028
  0
VERTEX
  5
28b
  8
Layer_2
  10
461.7392
  20
583.96954
  0
VERTEX
  5
28c
  8
Layer_2
  10
460.80261
  20
583.73456
  0
VERTEX
  5
28d
  8
Layer_2
  10
459.83392
  20
583.5899
  0
VERTEX
  5
28e
  8
Layer_2
  10
458.83801
  20
583.5401
  0
VERTEX
  5
28f
  8
Layer_2
  10
453.83801
  20
583.5401
  0
VERTEX
  5
290
  8
Layer_2
  10
453.32373
  20
583.55383
  0
VERTEX
  5
291
  8
Layer_2
  10
452.81616
  20
583.59314
  0
VERTEX
  5
292
  8
Layer_2
  10
452.31604
  20
583.65735
  0
VERTEX
  5
293
  8
Layer_2
  10
451.82397
  20
583.74579
  0
VERTEX
  5
294
  8
Layer_2
  10
450.86633
  20
583.99304
  0
VERTEX
  5
295
  8
Layer_2
  10
449.94818
  20
584.32996
  0
VERTEX
  5
296
  8
Layer_2
  10
449.07465
  20
584.7514
  0
VERTEX
  5
297
  8
Layer_2
  10
448.25061
  20
585.2525
  0
VERTEX
  5
298
  8
Layer_2
  10
447.4812
  20
585.82819
  0
VERTEX
  5
299
  8
Layer_2
  10
446.77142
  20
586.47339
  0
VERTEX
  5
29a
  8
Layer_2
  10
446.12622
  20
587.18323
  0
VERTEX
  5
29b
  8
Layer_2
  10
445.55054
  20
587.9527
  0
VERTEX
  5
29c
  8
Layer_2
  10
445.04944
  20
588.77673
  0
VERTEX
  5
29d
  8
Layer_2
  10
444.62793
  20
589.65027
  0
VERTEX
  5
29e
  8
Layer_2
  10
444.29102
  20
590.56836
  0
VERTEX
  5
29f
  8
Layer_2
  10
444.04376
  20
591.52612
  0
VERTEX
  5
2a0
  8
Layer_2
  10
443.95526
  20
592.01825
  0
VERTEX
  5
2a1
  8
Layer_2
  10
443.89111
  20
592.51831
  0
VERTEX
  5
2a2
  8
Layer_2
  10
443.85181
  20
593.02588
  0
VERTEX
  5
2a3
  8
Layer_2
  10
443.83801
  20
593.5401
  0
VERTEX
  5
2a4
  8
Layer_2
  10
443.83801
  20
653.34814
  0
VERTEX
  5
2a5
  8
Layer_2
  10
443.82996
  20
653.50812
  0
SEQEND
  0
POLYLINE
  5
2a7
  8
Layer_2
  62
0
  70
1
  66
1
  10
0
  20
0
  30
0
  0
VERTEX
  5
2a7
  8
Layer_2
  10
450.46313
  20
562.90198
  0
VERTEX
  5
2a8
  8
Layer_2
  10
450.47943
  20
563.01099
  0
VERTEX
  5
2a9
  8
Layer_2
  10
450.53015
  20
563.13635
  0
VERTEX
  5
2aa
  8
Layer_2
  10
450.61035
  20
563.27557
  0
VERTEX
  5
2ab
  8
Layer_2
  10
450.71521
  20
563.42633
  0
VERTEX
  5
2ac
  8
Layer_2
  10
450.97931
  20
563.75269
  0
VERTEX
  5
2ad
  8
Layer_2
  10
451.2832
  20
564.09619
  0
VERTEX
  5
2ae
  8
Layer_2
  10
451.58777
  20
564.43762
  0
VERTEX
  5
2af
  8
Layer_2
  10
451.85376
  20
564.75757
  0
VERTEX
  5
2b0
  8
Layer_2
  10
451.96008
  20
564.9035
  0
VERTEX
  5
2b1
  8
Layer_2
  10
452.04205
  20
565.03687
  0
VERTEX
  5
2b2
  8
Layer_2
  10
452.09485
  20
565.15527
  0
VERTEX
  5
2b3
  8
Layer_2
  10
452.11353
  20
565.25635
  0
VERTEX
  5
2b4
  8
Layer_2
  10
452.09302
  20
565.36279
  0
VERTEX
  5
2b5
  8
Layer_2
  10
452.03516
  20
565.48828
  0
VERTEX
  5
2b6
  8
Layer_2
  10
451.9458
  20
565.63
  0
VERTEX
  5
2b7
  8
Layer_2
  10
451.83038
  20
565.78516
  0
VERTEX
  5
2b8
  8
Layer_2
  10
451.54431
  20
566.12469
  0
VERTEX
  5
2b9
  8
Layer_2
  10
451.22229
  20
566.48462
  0
VERTEX
  5
2ba
  8
Layer_2
  10
450.90942
  20
566.84271
  0
VERTEX
  5
2bb
  8
Layer_2
  10
450.65088
  20
567.17676
  0
VERTEX
  5
2bc
  8
Layer_2
  10
450.55615
  20
567.32782
  0
VERTEX
  5
2bd
  8
Layer_2
  10
450.492
  20
567.46448
  0
VERTEX
  5
2be
  8
Layer_2
  10
450.46405
  20
567.58405
  0
VERTEX
  5
2bf
  8
Layer_2
  10
450.47803
  20
567.68365
  0
VERTEX
  5
2c0
  8
Layer_2
  10
450.5387
  20
567.76392
  0
VERTEX
  5
2c1
  8
Layer_2
  10
450.64294
  20
567.82874
  0
VERTEX
  5
2c2
  8
Layer_2
  10
450.78491
  20
567.88
  0
VERTEX
  5
2c3
  8
Layer_2
  10
450.95874
  20
567.9198
  0
VERTEX
  5
2c4
  8
Layer_2
  10
451.37769
  20
567.97314
  0
VERTEX
  5
2c5
  8
Layer_2
  10
451.85217
  20
568.00507
  0
VERTEX
  5
2c6
  8
Layer_2
  10
452.33447
  20
568.03174
  0
VERTEX
  5
2c7
  8
Layer_2
  10
452.77679
  20
568.06952
  0
VERTEX
  5
2c8
  8
Layer_2
  10
452.96814
  20
568.0976
  0
VERTEX
  5
2c9
  8
Layer_2
  10
453.13153
  20
568.13458
  0
VERTEX
  5
2ca
  8
Layer_2
  10
453.26111
  20
568.18243
  0
VERTEX
  5
2cb
  8
Layer_2
  10
453.35095
  20
568.24316
  0
VERTEX
  5
2cc
  8
Layer_2
  10
453.4118
  20
568.33301
  0
VERTEX
  5
2cd
  8
Layer_2
  10
453.45966
  20
568.46252
  0
VERTEX
  5
2ce
  8
Layer_2
  10
453.4967
  20
568.62598
  0
VERTEX
  5
2cf
  8
Layer_2
  10
453.52478
  20
568.81726
  0
VERTEX
  5
2d0
  8
Layer_2
  10
453.56256
  20
569.25964
  0
VERTEX
  5
2d1
  8
Layer_2
  10
453.58936
  20
569.74188
  0
VERTEX
  5
2d2
  8
Layer_2
  10
453.62128
  20
570.21637
  0
VERTEX
  5
2d3
  8
Layer_2
  10
453.67468
  20
570.63538
  0
VERTEX
  5
2d4
  8
Layer_2
  10
453.71454
  20
570.80908
  0
VERTEX
  5
2d5
  8
Layer_2
  10
453.76587
  20
570.95111
  0
VERTEX
  5
2d6
  8
Layer_2
  10
453.83057
  20
571.05542
  0
VERTEX
  5
2d7
  8
Layer_2
  10
453.91089
  20
571.11597
  0
VERTEX
  5
2d8
  8
Layer_2
  10
454.0105
  20
571.12988
  0
VERTEX
  5
2d9
  8
Layer_2
  10
454.13
  20
571.10193
  0
VERTEX
  5
2da
  8
Layer_2
  10
454.26672
  20
571.03778
  0
VERTEX
  5
2db
  8
Layer_2
  10
454.41772
  20
570.94305
  0
VERTEX
  5
2dc
  8
Layer_2
  10
454.75171
  20
570.68451
  0
VERTEX
  5
2dd
  8
Layer_2
  10
455.10986
  20
570.37158
  0
VERTEX
  5
2de
  8
Layer_2
  10
455.46985
  20
570.04944
  0
VERTEX
  5
2df
  8
Layer_2
  10
455.80933
  20
569.76337
  0
VERTEX
  5
2e0
  8
Layer_2
  10
455.96442
  20
569.64795
  0
VERTEX
  5
2e1
  8
Layer_2
  10
456.10614
  20
569.55853
  0
VERTEX
  5
2e2
  8
Layer_2
  10
456.23157
  20
569.50073
  0
VERTEX
  5
2e3
  8
Layer_2
  10
456.33807
  20
569.48022
  0
VERTEX
  5
2e4
  8
Layer_2
  10
456.44458
  20
569.50067
  0
VERTEX
  5
2e5
  8
Layer_2
  10
456.57007
  20
569.55847
  0
VERTEX
  5
2e6
  8
Layer_2
  10
456.71179
  20
569.64789
  0
VERTEX
  5
2e7
  8
Layer_2
  10
456.86694
  20
569.76331
  0
VERTEX
  5
2e8
  8
Layer_2
  10
457.20642
  20
570.04938
  0
VERTEX
  5
2e9
  8
Layer_2
  10
457.56641
  20
570.37146
  0
VERTEX
  5
2ea
  8
Layer_2
  10
457.92456
  20
570.68433
  0
VERTEX
  5
2eb
  8
Layer_2
  10
458.25854
  20
570.94287
  0
VERTEX
  5
2ec
  8
Layer_2
  10
458.40955
  20
571.0376
  0
VERTEX
  5
2ed
  8
Layer_2
  10
458.54626
  20
571.10175
  0
VERTEX
  5
2ee
  8
Layer_2
  10
458.66583
  20
571.12964
  0
VERTEX
  5
2ef
  8
Layer_2
  10
458.76544
  20
571.11572
  0
VERTEX
  5
2f0
  8
Layer_2
  10
458.8457
  20
571.05518
  0
VERTEX
  5
2f1
  8
Layer_2
  10
458.91052
  20
570.95087
  0
VERTEX
  5
2f2
  8
Layer_2
  10
458.96179
  20
570.80884
  0
VERTEX
  5
2f3
  8
Layer_2
  10
459.00159
  20
570.63507
  0
VERTEX
  5
2f4
  8
Layer_2
  10
459.05493
  20
570.21606
  0
VERTEX
  5
2f5
  8
Layer_2
  10
459.08685
  20
569.74158
  0
VERTEX
  5
2f6
  8
Layer_2
  10
459.11359
  20
569.25928
  0
VERTEX
  5
2f7
  8
Layer_2
  10
459.15137
  20
568.81689
  0
VERTEX
  5
2f8
  8
Layer_2
  10
459.17944
  20
568.62561
  0
VERTEX
  5
2f9
  8
Layer_2
  10
459.21643
  20
568.46216
  0
VERTEX
  5
2fa
  8
Layer_2
  10
459.26428
  20
568.33252
  0
VERTEX
  5
2fb
  8
Layer_2
  10
459.32501
  20
568.2428
  0
VERTEX
  5
2fc
  8
Layer_2
  10
459.41479
  20
568.18201
  0
VERTEX
  5
2fd
  8
Layer_2
  10
459.54437
  20
568.13416
  0
VERTEX
  5
2fe
  8
Layer_2
  10
459.70776
  20
568.09717
  0
VERTEX
  5
2ff
  8
Layer_2
  10
459.89911
  20
568.06897
  0
VERTEX
  5
300
  8
Layer_2
  10
460.34143
  20
568.03119
  0
VERTEX
  5
301
  8
Layer_2
  10
460.82379
  20
568.00446
  0
VERTEX
  5
302
  8
Layer_2
  10
461.29834
  20
567.97253
  0
VERTEX
  5
303
  8
Layer_2
  10
461.71729
  20
567.91907
  0
VERTEX
  5
304
  8
Layer_2
  10
461.89111
  20
567.87927
  0
VERTEX
  5
305
  8
Layer_2
  10
462.03308
  20
567.828
  0
VERTEX
  5
306
  8
Layer_2
  10
462.13733
  20
567.76318
  0
VERTEX
  5
307
  8
Layer_2
  10
462.19794
  20
567.68292
  0
VERTEX
  5
308
  8
Layer_2
  10
462.21185
  20
567.58331
  0
VERTEX
  5
309
  8
Layer_2
  10
462.1839
  20
567.46375
  0
VERTEX
  5
30a
  8
Layer_2
  10
462.11975
  20
567.32709
  0
VERTEX
  5
30b
  8
Layer_2
  10
462.02502
  20
567.17609
  0
VERTEX
  5
30c
  8
Layer_2
  10
461.76648
  20
566.84204
  0
VERTEX
  5
30d
  8
Layer_2
  10
461.45349
  20
566.48401
  0
VERTEX
  5
30e
  8
Layer_2
  10
461.13135
  20
566.12408
  0
VERTEX
  5
30f
  8
Layer_2
  10
460.84534
  20
565.78461
  0
VERTEX
  5
310
  8
Layer_2
  10
460.72992
  20
565.62946
  0
VERTEX
  5
311
  8
Layer_2
  10
460.6405
  20
565.48773
  0
VERTEX
  5
312
  8
Layer_2
  10
460.58264
  20
565.3623
  0
VERTEX
  5
313
  8
Layer_2
  10
460.56213
  20
565.25586
  0
VERTEX
  5
314
  8
Layer_2
  10
460.58264
  20
565.14935
  0
VERTEX
  5
315
  8
Layer_2
  10
460.6405
  20
565.02386
  0
VERTEX
  5
316
  8
Layer_2
  10
460.72986
  20
564.88214
  0
VERTEX
  5
317
  8
Layer_2
  10
460.84528
  20
564.72699
  0
VERTEX
  5
318
  8
Layer_2
  10
461.13135
  20
564.38745
  0
VERTEX
  5
319
  8
Layer_2
  10
461.45337
  20
564.02753
  0
VERTEX
  5
31a
  8
Layer_2
  10
461.76624
  20
563.66943
  0
VERTEX
  5
31b
  8
Layer_2
  10
462.02478
  20
563.33539
  0
VERTEX
  5
31c
  8
Layer_2
  10
462.11951
  20
563.18433
  0
VERTEX
  5
31d
  8
Layer_2
  10
462.18365
  20
563.04767
  0
VERTEX
  5
31e
  8
Layer_2
  10
462.21161
  20
562.92816
  0
VERTEX
  5
31f
  8
Layer_2
  10
462.19763
  20
562.82849
  0
VERTEX
  5
320
  8
Layer_2
  10
462.13696
  20
562.74823
  0
VERTEX
  5
321
  8
Layer_2
  10
462.03271
  20
562.68347
  0
VERTEX
  5
322
  8
Layer_2
  10
461.89075
  20
562.6322
  0
VERTEX
  5
323
  8
Layer_2
  10
461.71692
  20
562.59241
  0
VERTEX
  5
324
  8
Layer_2
  10
461.29797
  20
562.53906
  0
VERTEX
  5
325
  8
Layer_2
  10
460.82349
  20
562.50708
  0
VERTEX
  5
326
  8
Layer_2
  10
460.34119
  20
562.48041
  0
VERTEX
  5
327
  8
Layer_2
  10
459.89886
  20
562.44269
  0
VERTEX
  5
328
  8
Layer_2
  10
459.70752
  20
562.41461
  0
VERTEX
  5
329
  8
Layer_2
  10
459.54413
  20
562.37762
  0
VERTEX
  5
32a
  8
Layer_2
  10
459.41455
  20
562.32977
  0
VERTEX
  5
32b
  8
Layer_2
  10
459.32471
  20
562.26898
  0
VERTEX
  5
32c
  8
Layer_2
  10
459.26392
  20
562.1792
  0
VERTEX
  5
32d
  8
Layer_2
  10
459.21606
  20
562.04956
  0
VERTEX
  5
32e
  8
Layer_2
  10
459.17908
  20
561.88617
  0
VERTEX
  5
32f
  8
Layer_2
  10
459.151
  20
561.69489
  0
VERTEX
  5
330
  8
Layer_2
  10
459.11316
  20
561.2525
  0
VERTEX
  5
331
  8
Layer_2
  10
459.08643
  20
560.7702
  0
VERTEX
  5
332
  8
Layer_2
  10
459.05444
  20
560.29572
  0
VERTEX
  5
333
  8
Layer_2
  10
459.00098
  20
559.87671
  0
VERTEX
  5
334
  8
Layer_2
  10
458.96112
  20
559.703
  0
VERTEX
  5
335
  8
Layer_2
  10
458.90979
  20
559.56097
  0
VERTEX
  5
336
  8
Layer_2
  10
458.84509
  20
559.45667
  0
VERTEX
  5
337
  8
Layer_2
  10
458.76477
  20
559.39612
  0
VERTEX
  5
338
  8
Layer_2
  10
458.66516
  20
559.3822
  0
VERTEX
  5
339
  8
Layer_2
  10
458.54565
  20
559.41016
  0
VERTEX
  5
33a
  8
Layer_2
  10
458.40894
  20
559.4743
  0
VERTEX
  5
33b
  8
Layer_2
  10
458.25793
  20
559.56903
  0
VERTEX
  5
33c
  8
Layer_2
  10
457.92395
  20
559.82751
  0
VERTEX
  5
33d
  8
Layer_2
  10
457.5658
  20
560.1405
  0
VERTEX
  5
33e
  8
Layer_2
  10
457.20593
  20
560.46265
  0
VERTEX
  5
33f
  8
Layer_2
  10
456.86646
  20
560.74872
  0
VERTEX
  5
340
  8
Layer_2
  10
456.7113
  20
560.86407
  0
VERTEX
  5
341
  8
Layer_2
  10
456.56958
  20
560.95349
  0
VERTEX
  5
342
  8
Layer_2
  10
456.44409
  20
561.01135
  0
VERTEX
  5
343
  8
Layer_2
  10
456.33759
  20
561.03186
  0
VERTEX
  5
344
  8
Layer_2
  10
456.23108
  20
561.01141
  0
VERTEX
  5
345
  8
Layer_2
  10
456.10559
  20
560.95361
  0
VERTEX
  5
346
  8
Layer_2
  10
455.96387
  20
560.8642
  0
VERTEX
  5
347
  8
Layer_2
  10
455.80872
  20
560.74878
  0
VERTEX
  5
348
  8
Layer_2
  10
455.46924
  20
560.46277
  0
VERTEX
  5
349
  8
Layer_2
  10
455.10925
  20
560.14063
  0
VERTEX
  5
34a
  8
Layer_2
  10
454.7511
  20
559.82776
  0
VERTEX
  5
34b
  8
Layer_2
  10
454.41711
  20
559.56927
  0
VERTEX
  5
34c
  8
Layer_2
  10
454.26611
  20
559.47461
  0
VERTEX
  5
34d
  8
Layer_2
  10
454.12939
  20
559.41046
  0
VERTEX
  5
34e
  8
Layer_2
  10
454.00983
  20
559.38251
  0
VERTEX
  5
34f
  8
Layer_2
  10
453.91022
  20
559.39648
  0
VERTEX
  5
350
  8
Layer_2
  10
453.82996
  20
559.45703
  0
VERTEX
  5
351
  8
Layer_2
  10
453.76514
  20
559.56134
  0
VERTEX
  5
352
  8
Layer_2
  10
453.71387
  20
559.70337
  0
VERTEX
  5
353
  8
Layer_2
  10
453.67407
  20
559.87708
  0
VERTEX
  5
354
  8
Layer_2
  10
453.62073
  20
560.29608
  0
VERTEX
  5
355
  8
Layer_2
  10
453.58881
  20
560.77057
  0
VERTEX
  5
356
  8
Layer_2
  10
453.56207
  20
561.25281
  0
VERTEX
  5
357
  8
Layer_2
  10
453.52429
  20
561.69519
  0
VERTEX
  5
358
  8
Layer_2
  10
453.49622
  20
561.88647
  0
VERTEX
  5
359
  8
Layer_2
  10
453.45929
  20
562.04993
  0
VERTEX
  5
35a
  8
Layer_2
  10
453.4115
  20
562.17957
  0
VERTEX
  5
35b
  8
Layer_2
  10
453.35071
  20
562.26929
  0
VERTEX
  5
35c
  8
Layer_2
  10
453.26086
  20
562.33008
  0
VERTEX
  5
35d
  8
Layer_2
  10
453.13129
  20
562.37793
  0
VERTEX
  5
35e
  8
Layer_2
  10
452.9679
  20
562.41492
  0
VERTEX
  5
35f
  8
Layer_2
  10
452.77655
  20
562.44312
  0
VERTEX
  5
360
  8
Layer_2
  10
452.33423
  20
562.4809
  0
VERTEX
  5
361
  8
Layer_2
  10
451.85193
  20
562.50769
  0
VERTEX
  5
362
  8
Layer_2
  10
451.37744
  20
562.53967
  0
VERTEX
  5
363
  8
Layer_2
  10
450.95844
  20
562.59308
  0
VERTEX
  5
364
  8
Layer_2
  10
450.78461
  20
562.63293
  0
VERTEX
  5
365
  8
Layer_2
  10
450.64258
  20
562.6842
  0
VERTEX
  5
366
  8
Layer_2
  10
450.53833
  20
562.74902
  0
VERTEX
  5
367
  8
Layer_2
  10
450.47772
  20
562.82928
  0
VERTEX
  5
368
  8
Layer_2
  10
450.46735
  20
562.86414
  0
VERTEX
  5
369
  8
Layer_2
  10
450.46313
  20
562.90198
  0
SEQEND
  0
POLYLINE
  5
36b
  8
Layer_2
  62
0
  70
1
  66
1
  10
0
  20
0
  30
0
  0
VERTEX
  5
36b
  8
Layer_2
  10
443.82996
  20
507.57202
  0
VERTEX
  5
36c
  8
Layer_2
  10
443.78857
  20
507.3349
  0
VERTEX
  5
36d
  8
Layer_2
  10
443.7124
  20
507.10803
  0
VERTEX
  5
36e
  8
Layer_2
  10
443.60303
  20
506.89517
  0
VERTEX
  5
36f
  8
Layer_2
  10
443.46204
  20
506.70004
  0
VERTEX
  5
370
  8
Layer_2
  10
443.31348
  20
506.51358
  0
VERTEX
  5
371
  8
Layer_2
  10
443.14197
  20
506.34802
  0
VERTEX
  5
372
  8
Layer_2
  10
442.47473
  20
505.77747
  0
VERTEX
  5
373
  8
Layer_2
  10
441.79004
  20
505.22803
  0
VERTEX
  5
374
  8
Layer_2
  10
441.50574
  20
504.9577
  0
VERTEX
  5
375
  8
Layer_2
  10
441.26196
  20
504.65274
  0
VERTEX
  5
376
  8
Layer_2
  10
441.06226
  20
504.31738
  0
VERTEX
  5
377
  8
Layer_2
  10
440.91003
  20
503.95602
  0
VERTEX
  5
378
  8
Layer_2
  10
440.85376
  20
503.55377
  0
VERTEX
  5
379
  8
Layer_2
  10
440.83801
  20
503.14804
  0
VERTEX
  5
37a
  8
Layer_2
  10
440.83801
  20
470.54004
  0
VERTEX
  5
37b
  8
Layer_2
  10
440.86511
  20
470.02945
  0
VERTEX
  5
37c
  8
Layer_2
  10
440.94202
  20
469.5336
  0
VERTEX
  5
37d
  8
Layer_2
  10
441.06604
  20
469.05505
  0
VERTEX
  5
37e
  8
Layer_2
  10
441.23474
  20
468.59622
  0
VERTEX
  5
37f
  8
Layer_2
  10
441.44568
  20
468.15967
  0
VERTEX
  5
380
  8
Layer_2
  10
441.69623
  20
467.74789
  0
VERTEX
  5
381
  8
Layer_2
  10
441.98407
  20
467.36334
  0
VERTEX
  5
382
  8
Layer_2
  10
442.30664
  20
467.00854
  0
VERTEX
  5
383
  8
Layer_2
  10
442.66144
  20
466.68597
  0
VERTEX
  5
384
  8
Layer_2
  10
443.0459
  20
466.39813
  0
VERTEX
  5
385
  8
Layer_2
  10
443.45764
  20
466.14749
  0
VERTEX
  5
386
  8
Layer_2
  10
443.89417
  20
465.93658
  0
VERTEX
  5
387
  8
Layer_2
  10
444.35297
  20
465.76788
  0
VERTEX
  5
388
  8
Layer_2
  10
444.83154
  20
465.64392
  0
VERTEX
  5
389
  8
Layer_2
  10
445.32739
  20
465.56714
  0
VERTEX
  5
38a
  8
Layer_2
  10
445.83801
  20
465.54004
  0
VERTEX
  5
38b
  8
Layer_2
  10
466.83801
  20
465.54004
  0
VERTEX
  5
38c
  8
Layer_2
  10
467.45593
  20
465.57663
  0
VERTEX
  5
38d
  8
Layer_2
  10
468.05774
  20
465.68811
  0
VERTEX
  5
38e
  8
Layer_2
  10
468.63708
  20
465.87128
  0
VERTEX
  5
38f
  8
Layer_2
  10
469.18787
  20
466.1228
  0
VERTEX
  5
390
  8
Layer_2
  10
469.70398
  20
466.43951
  0
VERTEX
  5
391
  8
Layer_2
  10
470.17908
  20
466.81815
  0
VERTEX
  5
392
  8
Layer_2
  10
470.60718
  20
467.25537
  0
VERTEX
  5
393
  8
Layer_2
  10
470.98206
  20
467.74802
  0
VERTEX
  5
394
  8
Layer_2
  10
471.32568
  20
468.33093
  0
VERTEX
  5
395
  8
Layer_2
  10
471.58472
  20
468.95276
  0
VERTEX
  5
396
  8
Layer_2
  10
471.75647
  20
469.60419
  0
VERTEX
  5
397
  8
Layer_2
  10
471.83801
  20
470.27603
  0
VERTEX
  5
398
  8
Layer_2
  10
471.83801
  20
503.34802
  0
VERTEX
  5
399
  8
Layer_2
  10
471.81628
  20
503.62247
  0
VERTEX
  5
39a
  8
Layer_2
  10
471.76447
  20
503.89026
  0
VERTEX
  5
39b
  8
Layer_2
  10
471.68384
  20
504.14905
  0
VERTEX
  5
39c
  8
Layer_2
  10
471.57556
  20
504.39661
  0
VERTEX
  5
39d
  8
Layer_2
  10
471.44043
  20
504.63058
  0
VERTEX
  5
39e
  8
Layer_2
  10
471.27979
  20
504.84869
  0
VERTEX
  5
39f
  8
Layer_2
  10
471.0946
  20
505.04858
  0
VERTEX
  5
3a0
  8
Layer_2
  10
470.88599
  20
505.22803
  0
VERTEX
  5
3a1
  8
Layer_2
  10
470.20776
  20
505.78528
  0
VERTEX
  5
3a2
  8
Layer_2
  10
469.53406
  20
506.34802
  0
VERTEX
  5
3a3
  8
Layer_2
  10
469.25116
  20
506.63162
  0
VERTEX
  5
3a4
  8
Layer_2
  10
469.0368
  20
506.9649
  0
VERTEX
  5
3a5
  8
Layer_2
  10
468.89709
  20
507.33575
  0
VERTEX
  5
3a6
  8
Layer_2
  10
468.83801
  20
507.73203
  0
VERTEX
  5
3a7
  8
Layer_2
  10
468.854
  20
509.69608
  0
VERTEX
  5
3a8
  8
Layer_2
  10
468.82996
  20
511.66003
  0
VERTEX
  5
3a9
  8
Layer_2
  10
468.82996
  20
528.80402
  0
VERTEX
  5
3aa
  8
Layer_2
  10
468.83801
  20
532.63599
  0
VERTEX
  5
3ab
  8
Layer_2
  10
468.83801
  20
567.91602
  0
VERTEX
  5
3ac
  8
Layer_2
  10
468.75012
  20
568.9093
  0
VERTEX
  5
3ad
  8
Layer_2
  10
468.56842
  20
569.8717
  0
VERTEX
  5
3ae
  8
Layer_2
  10
468.29773
  20
570.79865
  0
VERTEX
  5
3af
  8
Layer_2
  10
467.94275
  20
571.68549
  0
VERTEX
  5
3b0
  8
Layer_2
  10
467.5083
  20
572.52771
  0
VERTEX
  5
3b1
  8
Layer_2
  10
466.99902
  20
573.32074
  0
VERTEX
  5
3b2
  8
Layer_2
  10
466.41968
  20
574.06
  0
VERTEX
  5
3b3
  8
Layer_2
  10
465.77515
  20
574.74091
  0
VERTEX
  5
3b4
  8
Layer_2
  10
465.07007
  20
575.35895
  0
VERTEX
  5
3b5
  8
Layer_2
  10
464.3092
  20
575.90948
  0
VERTEX
  5
3b6
  8
Layer_2
  10
463.49725
  20
576.388
  0
VERTEX
  5
3b7
  8
Layer_2
  10
462.63904
  20
576.78992
  0
VERTEX
  5
3b8
  8
Layer_2
  10
461.7392
  20
577.1106
  0
VERTEX
  5
3b9
  8
Layer_2
  10
460.80261
  20
577.34558
  0
VERTEX
  5
3ba
  8
Layer_2
  10
459.83392
  20
577.49023
  0
VERTEX
  5
3bb
  8
Layer_2
  10
458.83801
  20
577.54004
  0
VERTEX
  5
3bc
  8
Layer_2
  10
453.83801
  20
577.54004
  0
VERTEX
  5
3bd
  8
Layer_2
  10
453.32373
  20
577.52625
  0
VERTEX
  5
3be
  8
Layer_2
  10
452.81616
  20
577.487
  0
VERTEX
  5
3bf
  8
Layer_2
  10
452.31604
  20
577.42285
  0
VERTEX
  5
3c0
  8
Layer_2
  10
451.82397
  20
577.33435
  0
VERTEX
  5
3c1
  8
Layer_2
  10
450.86633
  20
577.0871
  0
VERTEX
  5
3c2
  8
Layer_2
  10
449.94818
  20
576.75024
  0
VERTEX
  5
3c3
  8
Layer_2
  10
449.07465
  20
576.32874
  0
VERTEX
  5
3c4
  8
Layer_2
  10
448.25061
  20
575.82764
  0
VERTEX
  5
3c5
  8
Layer_2
  10
447.4812
  20
575.25195
  0
VERTEX
  5
3c6
  8
Layer_2
  10
446.77142
  20
574.60669
  0
VERTEX
  5
3c7
  8
Layer_2
  10
446.12622
  20
573.89685
  0
VERTEX
  5
3c8
  8
Layer_2
  10
445.55054
  20
573.12744
  0
VERTEX
  5
3c9
  8
Layer_2
  10
445.04944
  20
572.30347
  0
VERTEX
  5
3ca
  8
Layer_2
  10
444.62793
  20
571.42987
  0
VERTEX
  5
3cb
  8
Layer_2
  10
444.29102
  20
570.51172
  0
VERTEX
  5
3cc
  8
Layer_2
  10
444.04376
  20
569.55408
  0
VERTEX
  5
3cd
  8
Layer_2
  10
443.95526
  20
569.06189
  0
VERTEX
  5
3ce
  8
Layer_2
  10
443.89111
  20
568.56177
  0
VERTEX
  5
3cf
  8
Layer_2
  10
443.85181
  20
568.05432
  0
VERTEX
  5
3d0
  8
Layer_2
  10
443.83801
  20
567.54004
  0
VERTEX
  5
3d1
  8
Layer_2
  10
443.83801
  20
507.73203
  0
VERTEX
  5
3d2
  8
Layer_2
  10
443.82996
  20
507.57202
  0
SEQEND
  0
POLYLINE
  5
3d4
  8
Layer_1
  62
138
  66
1
  10
0
  20
0
  30
0
  0
VERTEX
  5
3d4
  8
Layer_1
  10
447.33801
  20
502.85419
  0
VERTEX
  5
3d5
  8
Layer_1
  10
447.33801
  20
547.85425
  0
SEQEND
  0
POLYLINE
  5
3d7
  8
Layer_1
  62
138
  66
1
  10
0
  20
0
  30
0
  0
VERTEX
  5
3d7
  8
Layer_1
  10
450.33801
  20
510.35419
  0
VERTEX
  5
3d8
  8
Layer_1
  10
450.33801
  20
555.35425
  0
SEQEND
  0
POLYLINE
  5
3da
  8
Layer_1
  62
138
  66
1
  10
0
  20
0
  30
0
  0
VERTEX
  5
3da
  8
Layer_1
  10
453.33801
  20
502.85419
  0
VERTEX
  5
3db
  8
Layer_1
  10
453.33801
  20
547.85425
  0
SEQEND
  0
POLYLINE
  5
3dd
  8
Layer_1
  62
138
  66
1
  10
0
  20
0
  30
0
  0
VERTEX
  5
3dd
  8
Layer_1
  10
456.33801
  20
510.35419
  0
VERTEX
  5
3de
  8
Layer_1
  10
456.33801
  20
555.35425
  0
SEQEND
  0
POLYLINE
  5
3e0
  8
Layer_1
  62
138
  66
1
  10
0
  20
0
  30
0
  0
VERTEX
  5
3e0
  8
Layer_1
  10
459.33801
  20
502.85419
  0
VERTEX
  5
3e1
  8
Layer_1
  10
459.33801
  20
547.85425
  0
SEQEND
  0
POLYLINE
  5
3e3
  8
Layer_1
  62
138
  66
1
  10
0
  20
0
  30
0
  0
VERTEX
  5
3e3
  8
Layer_1
  10
462.33801
  20
510.35419
  0
VERTEX
  5
3e4
  8
Layer_1
  10
462.33801
  20
555.35425
  0
SEQEND
  0
POLYLINE
  5
3e6
  8
Layer_1
  62
138
  66
1
  10
0
  20
0
  30
0
  0
VERTEX
  5
3e6
  8
Layer_1
  10
465.33801
  20
502.85419
  0
VERTEX
  5
3e7
  8
Layer_1
  10
465.33801
  20
547.85425
  0
SEQEND
  0
POLYLINE
  5
3e9
  8
Layer_1
  62
138
  66
1
  10
0
  20
0
  30
0
  0
VERTEX
  5
3e9
  8
Layer_1
  10
447.33801
  20
658.36078
  0
VERTEX
  5
3ea
  8
Layer_1
  10
447.33801
  20
613.36078
  0
SEQEND
  0
POLYLINE
  5
3ec
  8
Layer_1
  62
138
  66
1
  10
0
  20
0
  30
0
  0
VERTEX
  5
3ec
  8
Layer_1
  10
450.33801
  20
650.86078
  0
VERTEX
  5
3ed
  8
Layer_1
  10
450.33801
  20
605.86072
  0
SEQEND
  0
POLYLINE
  5
3ef
  8
Layer_1
  62
138
  66
1
  10
0
  20
0
  30
0
  0
VERTEX
  5
3ef
  8
Layer_1
  10
453.33801
  20
658.36078
  0
VERTEX
  5
3f0
  8
Layer_1
  10
453.33801
  20
613.36078
  0
SEQEND
  0
POLYLINE
  5
3f2
  8
Layer_1
  62
138
  66
1
  10
0
  20
0
  30
0
  0
VERTEX
  5
3f2
  8
Layer_1
  10
456.33801
  20
650.86078
  0
VERTEX
  5
3f3
  8
Layer_1
  10
456.33801
  20
605.86072
  0
SEQEND
  0
POLYLINE
  5
3f5
  8
Layer_1
  62
138
  66
1
  10
0
  20
0
  30
0
  0
VERTEX
  5
3f5
  8
Layer_1
  10
459.33801
  20
658.36078
  0
VERTEX
  5
3f6
  8
Layer_1
  10
459.33801
  20
613.36078
  0
SEQEND
  0
POLYLINE
  5
3f8
  8
Layer_1
  62
138
  66
1
  10
0
  20
0
  30
0
  0
VERTEX
  5
3f8
  8
Layer_1
  10
462.33801
  20
650.86078
  0
VERTEX
  5
3f9
  8
Layer_1
  10
462.33801
  20
605.86072
  0
SEQEND
  0
POLYLINE
  5
3fb
  8
Layer_1
  62
138
  66
1
  10
0
  20
0
  30
0
  0
VERTEX
  5
3fb
  8
Layer_1
  10
465.33801
  20
658.36078
  0
VERTEX
  5
3fc
  8
Layer_1
  10
465.33801
  20
613.36078
  0
SEQEND
  0
POLYLINE
  5
3fe
  8
Layer_2
  62
0
  70
1
  66
1
  10
0
  20
0
  30
0
  0
VERTEX
  5
3fe
  8
Layer_2
  10
394.87787
  20
710.79663
  0
VERTEX
  5
3ff
  8
Layer_2
  10
394.98688
  20
710.81287
  0
VERTEX
  5
400
  8
Layer_2
  10
395.11218
  20
710.86359
  0
VERTEX
  5
401
  8
Layer_2
  10
395.25146
  20
710.94385
  0
VERTEX
  5
402
  8
Layer_2
  10
395.40222
  20
711.04871
  0
VERTEX
  5
403
  8
Layer_2
  10
395.72858
  20
711.31274
  0
VERTEX
  5
404
  8
Layer_2
  10
396.07208
  20
711.61664
  0
VERTEX
  5
405
  8
Layer_2
  10
396.41345
  20
711.92114
  0
VERTEX
  5
406
  8
Layer_2
  10
396.73346
  20
712.18713
  0
VERTEX
  5
407
  8
Layer_2
  10
396.87946
  20
712.29352
  0
VERTEX
  5
408
  8
Layer_2
  10
397.01282
  20
712.37549
  0
VERTEX
  5
409
  8
Layer_2
  10
397.13123
  20
712.42834
  0
VERTEX
  5
40a
  8
Layer_2
  10
397.23224
  20
712.44702
  0
VERTEX
  5
40b
  8
Layer_2
  10
397.33875
  20
712.42651
  0
VERTEX
  5
40c
  8
Layer_2
  10
397.46423
  20
712.36871
  0
VERTEX
  5
40d
  8
Layer_2
  10
397.60596
  20
712.2793
  0
VERTEX
  5
40e
  8
Layer_2
  10
397.76111
  20
712.16394
  0
VERTEX
  5
40f
  8
Layer_2
  10
398.10059
  20
711.87781
  0
VERTEX
  5
410
  8
Layer_2
  10
398.46057
  20
711.55579
  0
VERTEX
  5
411
  8
Layer_2
  10
398.81873
  20
711.24286
  0
VERTEX
  5
412
  8
Layer_2
  10
399.15271
  20
710.98438
  0
VERTEX
  5
413
  8
Layer_2
  10
399.30371
  20
710.88965
  0
VERTEX
  5
414
  8
Layer_2
  10
399.44043
  20
710.8255
  0
VERTEX
  5
415
  8
Layer_2
  10
399.55994
  20
710.79761
  0
VERTEX
  5
416
  8
Layer_2
  10
399.65955
  20
710.81152
  0
VERTEX
  5
417
  8
Layer_2
  10
399.73987
  20
710.87213
  0
VERTEX
  5
418
  8
Layer_2
  10
399.80457
  20
710.97644
  0
VERTEX
  5
419
  8
Layer_2
  10
399.85583
  20
711.11841
  0
VERTEX
  5
41a
  8
Layer_2
  10
399.89563
  20
711.29218
  0
VERTEX
  5
41b
  8
Layer_2
  10
399.9491
  20
711.71118
  0
VERTEX
  5
41c
  8
Layer_2
  10
399.98096
  20
712.18567
  0
VERTEX
  5
41d
  8
Layer_2
  10
400.00763
  20
712.66797
  0
VERTEX
  5
41e
  8
Layer_2
  10
400.04541
  20
713.11035
  0
VERTEX
  5
41f
  8
Layer_2
  10
400.07349
  20
713.30164
  0
VERTEX
  5
420
  8
Layer_2
  10
400.11047
  20
713.46509
  0
VERTEX
  5
421
  8
Layer_2
  10
400.15833
  20
713.59467
  0
VERTEX
  5
422
  8
Layer_2
  10
400.21906
  20
713.68445
  0
VERTEX
  5
423
  8
Layer_2
  10
400.30884
  20
713.74524
  0
VERTEX
  5
424
  8
Layer_2
  10
400.43842
  20
713.79309
  0
VERTEX
  5
425
  8
Layer_2
  10
400.60181
  20
713.83008
  0
VERTEX
  5
426
  8
Layer_2
  10
400.79315
  20
713.85828
  0
VERTEX
  5
427
  8
Layer_2
  10
401.23547
  20
713.89606
  0
VERTEX
  5
428
  8
Layer_2
  10
401.71777
  20
713.92285
  0
VERTEX
  5
429
  8
Layer_2
  10
402.19226
  20
713.95483
  0
VERTEX
  5
42a
  8
Layer_2
  10
402.61121
  20
714.00824
  0
VERTEX
  5
42b
  8
Layer_2
  10
402.78503
  20
714.0481
  0
VERTEX
  5
42c
  8
Layer_2
  10
402.927
  20
714.09937
  0
VERTEX
  5
42d
  8
Layer_2
  10
403.03125
  20
714.16418
  0
VERTEX
  5
42e
  8
Layer_2
  10
403.09186
  20
714.24445
  0
VERTEX
  5
42f
  8
Layer_2
  10
403.10577
  20
714.34406
  0
VERTEX
  5
430
  8
Layer_2
  10
403.07782
  20
714.46362
  0
VERTEX
  5
431
  8
Layer_2
  10
403.01367
  20
714.60028
  0
VERTEX
  5
432
  8
Layer_2
  10
402.91895
  20
714.75134
  0
VERTEX
  5
433
  8
Layer_2
  10
402.6604
  20
715.08533
  0
VERTEX
  5
434
  8
Layer_2
  10
402.34741
  20
715.44336
  0
VERTEX
  5
435
  8
Layer_2
  10
402.02527
  20
715.80334
  0
VERTEX
  5
436
  8
Layer_2
  10
401.73926
  20
716.14282
  0
VERTEX
  5
437
  8
Layer_2
  10
401.62384
  20
716.29797
  0
VERTEX
  5
438
  8
Layer_2
  10
401.53442
  20
716.43964
  0
VERTEX
  5
439
  8
Layer_2
  10
401.47656
  20
716.56512
  0
VERTEX
  5
43a
  8
Layer_2
  10
401.45605
  20
716.67163
  0
VERTEX
  5
43b
  8
Layer_2
  10
401.47656
  20
716.77808
  0
VERTEX
  5
43c
  8
Layer_2
  10
401.53442
  20
716.90356
  0
VERTEX
  5
43d
  8
Layer_2
  10
401.62378
  20
717.04529
  0
VERTEX
  5
43e
  8
Layer_2
  10
401.7392
  20
717.20044
  0
VERTEX
  5
43f
  8
Layer_2
  10
402.02527
  20
717.53992
  0
VERTEX
  5
440
  8
Layer_2
  10
402.34735
  20
717.8999
  0
VERTEX
  5
441
  8
Layer_2
  10
402.66028
  20
718.25806
  0
VERTEX
  5
442
  8
Layer_2
  10
402.91882
  20
718.59204
  0
VERTEX
  5
443
  8
Layer_2
  10
403.01349
  20
718.7431
  0
VERTEX
  5
444
  8
Layer_2
  10
403.07764
  20
718.87976
  0
VERTEX
  5
445
  8
Layer_2
  10
403.10559
  20
718.99933
  0
VERTEX
  5
446
  8
Layer_2
  10
403.09161
  20
719.099
  0
VERTEX
  5
447
  8
Layer_2
  10
403.03101
  20
719.17926
  0
VERTEX
  5
448
  8
Layer_2
  10
402.92676
  20
719.24402
  0
VERTEX
  5
449
  8
Layer_2
  10
402.78473
  20
719.29529
  0
VERTEX
  5
44a
  8
Layer_2
  10
402.6109
  20
719.33508
  0
VERTEX
  5
44b
  8
Layer_2
  10
402.19189
  20
719.38843
  0
VERTEX
  5
44c
  8
Layer_2
  10
401.71741
  20
719.42041
  0
VERTEX
  5
44d
  8
Layer_2
  10
401.23511
  20
719.44708
  0
VERTEX
  5
44e
  8
Layer_2
  10
400.79279
  20
719.48486
  0
VERTEX
  5
44f
  8
Layer_2
  10
400.60144
  20
719.51294
  0
VERTEX
  5
450
  8
Layer_2
  10
400.43805
  20
719.54993
  0
VERTEX
  5
451
  8
Layer_2
  10
400.30847
  20
719.59772
  0
VERTEX
  5
452
  8
Layer_2
  10
400.21863
  20
719.65851
  0
VERTEX
  5
453
  8
Layer_2
  10
400.15784
  20
719.74829
  0
VERTEX
  5
454
  8
Layer_2
  10
400.10999
  20
719.87793
  0
VERTEX
  5
455
  8
Layer_2
  10
400.073
  20
720.04132
  0
VERTEX
  5
456
  8
Layer_2
  10
400.04492
  20
720.23267
  0
VERTEX
  5
457
  8
Layer_2
  10
400.00708
  20
720.67499
  0
VERTEX
  5
458
  8
Layer_2
  10
399.98035
  20
721.15729
  0
VERTEX
  5
459
  8
Layer_2
  10
399.94836
  20
721.63184
  0
VERTEX
  5
45a
  8
Layer_2
  10
399.89502
  20
722.05078
  0
VERTEX
  5
45b
  8
Layer_2
  10
399.85516
  20
722.22455
  0
VERTEX
  5
45c
  8
Layer_2
  10
399.80383
  20
722.36658
  0
VERTEX
  5
45d
  8
Layer_2
  10
399.73901
  20
722.47083
  0
VERTEX
  5
45e
  8
Layer_2
  10
399.65875
  20
722.53143
  0
VERTEX
  5
45f
  8
Layer_2
  10
399.55914
  20
722.54535
  0
VERTEX
  5
460
  8
Layer_2
  10
399.43958
  20
722.51746
  0
VERTEX
  5
461
  8
Layer_2
  10
399.30286
  20
722.45325
  0
VERTEX
  5
462
  8
Layer_2
  10
399.15186
  20
722.35852
  0
VERTEX
  5
463
  8
Layer_2
  10
398.81787
  20
722.09998
  0
VERTEX
  5
464
  8
Layer_2
  10
398.45984
  20
721.78705
  0
VERTEX
  5
465
  8
Layer_2
  10
398.09998
  20
721.4649
  0
VERTEX
  5
466
  8
Layer_2
  10
397.7605
  20
721.17883
  0
VERTEX
  5
467
  8
Layer_2
  10
397.60535
  20
721.06342
  0
VERTEX
  5
468
  8
Layer_2
  10
397.46362
  20
720.974
  0
VERTEX
  5
469
  8
Layer_2
  10
397.33813
  20
720.9162
  0
VERTEX
  5
46a
  8
Layer_2
  10
397.23169
  20
720.89563
  0
VERTEX
  5
46b
  8
Layer_2
  10
397.12524
  20
720.91614
  0
VERTEX
  5
46c
  8
Layer_2
  10
396.99976
  20
720.97394
  0
VERTEX
  5
46d
  8
Layer_2
  10
396.85803
  20
721.06335
  0
VERTEX
  5
46e
  8
Layer_2
  10
396.70288
  20
721.17871
  0
VERTEX
  5
46f
  8
Layer_2
  10
396.3634
  20
721.46484
  0
VERTEX
  5
470
  8
Layer_2
  10
396.00342
  20
721.78687
  0
VERTEX
  5
471
  8
Layer_2
  10
395.64526
  20
722.09979
  0
VERTEX
  5
472
  8
Layer_2
  10
395.31128
  20
722.35828
  0
VERTEX
  5
473
  8
Layer_2
  10
395.16028
  20
722.453
  0
VERTEX
  5
474
  8
Layer_2
  10
395.02356
  20
722.51715
  0
VERTEX
  5
475
  8
Layer_2
  10
394.90399
  20
722.54504
  0
VERTEX
  5
476
  8
Layer_2
  10
394.80438
  20
722.53113
  0
VERTEX
  5
477
  8
Layer_2
  10
394.72412
  20
722.47058
  0
VERTEX
  5
478
  8
Layer_2
  10
394.6593
  20
722.36627
  0
VERTEX
  5
479
  8
Layer_2
  10
394.60803
  20
722.22424
  0
VERTEX
  5
47a
  8
Layer_2
  10
394.56824
  20
722.05048
  0
VERTEX
  5
47b
  8
Layer_2
  10
394.51489
  20
721.63147
  0
VERTEX
  5
47c
  8
Layer_2
  10
394.48297
  20
721.15698
  0
VERTEX
  5
47d
  8
Layer_2
  10
394.45624
  20
720.67468
  0
VERTEX
  5
47e
  8
Layer_2
  10
394.41846
  20
720.2323
  0
VERTEX
  5
47f
  8
Layer_2
  10
394.39038
  20
720.04102
  0
VERTEX
  5
480
  8
Layer_2
  10
394.35345
  20
719.87756
  0
VERTEX
  5
481
  8
Layer_2
  10
394.30566
  20
719.74805
  0
VERTEX
  5
482
  8
Layer_2
  10
394.24487
  20
719.6582
  0
VERTEX
  5
483
  8
Layer_2
  10
394.15503
  20
719.59741
  0
VERTEX
  5
484
  8
Layer_2
  10
394.02545
  20
719.54956
  0
VERTEX
  5
485
  8
Layer_2
  10
393.86206
  20
719.51257
  0
VERTEX
  5
486
  8
Layer_2
  10
393.67072
  20
719.4845
  0
VERTEX
  5
487
  8
Layer_2
  10
393.22839
  20
719.44666
  0
VERTEX
  5
488
  8
Layer_2
  10
392.74609
  20
719.41986
  0
VERTEX
  5
489
  8
Layer_2
  10
392.27161
  20
719.38788
  0
VERTEX
  5
48a
  8
Layer_2
  10
391.85266
  20
719.33447
  0
VERTEX
  5
48b
  8
Layer_2
  10
391.67883
  20
719.29462
  0
VERTEX
  5
48c
  8
Layer_2
  10
391.53687
  20
719.24329
  0
VERTEX
  5
48d
  8
Layer_2
  10
391.43262
  20
719.17853
  0
VERTEX
  5
48e
  8
Layer_2
  10
391.37201
  20
719.09827
  0
VERTEX
  5
48f
  8
Layer_2
  10
391.35809
  20
718.9986
  0
VERTEX
  5
490
  8
Layer_2
  10
391.38605
  20
718.87909
  0
VERTEX
  5
491
  8
Layer_2
  10
391.4502
  20
718.74243
  0
VERTEX
  5
492
  8
Layer_2
  10
391.54492
  20
718.59137
  0
VERTEX
  5
493
  8
Layer_2
  10
391.80347
  20
718.25732
  0
VERTEX
  5
494
  8
Layer_2
  10
392.11639
  20
717.89929
  0
VERTEX
  5
495
  8
Layer_2
  10
392.43854
  20
717.53937
  0
VERTEX
  5
496
  8
Layer_2
  10
392.72461
  20
717.19989
  0
VERTEX
  5
497
  8
Layer_2
  10
392.84003
  20
717.04474
  0
VERTEX
  5
498
  8
Layer_2
  10
392.92944
  20
716.90302
  0
VERTEX
  5
499
  8
Layer_2
  10
392.98724
  20
716.77759
  0
VERTEX
  5
49a
  8
Layer_2
  10
393.00775
  20
716.67108
  0
VERTEX
  5
49b
  8
Layer_2
  10
392.9873
  20
716.56458
  0
VERTEX
  5
49c
  8
Layer_2
  10
392.92944
  20
716.43915
  0
VERTEX
  5
49d
  8
Layer_2
  10
392.84009
  20
716.29742
  0
VERTEX
  5
49e
  8
Layer_2
  10
392.72467
  20
716.14227
  0
VERTEX
  5
49f
  8
Layer_2
  10
392.4386
  20
715.80273
  0
VERTEX
  5
4a0
  8
Layer_2
  10
392.11658
  20
715.44275
  0
VERTEX
  5
4a1
  8
Layer_2
  10
391.80371
  20
715.08466
  0
VERTEX
  5
4a2
  8
Layer_2
  10
391.54517
  20
714.75061
  0
VERTEX
  5
4a3
  8
Layer_2
  10
391.45044
  20
714.59955
  0
VERTEX
  5
4a4
  8
Layer_2
  10
391.38629
  20
714.46289
  0
VERTEX
  5
4a5
  8
Layer_2
  10
391.35834
  20
714.34338
  0
VERTEX
  5
4a6
  8
Layer_2
  10
391.37231
  20
714.24371
  0
VERTEX
  5
4a7
  8
Layer_2
  10
391.43298
  20
714.16345
  0
VERTEX
  5
4a8
  8
Layer_2
  10
391.53723
  20
714.09863
  0
VERTEX
  5
4a9
  8
Layer_2
  10
391.6792
  20
714.04736
  0
VERTEX
  5
4aa
  8
Layer_2
  10
391.85303
  20
714.00757
  0
VERTEX
  5
4ab
  8
Layer_2
  10
392.27197
  20
713.95422
  0
VERTEX
  5
4ac
  8
Layer_2
  10
392.74646
  20
713.9223
  0
VERTEX
  5
4ad
  8
Layer_2
  10
393.22876
  20
713.89563
  0
VERTEX
  5
4ae
  8
Layer_2
  10
393.67108
  20
713.85785
  0
VERTEX
  5
4af
  8
Layer_2
  10
393.86243
  20
713.82971
  0
VERTEX
  5
4b0
  8
Layer_2
  10
394.02582
  20
713.79279
  0
VERTEX
  5
4b1
  8
Layer_2
  10
394.1554
  20
713.74493
  0
VERTEX
  5
4b2
  8
Layer_2
  10
394.24518
  20
713.6842
  0
VERTEX
  5
4b3
  8
Layer_2
  10
394.30597
  20
713.59436
  0
VERTEX
  5
4b4
  8
Layer_2
  10
394.35382
  20
713.46484
  0
VERTEX
  5
4b5
  8
Layer_2
  10
394.39087
  20
713.30139
  0
VERTEX
  5
4b6
  8
Layer_2
  10
394.41895
  20
713.11005
  0
VERTEX
  5
4b7
  8
Layer_2
  10
394.45679
  20
712.66772
  0
VERTEX
  5
4b8
  8
Layer_2
  10
394.48358
  20
712.18542
  0
VERTEX
  5
4b9
  8
Layer_2
  10
394.5155
  20
711.71088
  0
VERTEX
  5
4ba
  8
Layer_2
  10
394.56897
  20
711.29187
  0
VERTEX
  5
4bb
  8
Layer_2
  10
394.60883
  20
711.1181
  0
VERTEX
  5
4bc
  8
Layer_2
  10
394.66016
  20
710.97607
  0
VERTEX
  5
4bd
  8
Layer_2
  10
394.72485
  20
710.87183
  0
VERTEX
  5
4be
  8
Layer_2
  10
394.80518
  20
710.81122
  0
VERTEX
  5
4bf
  8
Layer_2
  10
394.83997
  20
710.80084
  0
VERTEX
  5
4c0
  8
Layer_2
  10
394.87787
  20
710.79663
  0
SEQEND
  0
POLYLINE
  5
4c2
  8
Layer_2
  62
0
  70
1
  66
1
  10
0
  20
0
  30
0
  0
VERTEX
  5
4c2
  8
Layer_2
  10
227.87695
  20
710.79559
  0
VERTEX
  5
4c3
  8
Layer_2
  10
227.98596
  20
710.81189
  0
VERTEX
  5
4c4
  8
Layer_2
  10
228.11133
  20
710.86255
  0
VERTEX
  5
4c5
  8
Layer_2
  10
228.25061
  20
710.94281
  0
VERTEX
  5
4c6
  8
Layer_2
  10
228.40137
  20
711.04773
  0
VERTEX
  5
4c7
  8
Layer_2
  10
228.72778
  20
711.31177
  0
VERTEX
  5
4c8
  8
Layer_2
  10
229.07117
  20
711.6156
  0
VERTEX
  5
4c9
  8
Layer_2
  10
229.41235
  20
711.92017
  0
VERTEX
  5
4ca
  8
Layer_2
  10
229.73242
  20
712.18616
  0
VERTEX
  5
4cb
  8
Layer_2
  10
229.87842
  20
712.29248
  0
VERTEX
  5
4cc
  8
Layer_2
  10
230.01172
  20
712.37451
  0
VERTEX
  5
4cd
  8
Layer_2
  10
230.13025
  20
712.42731
  0
VERTEX
  5
4ce
  8
Layer_2
  10
230.23132
  20
712.44598
  0
VERTEX
  5
4cf
  8
Layer_2
  10
230.33789
  20
712.42548
  0
VERTEX
  5
4d0
  8
Layer_2
  10
230.46326
  20
712.36768
  0
VERTEX
  5
4d1
  8
Layer_2
  10
230.60498
  20
712.27826
  0
VERTEX
  5
4d2
  8
Layer_2
  10
230.76013
  20
712.1629
  0
VERTEX
  5
4d3
  8
Layer_2
  10
231.09961
  20
711.87683
  0
VERTEX
  5
4d4
  8
Layer_2
  10
231.45959
  20
711.55475
  0
VERTEX
  5
4d5
  8
Layer_2
  10
231.81775
  20
711.24182
  0
VERTEX
  5
4d6
  8
Layer_2
  10
232.15173
  20
710.98334
  0
VERTEX
  5
4d7
  8
Layer_2
  10
232.30273
  20
710.88867
  0
VERTEX
  5
4d8
  8
Layer_2
  10
232.43945
  20
710.82446
  0
VERTEX
  5
4d9
  8
Layer_2
  10
232.55884
  20
710.79657
  0
VERTEX
  5
4da
  8
Layer_2
  10
232.65857
  20
710.81049
  0
VERTEX
  5
4db
  8
Layer_2
  10
232.73889
  20
710.87109
  0
VERTEX
  5
4dc
  8
Layer_2
  10
232.80359
  20
710.9754
  0
VERTEX
  5
4dd
  8
Layer_2
  10
232.85498
  20
711.11743
  0
VERTEX
  5
4de
  8
Layer_2
  10
232.89478
  20
711.2912
  0
VERTEX
  5
4df
  8
Layer_2
  10
232.94812
  20
711.71021
  0
VERTEX
  5
4e0
  8
Layer_2
  10
232.97998
  20
712.18469
  0
VERTEX
  5
4e1
  8
Layer_2
  10
233.00671
  20
712.66699
  0
VERTEX
  5
4e2
  8
Layer_2
  10
233.04456
  20
713.10938
  0
VERTEX
  5
4e3
  8
Layer_2
  10
233.07275
  20
713.30066
  0
VERTEX
  5
4e4
  8
Layer_2
  10
233.10962
  20
713.46411
  0
VERTEX
  5
4e5
  8
Layer_2
  10
233.15747
  20
713.59369
  0
VERTEX
  5
4e6
  8
Layer_2
  10
233.21814
  20
713.68347
  0
VERTEX
  5
4e7
  8
Layer_2
  10
233.30786
  20
713.74426
  0
VERTEX
  5
4e8
  8
Layer_2
  10
233.4375
  20
713.79211
  0
VERTEX
  5
4e9
  8
Layer_2
  10
233.60095
  20
713.8291
  0
VERTEX
  5
4ea
  8
Layer_2
  10
233.79224
  20
713.85724
  0
VERTEX
  5
4eb
  8
Layer_2
  10
234.23462
  20
713.89502
  0
VERTEX
  5
4ec
  8
Layer_2
  10
234.7168
  20
713.92181
  0
VERTEX
  5
4ed
  8
Layer_2
  10
235.19141
  20
713.9538
  0
VERTEX
  5
4ee
  8
Layer_2
  10
235.61035
  20
714.0072
  0
VERTEX
  5
4ef
  8
Layer_2
  10
235.78394
  20
714.04706
  0
VERTEX
  5
4f0
  8
Layer_2
  10
235.92603
  20
714.09839
  0
VERTEX
  5
4f1
  8
Layer_2
  10
236.03027
  20
714.16315
  0
VERTEX
  5
4f2
  8
Layer_2
  10
236.09082
  20
714.24341
  0
VERTEX
  5
4f3
  8
Layer_2
  10
236.10474
  20
714.34308
  0
VERTEX
  5
4f4
  8
Layer_2
  10
236.0769
  20
714.46259
  0
VERTEX
  5
4f5
  8
Layer_2
  10
236.0127
  20
714.59924
  0
VERTEX
  5
4f6
  8
Layer_2
  10
235.91797
  20
714.75031
  0
VERTEX
  5
4f7
  8
Layer_2
  10
235.65942
  20
715.08435
  0
VERTEX
  5
4f8
  8
Layer_2
  10
235.34644
  20
715.44238
  0
VERTEX
  5
4f9
  8
Layer_2
  10
235.02429
  20
715.80231
  0
VERTEX
  5
4fa
  8
Layer_2
  10
234.73828
  20
716.14178
  0
VERTEX
  5
4fb
  8
Layer_2
  10
234.6228
  20
716.29694
  0
VERTEX
  5
4fc
  8
Layer_2
  10
234.53345
  20
716.43866
  0
VERTEX
  5
4fd
  8
Layer_2
  10
234.47559
  20
716.56409
  0
VERTEX
  5
4fe
  8
Layer_2
  10
234.45508
  20
716.67059
  0
VERTEX
  5
4ff
  8
Layer_2
  10
234.47559
  20
716.7771
  0
VERTEX
  5
500
  8
Layer_2
  10
234.53345
  20
716.90253
  0
VERTEX
  5
501
  8
Layer_2
  10
234.6228
  20
717.04425
  0
VERTEX
  5
502
  8
Layer_2
  10
234.73828
  20
717.1994
  0
VERTEX
  5
503
  8
Layer_2
  10
235.02429
  20
717.53894
  0
VERTEX
  5
504
  8
Layer_2
  10
235.34644
  20
717.89893
  0
VERTEX
  5
505
  8
Layer_2
  10
235.65942
  20
718.25702
  0
VERTEX
  5
506
  8
Layer_2
  10
235.91772
  20
718.59106
  0
VERTEX
  5
507
  8
Layer_2
  10
236.01245
  20
718.74213
  0
VERTEX
  5
508
  8
Layer_2
  10
236.07666
  20
718.87878
  0
VERTEX
  5
509
  8
Layer_2
  10
236.10449
  20
718.99829
  0
VERTEX
  5
50a
  8
Layer_2
  10
236.09058
  20
719.09796
  0
VERTEX
  5
50b
  8
Layer_2
  10
236.03003
  20
719.17822
  0
VERTEX
  5
50c
  8
Layer_2
  10
235.92566
  20
719.24304
  0
VERTEX
  5
50d
  8
Layer_2
  10
235.78369
  20
719.29431
  0
VERTEX
  5
50e
  8
Layer_2
  10
235.60986
  20
719.33411
  0
VERTEX
  5
50f
  8
Layer_2
  10
235.19092
  20
719.38745
  0
VERTEX
  5
510
  8
Layer_2
  10
234.71631
  20
719.41937
  0
VERTEX
  5
511
  8
Layer_2
  10
234.23413
  20
719.44604
  0
VERTEX
  5
512
  8
Layer_2
  10
233.79175
  20
719.48383
  0
VERTEX
  5
513
  8
Layer_2
  10
233.60046
  20
719.51196
  0
VERTEX
  5
514
  8
Layer_2
  10
233.43701
  20
719.54889
  0
VERTEX
  5
515
  8
Layer_2
  10
233.30737
  20
719.59674
  0
VERTEX
  5
516
  8
Layer_2
  10
233.21765
  20
719.65747
  0
VERTEX
  5
517
  8
Layer_2
  10
233.15698
  20
719.74731
  0
VERTEX
  5
518
  8
Layer_2
  10
233.10913
  20
719.87689
  0
VERTEX
  5
519
  8
Layer_2
  10
233.07202
  20
720.04028
  0
VERTEX
  5
51a
  8
Layer_2
  10
233.04395
  20
720.23163
  0
VERTEX
  5
51b
  8
Layer_2
  10
233.0061
  20
720.67395
  0
VERTEX
  5
51c
  8
Layer_2
  10
232.97937
  20
721.15625
  0
VERTEX
  5
51d
  8
Layer_2
  10
232.94739
  20
721.6308
  0
VERTEX
  5
51e
  8
Layer_2
  10
232.89404
  20
722.0498
  0
VERTEX
  5
51f
  8
Layer_2
  10
232.85425
  20
722.22357
  0
VERTEX
  5
520
  8
Layer_2
  10
232.80286
  20
722.3656
  0
VERTEX
  5
521
  8
Layer_2
  10
232.73816
  20
722.46985
  0
VERTEX
  5
522
  8
Layer_2
  10
232.65784
  20
722.53046
  0
VERTEX
  5
523
  8
Layer_2
  10
232.55811
  20
722.54437
  0
VERTEX
  5
524
  8
Layer_2
  10
232.43872
  20
722.51642
  0
VERTEX
  5
525
  8
Layer_2
  10
232.302
  20
722.45227
  0
VERTEX
  5
526
  8
Layer_2
  10
232.15088
  20
722.35754
  0
VERTEX
  5
527
  8
Layer_2
  10
231.81689
  20
722.099
  0
VERTEX
  5
528
  8
Layer_2
  10
231.45886
  20
721.78601
  0
VERTEX
  5
529
  8
Layer_2
  10
231.099
  20
721.46387
  0
VERTEX
  5
52a
  8
Layer_2
  10
230.75952
  20
721.1778
  0
VERTEX
  5
52b
  8
Layer_2
  10
230.60425
  20
721.06238
  0
VERTEX
  5
52c
  8
Layer_2
  10
230.46265
  20
720.97302
  0
VERTEX
  5
52d
  8
Layer_2
  10
230.33716
  20
720.91516
  0
VERTEX
  5
52e
  8
Layer_2
  10
230.23071
  20
720.89465
  0
VERTEX
  5
52f
  8
Layer_2
  10
230.12427
  20
720.91516
  0
VERTEX
  5
530
  8
Layer_2
  10
229.99878
  20
720.97296
  0
VERTEX
  5
531
  8
Layer_2
  10
229.85718
  20
721.06238
  0
VERTEX
  5
532
  8
Layer_2
  10
229.7019
  20
721.17773
  0
VERTEX
  5
533
  8
Layer_2
  10
229.3623
  20
721.46381
  0
VERTEX
  5
534
  8
Layer_2
  10
229.00244
  20
721.78589
  0
VERTEX
  5
535
  8
Layer_2
  10
228.64441
  20
722.09875
  0
VERTEX
  5
536
  8
Layer_2
  10
228.3103
  20
722.3573
  0
VERTEX
  5
537
  8
Layer_2
  10
228.15942
  20
722.45203
  0
VERTEX
  5
538
  8
Layer_2
  10
228.02271
  20
722.51611
  0
VERTEX
  5
539
  8
Layer_2
  10
227.90308
  20
722.54407
  0
VERTEX
  5
53a
  8
Layer_2
  10
227.80347
  20
722.53015
  0
VERTEX
  5
53b
  8
Layer_2
  10
227.72327
  20
722.46954
  0
VERTEX
  5
53c
  8
Layer_2
  10
227.65845
  20
722.36523
  0
VERTEX
  5
53d
  8
Layer_2
  10
227.60718
  20
722.22327
  0
VERTEX
  5
53e
  8
Layer_2
  10
227.56738
  20
722.04944
  0
VERTEX
  5
53f
  8
Layer_2
  10
227.51404
  20
721.63049
  0
VERTEX
  5
540
  8
Layer_2
  10
227.48206
  20
721.15601
  0
VERTEX
  5
541
  8
Layer_2
  10
227.45532
  20
720.67371
  0
VERTEX
  5
542
  8
Layer_2
  10
227.4176
  20
720.23132
  0
VERTEX
  5
543
  8
Layer_2
  10
227.3894
  20
720.04004
  0
VERTEX
  5
544
  8
Layer_2
  10
227.35254
  20
719.87659
  0
VERTEX
  5
545
  8
Layer_2
  10
227.30469
  20
719.74701
  0
VERTEX
  5
546
  8
Layer_2
  10
227.2439
  20
719.65723
  0
VERTEX
  5
547
  8
Layer_2
  10
227.15405
  20
719.59644
  0
VERTEX
  5
548
  8
Layer_2
  10
227.02441
  20
719.54858
  0
VERTEX
  5
549
  8
Layer_2
  10
226.86096
  20
719.5116
  0
VERTEX
  5
54a
  8
Layer_2
  10
226.66968
  20
719.48346
  0
VERTEX
  5
54b
  8
Layer_2
  10
226.22729
  20
719.44568
  0
VERTEX
  5
54c
  8
Layer_2
  10
225.74512
  20
719.41882
  0
VERTEX
  5
54d
  8
Layer_2
  10
225.27051
  20
719.38684
  0
VERTEX
  5
54e
  8
Layer_2
  10
224.85156
  20
719.33344
  0
VERTEX
  5
54f
  8
Layer_2
  10
224.67773
  20
719.29358
  0
VERTEX
  5
550
  8
Layer_2
  10
224.53589
  20
719.24231
  0
VERTEX
  5
551
  8
Layer_2
  10
224.43164
  20
719.17749
  0
VERTEX
  5
552
  8
Layer_2
  10
224.37097
  20
719.09723
  0
VERTEX
  5
553
  8
Layer_2
  10
224.35706
  20
718.99762
  0
VERTEX
  5
554
  8
Layer_2
  10
224.38501
  20
718.87805
  0
VERTEX
  5
555
  8
Layer_2
  10
224.4491
  20
718.74139
  0
VERTEX
  5
556
  8
Layer_2
  10
224.54382
  20
718.59033
  0
VERTEX
  5
557
  8
Layer_2
  10
224.80237
  20
718.25635
  0
VERTEX
  5
558
  8
Layer_2
  10
225.11536
  20
717.89832
  0
VERTEX
  5
559
  8
Layer_2
  10
225.4375
  20
717.53833
  0
VERTEX
  5
55a
  8
Layer_2
  10
225.72363
  20
717.19885
  0
VERTEX
  5
55b
  8
Layer_2
  10
225.83911
  20
717.0437
  0
VERTEX
  5
55c
  8
Layer_2
  10
225.92847
  20
716.90204
  0
VERTEX
  5
55d
  8
Layer_2
  10
225.98633
  20
716.77655
  0
VERTEX
  5
55e
  8
Layer_2
  10
226.00684
  20
716.67004
  0
VERTEX
  5
55f
  8
Layer_2
  10
225.98633
  20
716.5636
  0
VERTEX
  5
560
  8
Layer_2
  10
225.92847
  20
716.43811
  0
VERTEX
  5
561
  8
Layer_2
  10
225.83911
  20
716.29639
  0
VERTEX
  5
562
  8
Layer_2
  10
225.72363
  20
716.14124
  0
VERTEX
  5
563
  8
Layer_2
  10
225.43762
  20
715.80176
  0
VERTEX
  5
564
  8
Layer_2
  10
225.11548
  20
715.44177
  0
VERTEX
  5
565
  8
Layer_2
  10
224.80249
  20
715.08362
  0
VERTEX
  5
566
  8
Layer_2
  10
224.54419
  20
714.74963
  0
VERTEX
  5
567
  8
Layer_2
  10
224.44946
  20
714.59857
  0
VERTEX
  5
568
  8
Layer_2
  10
224.38525
  20
714.46191
  0
VERTEX
  5
569
  8
Layer_2
  10
224.35742
  20
714.34235
  0
VERTEX
  5
56a
  8
Layer_2
  10
224.37134
  20
714.24268
  0
VERTEX
  5
56b
  8
Layer_2
  10
224.43188
  20
714.16241
  0
VERTEX
  5
56c
  8
Layer_2
  10
224.53625
  20
714.09766
  0
VERTEX
  5
56d
  8
Layer_2
  10
224.67822
  20
714.04639
  0
VERTEX
  5
56e
  8
Layer_2
  10
224.85205
  20
714.00659
  0
VERTEX
  5
56f
  8
Layer_2
  10
225.271
  20
713.95325
  0
VERTEX
  5
570
  8
Layer_2
  10
225.74536
  20
713.92126
  0
VERTEX
  5
571
  8
Layer_2
  10
226.22778
  20
713.89459
  0
VERTEX
  5
572
  8
Layer_2
  10
226.67017
  20
713.85681
  0
VERTEX
  5
573
  8
Layer_2
  10
226.86145
  20
713.82874
  0
VERTEX
  5
574
  8
Layer_2
  10
227.0249
  20
713.79175
  0
VERTEX
  5
575
  8
Layer_2
  10
227.15454
  20
713.74396
  0
VERTEX
  5
576
  8
Layer_2
  10
227.24426
  20
713.68317
  0
VERTEX
  5
577
  8
Layer_2
  10
227.30493
  20
713.59338
  0
VERTEX
  5
578
  8
Layer_2
  10
227.35278
  20
713.46381
  0
VERTEX
  5
579
  8
Layer_2
  10
227.38989
  20
713.30042
  0
VERTEX
  5
57a
  8
Layer_2
  10
227.41797
  20
713.10907
  0
VERTEX
  5
57b
  8
Layer_2
  10
227.45581
  20
712.66669
  0
VERTEX
  5
57c
  8
Layer_2
  10
227.48267
  20
712.18439
  0
VERTEX
  5
57d
  8
Layer_2
  10
227.51465
  20
711.70984
  0
VERTEX
  5
57e
  8
Layer_2
  10
227.56812
  20
711.29089
  0
VERTEX
  5
57f
  8
Layer_2
  10
227.60791
  20
711.11713
  0
VERTEX
  5
580
  8
Layer_2
  10
227.65918
  20
710.9751
  0
VERTEX
  5
581
  8
Layer_2
  10
227.724
  20
710.87085
  0
VERTEX
  5
582
  8
Layer_2
  10
227.8042
  20
710.81024
  0
VERTEX
  5
583
  8
Layer_2
  10
227.83911
  20
710.7998
  0
VERTEX
  5
584
  8
Layer_2
  10
227.87695
  20
710.79559
  0
SEQEND
  0
POLYLINE
  5
586
  8
Layer_1
  62
138
  66
1
  10
0
  20
0
  30
0
  0
VERTEX
  5
586
  8
Layer_1
  10
246.23145
  20
725.67053
  0
VERTEX
  5
587
  8
Layer_1
  10
381.2312
  20
725.67053
  0
SEQEND
  0
POLYLINE
  5
589
  8
Layer_1
  62
138
  66
1
  10
0
  20
0
  30
0
  0
VERTEX
  5
589
  8
Layer_1
  10
246.23145
  20
719.67053
  0
VERTEX
  5
58a
  8
Layer_1
  10
381.2312
  20
719.67053
  0
SEQEND
  0
POLYLINE
  5
58c
  8
Layer_1
  62
138
  66
1
  10
0
  20
0
  30
0
  0
VERTEX
  5
58c
  8
Layer_1
  10
246.23145
  20
713.67053
  0
VERTEX
  5
58d
  8
Layer_1
  10
381.2312
  20
713.67053
  0
SEQEND
  0
POLYLINE
  5
58f
  8
Layer_1
  62
138
  66
1
  10
0
  20
0
  30
0
  0
VERTEX
  5
58f
  8
Layer_1
  10
246.23145
  20
707.67053
  0
VERTEX
  5
590
  8
Layer_1
  10
381.2312
  20
707.67053
  0
SEQEND
  0
POLYLINE
  5
592
  8
Layer_1
  62
138
  66
1
  10
0
  20
0
  30
0
  0
VERTEX
  5
592
  8
Layer_1
  10
238.73181
  20
722.67053
  0
VERTEX
  5
593
  8
Layer_1
  10
388.73157
  20
722.67053
  0
SEQEND
  0
POLYLINE
  5
595
  8
Layer_1
  62
138
  66
1
  10
0
  20
0
  30
0
  0
VERTEX
  5
595
  8
Layer_1
  10
238.73181
  20
716.67053
  0
VERTEX
  5
596
  8
Layer_1
  10
388.73157
  20
716.67053
  0
SEQEND
  0
POLYLINE
  5
598
  8
Layer_1
  62
138
  66
1
  10
0
  20
0
  30
0
  0
VERTEX
  5
598
  8
Layer_1
  10
238.73181
  20
710.67053
  0
VERTEX
  5
599
  8
Layer_1
  10
388.73157
  20
710.67053
  0
SEQEND
  0
POLYLINE
  5
59b
  8
Layer_2
  62
0
  70
1
  66
1
  10
0
  20
0
  30
0
  0
VERTEX
  5
59b
  8
Layer_2
  10
443.85394
  20
494.81305
  0
VERTEX
  5
59c
  8
Layer_2
  10
443.91394
  20
494.93719
  0
VERTEX
  5
59d
  8
Layer_2
  10
444.00598
  20
495.05304
  0
VERTEX
  5
59e
  8
Layer_2
  10
444.1994
  20
495.19556
  0
VERTEX
  5
59f
  8
Layer_2
  10
444.44592
  20
495.29303
  0
VERTEX
  5
5a0
  8
Layer_2
  10
444.64008
  20
495.32593
  0
VERTEX
  5
5a1
  8
Layer_2
  10
444.83795
  20
495.34637
  0
VERTEX
  5
5a2
  8
Layer_2
  10
467.83795
  20
495.34637
  0
VERTEX
  5
5a3
  8
Layer_2
  10
468.03687
  20
495.3288
  0
VERTEX
  5
5a4
  8
Layer_2
  10
468.22998
  20
495.29303
  0
VERTEX
  5
5a5
  8
Layer_2
  10
468.39795
  20
495.23444
  0
VERTEX
  5
5a6
  8
Layer_2
  10
468.53949
  20
495.14746
  0
VERTEX
  5
5a7
  8
Layer_2
  10
468.66992
  20
495.05304
  0
VERTEX
  5
5a8
  8
Layer_2
  10
468.75793
  20
494.9411
  0
VERTEX
  5
5a9
  8
Layer_2
  10
468.81378
  20
494.81281
  0
VERTEX
  5
5aa
  8
Layer_2
  10
468.83795
  20
494.67975
  0
VERTEX
  5
5ab
  8
Layer_2
  10
468.83795
  20
494.01306
  0
VERTEX
  5
5ac
  8
Layer_2
  10
468.81396
  20
493.8797
  0
VERTEX
  5
5ad
  8
Layer_2
  10
468.75391
  20
493.75659
  0
VERTEX
  5
5ae
  8
Layer_2
  10
468.66992
  20
493.63971
  0
VERTEX
  5
5af
  8
Layer_2
  10
468.54785
  20
493.53778
  0
VERTEX
  5
5b0
  8
Layer_2
  10
468.39832
  20
493.45569
  0
VERTEX
  5
5b1
  8
Layer_2
  10
468.22656
  20
493.3963
  0
VERTEX
  5
5b2
  8
Layer_2
  10
468.03796
  20
493.36237
  0
VERTEX
  5
5b3
  8
Layer_2
  10
467.83795
  20
493.34637
  0
VERTEX
  5
5b4
  8
Layer_2
  10
462.06195
  20
493.34637
  0
VERTEX
  5
5b5
  8
Layer_2
  10
461.98669
  20
493.41815
  0
VERTEX
  5
5b6
  8
Layer_2
  10
461.90198
  20
493.48505
  0
VERTEX
  5
5b7
  8
Layer_2
  10
461.74994
  20
493.57037
  0
VERTEX
  5
5b8
  8
Layer_2
  10
461.57367
  20
493.63141
  0
VERTEX
  5
5b9
  8
Layer_2
  10
461.38458
  20
493.66769
  0
VERTEX
  5
5ba
  8
Layer_2
  10
461.18817
  20
493.67932
  0
VERTEX
  5
5bb
  8
Layer_2
  10
460.98999
  20
493.66638
  0
VERTEX
  5
5bc
  8
Layer_2
  10
460.80591
  20
493.62909
  0
VERTEX
  5
5bd
  8
Layer_2
  10
460.63757
  20
493.56561
  0
VERTEX
  5
5be
  8
Layer_2
  10
460.48596
  20
493.48505
  0
VERTEX
  5
5bf
  8
Layer_2
  10
460.36597
  20
493.3891
  0
VERTEX
  5
5c0
  8
Layer_2
  10
460.32593
  20
493.34637
  0
VERTEX
  5
5c1
  8
Layer_2
  10
452.34192
  20
493.34637
  0
VERTEX
  5
5c2
  8
Layer_2
  10
452.30994
  20
493.3891
  0
VERTEX
  5
5c3
  8
Layer_2
  10
452.06488
  20
493.55304
  0
VERTEX
  5
5c4
  8
Layer_2
  10
451.76074
  20
493.65125
  0
VERTEX
  5
5c5
  8
Layer_2
  10
451.42517
  20
493.67838
  0
VERTEX
  5
5c6
  8
Layer_2
  10
451.08594
  20
493.62909
  0
VERTEX
  5
5c7
  8
Layer_2
  10
450.82025
  20
493.50964
  0
VERTEX
  5
5c8
  8
Layer_2
  10
450.61395
  20
493.34637
  0
VERTEX
  5
5c9
  8
Layer_2
  10
444.83795
  20
493.34637
  0
VERTEX
  5
5ca
  8
Layer_2
  10
444.63794
  20
493.36237
  0
VERTEX
  5
5cb
  8
Layer_2
  10
444.45142
  20
493.40015
  0
VERTEX
  5
5cc
  8
Layer_2
  10
444.28052
  20
493.45984
  0
VERTEX
  5
5cd
  8
Layer_2
  10
444.13025
  20
493.54013
  0
VERTEX
  5
5ce
  8
Layer_2
  10
444.00598
  20
493.63971
  0
VERTEX
  5
5cf
  8
Layer_2
  10
443.91797
  20
493.75177
  0
VERTEX
  5
5d0
  8
Layer_2
  10
443.85394
  20
493.8797
  0
VERTEX
  5
5d1
  8
Layer_2
  10
443.83795
  20
494.01306
  0
VERTEX
  5
5d2
  8
Layer_2
  10
443.83795
  20
494.67975
  0
VERTEX
  5
5d3
  8
Layer_2
  10
443.85394
  20
494.81305
  0
SEQEND
  0
POLYLINE
  5
5d5
  8
Layer_2
  62
0
  70
1
  66
1
  10
0
  20
0
  30
0
  0
VERTEX
  5
5d5
  8
Layer_2
  10
444.83801
  20
486.31406
  0
VERTEX
  5
5d6
  8
Layer_2
  10
450.61401
  20
486.31406
  0
VERTEX
  5
5d7
  8
Layer_2
  10
450.7688
  20
486.45273
  0
VERTEX
  5
5d8
  8
Layer_2
  10
450.95001
  20
486.57205
  0
VERTEX
  5
5d9
  8
Layer_2
  10
451.18262
  20
486.64642
  0
VERTEX
  5
5da
  8
Layer_2
  10
451.42999
  20
486.68607
  0
VERTEX
  5
5db
  8
Layer_2
  10
451.59924
  20
486.68134
  0
VERTEX
  5
5dc
  8
Layer_2
  10
451.76404
  20
486.65549
  0
VERTEX
  5
5dd
  8
Layer_2
  10
451.92175
  20
486.61044
  0
VERTEX
  5
5de
  8
Layer_2
  10
452.07001
  20
486.54803
  0
VERTEX
  5
5df
  8
Layer_2
  10
452.19653
  20
486.45987
  0
VERTEX
  5
5e0
  8
Layer_2
  10
452.31
  20
486.36203
  0
VERTEX
  5
5e1
  8
Layer_2
  10
452.34198
  20
486.31406
  0
VERTEX
  5
5e2
  8
Layer_2
  10
460.32599
  20
486.31406
  0
VERTEX
  5
5e3
  8
Layer_2
  10
460.40216
  20
486.39429
  0
VERTEX
  5
5e4
  8
Layer_2
  10
460.48602
  20
486.47003
  0
VERTEX
  5
5e5
  8
Layer_2
  10
460.59753
  20
486.54309
  0
VERTEX
  5
5e6
  8
Layer_2
  10
460.72113
  20
486.60291
  0
VERTEX
  5
5e7
  8
Layer_2
  10
460.8551
  20
486.64734
  0
VERTEX
  5
5e8
  8
Layer_2
  10
460.99799
  20
486.67404
  0
VERTEX
  5
5e9
  8
Layer_2
  10
461.19385
  20
486.68823
  0
VERTEX
  5
5ea
  8
Layer_2
  10
461.39001
  20
486.67404
  0
VERTEX
  5
5eb
  8
Layer_2
  10
461.57404
  20
486.63205
  0
VERTEX
  5
5ec
  8
Layer_2
  10
461.80353
  20
486.5329
  0
VERTEX
  5
5ed
  8
Layer_2
  10
461.98999
  20
486.39206
  0
VERTEX
  5
5ee
  8
Layer_2
  10
462.06201
  20
486.31406
  0
VERTEX
  5
5ef
  8
Layer_2
  10
467.83801
  20
486.31406
  0
VERTEX
  5
5f0
  8
Layer_2
  10
468.04102
  20
486.33353
  0
VERTEX
  5
5f1
  8
Layer_2
  10
468.23798
  20
486.37405
  0
VERTEX
  5
5f2
  8
Layer_2
  10
468.48474
  20
486.49188
  0
VERTEX
  5
5f3
  8
Layer_2
  10
468.67432
  20
486.65341
  0
VERTEX
  5
5f4
  8
Layer_2
  10
468.79572
  20
486.84772
  0
VERTEX
  5
5f5
  8
Layer_2
  10
468.83801
  20
487.06406
  0
VERTEX
  5
5f6
  8
Layer_2
  10
468.83801
  20
487.81406
  0
VERTEX
  5
5f7
  8
Layer_2
  10
468.82605
  20
487.93457
  0
VERTEX
  5
5f8
  8
Layer_2
  10
468.7876
  20
488.05118
  0
VERTEX
  5
5f9
  8
Layer_2
  10
468.7243
  20
488.16174
  0
VERTEX
  5
5fa
  8
Layer_2
  10
468.638
  20
488.26407
  0
VERTEX
  5
5fb
  8
Layer_2
  10
468.47827
  20
488.39084
  0
VERTEX
  5
5fc
  8
Layer_2
  10
468.28583
  20
488.4848
  0
VERTEX
  5
5fd
  8
Layer_2
  10
468.06946
  20
488.5434
  0
VERTEX
  5
5fe
  8
Layer_2
  10
467.83801
  20
488.56406
  0
VERTEX
  5
5ff
  8
Layer_2
  10
462.06201
  20
488.56406
  0
VERTEX
  5
600
  8
Layer_2
  10
461.98999
  20
488.48605
  0
VERTEX
  5
601
  8
Layer_2
  10
461.90198
  20
488.40805
  0
VERTEX
  5
602
  8
Layer_2
  10
461.75
  20
488.31204
  0
VERTEX
  5
603
  8
Layer_2
  10
461.5752
  20
488.24826
  0
VERTEX
  5
604
  8
Layer_2
  10
461.39001
  20
488.20404
  0
VERTEX
  5
605
  8
Layer_2
  10
461.19
  20
488.19205
  0
VERTEX
  5
606
  8
Layer_2
  10
460.99799
  20
488.20404
  0
VERTEX
  5
607
  8
Layer_2
  10
460.81213
  20
488.2507
  0
VERTEX
  5
608
  8
Layer_2
  10
460.638
  20
488.31805
  0
VERTEX
  5
609
  8
Layer_2
  10
460.48749
  20
488.40527
  0
VERTEX
  5
60a
  8
Layer_2
  10
460.36603
  20
488.51605
  0
VERTEX
  5
60b
  8
Layer_2
  10
460.32599
  20
488.56406
  0
VERTEX
  5
60c
  8
Layer_2
  10
452.34198
  20
488.56406
  0
VERTEX
  5
60d
  8
Layer_2
  10
452.22699
  20
488.43347
  0
VERTEX
  5
60e
  8
Layer_2
  10
452.07001
  20
488.33005
  0
VERTEX
  5
60f
  8
Layer_2
  10
451.84375
  20
488.24435
  0
VERTEX
  5
610
  8
Layer_2
  10
451.59802
  20
488.19803
  0
VERTEX
  5
611
  8
Layer_2
  10
451.42896
  20
488.1955
  0
VERTEX
  5
612
  8
Layer_2
  10
451.26276
  20
488.21338
  0
VERTEX
  5
613
  8
Layer_2
  10
451.10217
  20
488.25055
  0
VERTEX
  5
614
  8
Layer_2
  10
450.95001
  20
488.30606
  0
VERTEX
  5
615
  8
Layer_2
  10
450.76678
  20
488.42416
  0
VERTEX
  5
616
  8
Layer_2
  10
450.61401
  20
488.56406
  0
VERTEX
  5
617
  8
Layer_2
  10
444.83801
  20
488.56406
  0
VERTEX
  5
618
  8
Layer_2
  10
444.64478
  20
488.53821
  0
VERTEX
  5
619
  8
Layer_2
  10
444.45398
  20
488.50403
  0
VERTEX
  5
61a
  8
Layer_2
  10
444.28601
  20
488.43805
  0
VERTEX
  5
61b
  8
Layer_2
  10
444.19934
  20
488.38635
  0
VERTEX
  5
61c
  8
Layer_2
  10
444.11798
  20
488.33005
  0
VERTEX
  5
61d
  8
Layer_2
  10
444.00012
  20
488.21771
  0
VERTEX
  5
61e
  8
Layer_2
  10
443.91327
  20
488.09198
  0
VERTEX
  5
61f
  8
Layer_2
  10
443.8587
  20
487.95624
  0
VERTEX
  5
620
  8
Layer_2
  10
443.83801
  20
487.81406
  0
VERTEX
  5
621
  8
Layer_2
  10
443.83801
  20
487.06406
  0
VERTEX
  5
622
  8
Layer_2
  10
443.8645
  20
486.90759
  0
VERTEX
  5
623
  8
Layer_2
  10
443.93109
  20
486.7597
  0
VERTEX
  5
624
  8
Layer_2
  10
444.03516
  20
486.62451
  0
VERTEX
  5
625
  8
Layer_2
  10
444.17401
  20
486.50604
  0
VERTEX
  5
626
  8
Layer_2
  10
444.28601
  20
486.44003
  0
VERTEX
  5
627
  8
Layer_2
  10
444.45398
  20
486.37405
  0
VERTEX
  5
628
  8
Layer_2
  10
444.64441
  20
486.33807
  0
VERTEX
  5
629
  8
Layer_2
  10
444.83801
  20
486.31406
  0
SEQEND
  0
POLYLINE
  5
62b
  8
Layer_2
  62
0
  66
1
  10
0
  20
0
  30
0
  0
VERTEX
  5
62b
  8
Layer_2
  10
443.83801
  20
481.7337
  0
VERTEX
  5
62c
  8
Layer_2
  10
443.83801
  20
472.88239
  0
VERTEX
  5
62d
  8
Layer_2
  10
443.85828
  20
472.65088
  0
VERTEX
  5
62e
  8
Layer_2
  10
443.91656
  20
472.43527
  0
VERTEX
  5
62f
  8
Layer_2
  10
444.00879
  20
472.24017
  0
VERTEX
  5
630
  8
Layer_2
  10
444.13092
  20
472.07016
  0
VERTEX
  5
631
  8
Layer_2
  10
444.27893
  20
471.92993
  0
VERTEX
  5
632
  8
Layer_2
  10
444.44879
  20
471.82401
  0
VERTEX
  5
633
  8
Layer_2
  10
444.63647
  20
471.75708
  0
VERTEX
  5
634
  8
Layer_2
  10
444.83801
  20
471.73373
  0
VERTEX
  5
635
  8
Layer_2
  10
467.83801
  20
471.73373
  0
VERTEX
  5
636
  8
Layer_2
  10
468.03955
  20
471.75708
  0
VERTEX
  5
637
  8
Layer_2
  10
468.22723
  20
471.82401
  0
VERTEX
  5
638
  8
Layer_2
  10
468.39709
  20
471.92993
  0
VERTEX
  5
639
  8
Layer_2
  10
468.5451
  20
472.07016
  0
VERTEX
  5
63a
  8
Layer_2
  10
468.66724
  20
472.24017
  0
VERTEX
  5
63b
  8
Layer_2
  10
468.75946
  20
472.43527
  0
VERTEX
  5
63c
  8
Layer_2
  10
468.81775
  20
472.65088
  0
VERTEX
  5
63d
  8
Layer_2
  10
468.83801
  20
472.88239
  0
VERTEX
  5
63e
  8
Layer_2
  10
468.83801
  20
481.7337
  0
SEQEND
  0
POLYLINE
  5
640
  8
Layer_2
  62
0
  70
1
  66
1
  10
0
  20
0
  30
0
  0
VERTEX
  5
640
  8
Layer_2
  10
188.17004
  20
575.45093
  0
VERTEX
  5
641
  8
Layer_2
  10
188.28918
  20
571.17139
  0
VERTEX
  5
642
  8
Layer_2
  10
188.45056
  20
566.89362
  0
VERTEX
  5
643
  8
Layer_2
  10
188.6543
  20
562.6178
  0
VERTEX
  5
644
  8
Layer_2
  10
188.90027
  20
558.34442
  0
VERTEX
  5
645
  8
Layer_2
  10
189.18848
  20
554.07373
  0
VERTEX
  5
646
  8
Layer_2
  10
189.5188
  20
549.80609
  0
VERTEX
  5
647
  8
Layer_2
  10
189.89148
  20
545.54187
  0
VERTEX
  5
648
  8
Layer_2
  10
190.30603
  20
541.28137
  0
VERTEX
  5
649
  8
Layer_2
  10
190.67505
  20
537.97156
  0
VERTEX
  5
64a
  8
Layer_2
  10
191.08728
  20
534.66736
  0
VERTEX
  5
64b
  8
Layer_2
  10
191.54297
  20
531.36896
  0
VERTEX
  5
64c
  8
Layer_2
  10
192.04199
  20
528.07678
  0
VERTEX
  5
64d
  8
Layer_2
  10
192.49561
  20
525.39355
  0
VERTEX
  5
64e
  8
Layer_2
  10
193.00842
  20
522.7215
  0
VERTEX
  5
64f
  8
Layer_2
  10
193.57996
  20
520.06183
  0
VERTEX
  5
650
  8
Layer_2
  10
194.20996
  20
517.41559
  0
VERTEX
  5
651
  8
Layer_2
  10
194.79004
  20
515.24908
  0
VERTEX
  5
652
  8
Layer_2
  10
195.46143
  20
513.11096
  0
VERTEX
  5
653
  8
Layer_2
  10
196.22314
  20
511.00439
  0
VERTEX
  5
654
  8
Layer_2
  10
197.07397
  20
508.93213
  0
VERTEX
  5
655
  8
Layer_2
  10
197.76147
  20
507.39362
  0
VERTEX
  5
656
  8
Layer_2
  10
198.47437
  20
505.86737
  0
VERTEX
  5
657
  8
Layer_2
  10
199.2124
  20
504.35382
  0
VERTEX
  5
658
  8
Layer_2
  10
199.97534
  20
502.85324
  0
VERTEX
  5
659
  8
Layer_2
  10
200.76318
  20
501.36594
  0
VERTEX
  5
65a
  8
Layer_2
  10
201.57568
  20
499.89227
  0
VERTEX
  5
65b
  8
Layer_2
  10
202.41272
  20
498.43253
  0
VERTEX
  5
65c
  8
Layer_2
  10
203.27405
  20
496.98703
  0
VERTEX
  5
65d
  8
Layer_2
  10
205.16614
  20
493.9437
  0
VERTEX
  5
65e
  8
Layer_2
  10
207.12939
  20
490.94922
  0
VERTEX
  5
65f
  8
Layer_2
  10
209.16309
  20
488.00491
  0
VERTEX
  5
660
  8
Layer_2
  10
211.26611
  20
485.11203
  0
VERTEX
  5
661
  8
Layer_2
  10
213.43774
  20
482.27185
  0
VERTEX
  5
662
  8
Layer_2
  10
215.677
  20
479.4856
  0
VERTEX
  5
663
  8
Layer_2
  10
217.98267
  20
476.75458
  0
VERTEX
  5
664
  8
Layer_2
  10
220.354
  20
474.08005
  0
VERTEX
  5
665
  8
Layer_2
  10
220.82837
  20
473.56049
  0
VERTEX
  5
666
  8
Layer_2
  10
221.31738
  20
473.05524
  0
VERTEX
  5
667
  8
Layer_2
  10
221.8208
  20
472.56467
  0
VERTEX
  5
668
  8
Layer_2
  10
222.33801
  20
472.0892
  0
VERTEX
  5
669
  8
Layer_2
  10
223.77368
  20
470.99429
  0
VERTEX
  5
66a
  8
Layer_2
  10
225.26514
  20
469.98187
  0
VERTEX
  5
66b
  8
Layer_2
  10
226.80908
  20
469.05408
  0
VERTEX
  5
66c
  8
Layer_2
  10
228.40198
  20
468.21313
  0
VERTEX
  5
66d
  8
Layer_2
  10
230.66577
  20
467.14478
  0
VERTEX
  5
66e
  8
Layer_2
  10
232.96582
  20
466.16229
  0
VERTEX
  5
66f
  8
Layer_2
  10
235.30005
  20
465.26672
  0
VERTEX
  5
670
  8
Layer_2
  10
237.66602
  20
464.45898
  0
VERTEX
  5
671
  8
Layer_2
  10
239.43127
  20
463.90714
  0
VERTEX
  5
672
  8
Layer_2
  10
241.20349
  20
463.37994
  0
VERTEX
  5
673
  8
Layer_2
  10
242.98242
  20
462.87741
  0
VERTEX
  5
674
  8
Layer_2
  10
244.76794
  20
462.39963
  0
VERTEX
  5
675
  8
Layer_2
  10
246.55969
  20
461.94666
  0
VERTEX
  5
676
  8
Layer_2
  10
248.35742
  20
461.51859
  0
VERTEX
  5
677
  8
Layer_2
  10
250.16089
  20
461.11545
  0
VERTEX
  5
678
  8
Layer_2
  10
251.96997
  20
460.7373
  0
VERTEX
  5
679
  8
Layer_2
  10
255.43176
  20
460.05502
  0
VERTEX
  5
67a
  8
Layer_2
  10
258.90356
  20
459.42798
  0
VERTEX
  5
67b
  8
Layer_2
  10
262.38452
  20
458.85629
  0
VERTEX
  5
67c
  8
Layer_2
  10
265.87402
  20
458.34015
  0
VERTEX
  5
67d
  8
Layer_2
  10
269.04248
  20
457.9118
  0
VERTEX
  5
67e
  8
Layer_2
  10
272.21436
  20
457.51181
  0
VERTEX
  5
67f
  8
Layer_2
  10
275.3894
  20
457.14014
  0
VERTEX
  5
680
  8
Layer_2
  10
278.56732
  20
456.79681
  0
VERTEX
  5
681
  8
Layer_2
  10
281.74811
  20
456.48187
  0
VERTEX
  5
682
  8
Layer_2
  10
284.93164
  20
456.19531
  0
VERTEX
  5
683
  8
Layer_2
  10
288.11768
  20
455.93713
  0
VERTEX
  5
684
  8
Layer_2
  10
291.30603
  20
455.70737
  0
VERTEX
  5
685
  8
Layer_2
  10
296.35535
  20
455.38422
  0
VERTEX
  5
686
  8
Layer_2
  10
301.4082
  20
455.13022
  0
VERTEX
  5
687
  8
Layer_2
  10
306.46399
  20
454.9454
  0
VERTEX
  5
688
  8
Layer_2
  10
311.52203
  20
454.82974
  0
VERTEX
  5
689
  8
Layer_2
  10
315.54999
  20
454.84955
  0
VERTEX
  5
68a
  8
Layer_2
  10
319.57721
  20
454.92926
  0
VERTEX
  5
68b
  8
Layer_2
  10
323.60291
  20
455.06894
  0
VERTEX
  5
68c
  8
Layer_2
  10
327.62604
  20
455.26855
  0
VERTEX
  5
68d
  8
Layer_2
  10
331.29388
  20
455.46817
  0
VERTEX
  5
68e
  8
Layer_2
  10
334.95929
  20
455.70309
  0
VERTEX
  5
68f
  8
Layer_2
  10
338.62213
  20
455.97327
  0
VERTEX
  5
690
  8
Layer_2
  10
342.28217
  20
456.27872
  0
VERTEX
  5
691
  8
Layer_2
  10
345.93921
  20
456.61938
  0
VERTEX
  5
692
  8
Layer_2
  10
349.59302
  20
456.9953
  0
VERTEX
  5
693
  8
Layer_2
  10
353.24341
  20
457.40637
  0
VERTEX
  5
694
  8
Layer_2
  10
356.89001
  20
457.8526
  0
VERTEX
  5
695
  8
Layer_2
  10
360.83911
  20
458.38983
  0
VERTEX
  5
696
  8
Layer_2
  10
364.77869
  20
458.99286
  0
VERTEX
  5
697
  8
Layer_2
  10
368.70789
  20
459.66162
  0
VERTEX
  5
698
  8
Layer_2
  10
372.62604
  20
460.396
  0
VERTEX
  5
699
  8
Layer_2
  10
376.29175
  20
461.14935
  0
VERTEX
  5
69a
  8
Layer_2
  10
379.93616
  20
461.99939
  0
VERTEX
  5
69b
  8
Layer_2
  10
383.5575
  20
462.94562
  0
VERTEX
  5
69c
  8
Layer_2
  10
387.15399
  20
463.98764
  0
VERTEX
  5
69d
  8
Layer_2
  10
389.58392
  20
464.77014
  0
VERTEX
  5
69e
  8
Layer_2
  10
391.98474
  20
465.63831
  0
VERTEX
  5
69f
  8
Layer_2
  10
394.35413
  20
466.59125
  0
VERTEX
  5
6a0
  8
Layer_2
  10
396.69
  20
467.62808
  0
VERTEX
  5
6a1
  8
Layer_2
  10
398.35791
  20
468.44473
  0
VERTEX
  5
6a2
  8
Layer_2
  10
399.98132
  20
469.34662
  0
VERTEX
  5
6a3
  8
Layer_2
  10
401.55707
  20
470.33182
  0
VERTEX
  5
6a4
  8
Layer_2
  10
403.08203
  20
471.3985
  0
VERTEX
  5
6a5
  8
Layer_2
  10
403.76971
  20
471.94379
  0
VERTEX
  5
6a6
  8
Layer_2
  10
404.42896
  20
472.52316
  0
VERTEX
  5
6a7
  8
Layer_2
  10
405.05878
  20
473.13547
  0
VERTEX
  5
6a8
  8
Layer_2
  10
405.65802
  20
473.77939
  0
VERTEX
  5
6a9
  8
Layer_2
  10
408.09216
  20
476.49792
  0
VERTEX
  5
6aa
  8
Layer_2
  10
410.45361
  20
479.28082
  0
VERTEX
  5
6ab
  8
Layer_2
  10
412.74133
  20
482.12659
  0
VERTEX
  5
6ac
  8
Layer_2
  10
414.95404
  20
485.03378
  0
VERTEX
  5
6ad
  8
Layer_2
  10
416.30933
  20
486.86804
  0
VERTEX
  5
6ae
  8
Layer_2
  10
417.6344
  20
488.72433
  0
VERTEX
  5
6af
  8
Layer_2
  10
418.92908
  20
490.60223
  0
VERTEX
  5
6b0
  8
Layer_2
  10
420.19324
  20
492.50134
  0
VERTEX
  5
6b1
  8
Layer_2
  10
421.42639
  20
494.42133
  0
VERTEX
  5
6b2
  8
Layer_2
  10
422.62842
  20
496.36169
  0
VERTEX
  5
6b3
  8
Layer_2
  10
423.79907
  20
498.3222
  0
VERTEX
  5
6b4
  8
Layer_2
  10
424.93799
  20
500.3024
  0
VERTEX
  5
6b5
  8
Layer_2
  10
425.6933
  20
501.66281
  0
VERTEX
  5
6b6
  8
Layer_2
  10
426.42407
  20
503.03656
  0
VERTEX
  5
6b7
  8
Layer_2
  10
427.13
  20
504.4234
  0
VERTEX
  5
6b8
  8
Layer_2
  10
427.81091
  20
505.82288
  0
VERTEX
  5
6b9
  8
Layer_2
  10
428.46674
  20
507.23468
  0
VERTEX
  5
6ba
  8
Layer_2
  10
429.09729
  20
508.65845
  0
VERTEX
  5
6bb
  8
Layer_2
  10
429.70239
  20
510.09387
  0
VERTEX
  5
6bc
  8
Layer_2
  10
430.28198
  20
511.54056
  0
VERTEX
  5
6bd
  8
Layer_2
  10
431.04749
  20
513.8111
  0
VERTEX
  5
6be
  8
Layer_2
  10
431.73511
  20
516.10651
  0
VERTEX
  5
6bf
  8
Layer_2
  10
432.34412
  20
518.42468
  0
VERTEX
  5
6c0
  8
Layer_2
  10
432.87402
  20
520.76349
  0
VERTEX
  5
6c1
  8
Layer_2
  10
433.62
  20
524.53253
  0
VERTEX
  5
6c2
  8
Layer_2
  10
434.28345
  20
528.31696
  0
VERTEX
  5
6c3
  8
Layer_2
  10
434.86426
  20
532.11536
  0
VERTEX
  5
6c4
  8
Layer_2
  10
435.362
  20
535.92639
  0
VERTEX
  5
6c5
  8
Layer_2
  10
435.7312
  20
539.11108
  0
VERTEX
  5
6c6
  8
Layer_2
  10
436.07379
  20
542.29858
  0
VERTEX
  5
6c7
  8
Layer_2
  10
436.38983
  20
545.48871
  0
VERTEX
  5
6c8
  8
Layer_2
  10
436.67914
  20
548.68134
  0
VERTEX
  5
6c9
  8
Layer_2
  10
436.94183
  20
551.87634
  0
VERTEX
  5
6ca
  8
Layer_2
  10
437.17792
  20
555.07361
  0
VERTEX
  5
6cb
  8
Layer_2
  10
437.38733
  20
558.27301
  0
VERTEX
  5
6cc
  8
Layer_2
  10
437.57001
  20
561.47437
  0
VERTEX
  5
6cd
  8
Layer_2
  10
437.75659
  20
565.01532
  0
VERTEX
  5
6ce
  8
Layer_2
  10
437.91217
  20
568.55762
  0
VERTEX
  5
6cf
  8
Layer_2
  10
438.03662
  20
572.1012
  0
VERTEX
  5
6d0
  8
Layer_2
  10
438.13
  20
575.64594
  0
VERTEX
  5
6d1
  8
Layer_2
  10
438.10291
  20
577.94086
  0
VERTEX
  5
6d2
  8
Layer_2
  10
438.0459
  20
580.23499
  0
VERTEX
  5
6d3
  8
Layer_2
  10
437.95892
  20
582.52814
  0
VERTEX
  5
6d4
  8
Layer_2
  10
437.84204
  20
584.82007
  0
VERTEX
  5
6d5
  8
Layer_2
  10
437.37396
  20
592.80103
  0
VERTEX
  5
6d6
  8
Layer_2
  10
436.81689
  20
600.77533
  0
VERTEX
  5
6d7
  8
Layer_2
  10
436.17102
  20
608.74219
  0
VERTEX
  5
6d8
  8
Layer_2
  10
435.43616
  20
616.70081
  0
VERTEX
  5
6d9
  8
Layer_2
  10
434.61255
  20
624.65045
  0
VERTEX
  5
6da
  8
Layer_2
  10
433.70032
  20
632.59039
  0
VERTEX
  5
6db
  8
Layer_2
  10
432.69946
  20
640.51978
  0
VERTEX
  5
6dc
  8
Layer_2
  10
431.60999
  20
648.43793
  0
VERTEX
  5
6dd
  8
Layer_2
  10
431.00305
  20
652.49878
  0
VERTEX
  5
6de
  8
Layer_2
  10
430.36481
  20
656.55408
  0
VERTEX
  5
6df
  8
Layer_2
  10
429.69513
  20
660.60413
  0
VERTEX
  5
6e0
  8
Layer_2
  10
428.99402
  20
664.64917
  0
VERTEX
  5
6e1
  8
Layer_2
  10
428.43231
  20
667.57068
  0
VERTEX
  5
6e2
  8
Layer_2
  10
427.85034
  20
670.48804
  0
VERTEX
  5
6e3
  8
Layer_2
  10
427.24829
  20
673.40112
  0
VERTEX
  5
6e4
  8
Layer_2
  10
426.62604
  20
676.30981
  0
VERTEX
  5
6e5
  8
Layer_2
  10
425.7876
  20
680.33405
  0
VERTEX
  5
6e6
  8
Layer_2
  10
424.97003
  20
684.36261
  0
VERTEX
  5
6e7
  8
Layer_2
  10
424.68628
  20
685.50769
  0
VERTEX
  5
6e8
  8
Layer_2
  10
424.37158
  20
686.64423
  0
VERTEX
  5
6e9
  8
Layer_2
  10
424.02612
  20
687.77148
  0
VERTEX
  5
6ea
  8
Layer_2
  10
423.65002
  20
688.88879
  0
VERTEX
  5
6eb
  8
Layer_2
  10
423.47595
  20
689.36035
  0
VERTEX
  5
6ec
  8
Layer_2
  10
423.27759
  20
689.82153
  0
VERTEX
  5
6ed
  8
Layer_2
  10
423.05542
  20
690.27136
  0
VERTEX
  5
6ee
  8
Layer_2
  10
422.81
  20
690.70898
  0
VERTEX
  5
6ef
  8
Layer_2
  10
422.50964
  20
691.14819
  0
VERTEX
  5
6f0
  8
Layer_2
  10
422.18628
  20
691.56598
  0
VERTEX
  5
6f1
  8
Layer_2
  10
421.84106
  20
691.96167
  0
VERTEX
  5
6f2
  8
Layer_2
  10
421.47522
  20
692.33466
  0
VERTEX
  5
6f3
  8
Layer_2
  10
421.08984
  20
692.6842
  0
VERTEX
  5
6f4
  8
Layer_2
  10
420.68616
  20
693.00964
  0
VERTEX
  5
6f5
  8
Layer_2
  10
420.26514
  20
693.31024
  0
VERTEX
  5
6f6
  8
Layer_2
  10
419.82806
  20
693.58539
  0
VERTEX
  5
6f7
  8
Layer_2
  10
419.3761
  20
693.83441
  0
VERTEX
  5
6f8
  8
Layer_2
  10
418.91028
  20
694.05658
  0
VERTEX
  5
6f9
  8
Layer_2
  10
418.43176
  20
694.25122
  0
VERTEX
  5
6fa
  8
Layer_2
  10
417.94183
  20
694.41772
  0
VERTEX
  5
6fb
  8
Layer_2
  10
417.44153
  20
694.5553
  0
VERTEX
  5
6fc
  8
Layer_2
  10
416.93201
  20
694.66339
  0
VERTEX
  5
6fd
  8
Layer_2
  10
416.41443
  20
694.74121
  0
VERTEX
  5
6fe
  8
Layer_2
  10
415.89001
  20
694.78821
  0
VERTEX
  5
6ff
  8
Layer_2
  10
415.57477
  20
694.8208
  0
VERTEX
  5
700
  8
Layer_2
  10
415.258
  20
694.8288
  0
VERTEX
  5
701
  8
Layer_2
  10
211.03406
  20
694.8288
  0
VERTEX
  5
702
  8
Layer_2
  10
210.25415
  20
694.78711
  0
VERTEX
  5
703
  8
Layer_2
  10
209.4812
  20
694.68347
  0
VERTEX
  5
704
  8
Layer_2
  10
208.71863
  20
694.51843
  0
VERTEX
  5
705
  8
Layer_2
  10
207.96997
  20
694.29248
  0
VERTEX
  5
706
  8
Layer_2
  10
207.18555
  20
693.97339
  0
VERTEX
  5
707
  8
Layer_2
  10
206.44043
  20
693.58112
  0
VERTEX
  5
708
  8
Layer_2
  10
205.73926
  20
693.11963
  0
VERTEX
  5
709
  8
Layer_2
  10
205.08679
  20
692.5929
  0
VERTEX
  5
70a
  8
Layer_2
  10
204.48706
  20
692.00488
  0
VERTEX
  5
70b
  8
Layer_2
  10
203.94482
  20
691.35956
  0
VERTEX
  5
70c
  8
Layer_2
  10
203.46436
  20
690.66077
  0
VERTEX
  5
70d
  8
Layer_2
  10
203.05005
  20
689.9126
  0
VERTEX
  5
70e
  8
Layer_2
  10
202.74011
  20
689.16028
  0
VERTEX
  5
70f
  8
Layer_2
  10
202.45789
  20
688.39703
  0
VERTEX
  5
710
  8
Layer_2
  10
202.20374
  20
687.62366
  0
VERTEX
  5
711
  8
Layer_2
  10
201.97803
  20
686.841
  0
VERTEX
  5
712
  8
Layer_2
  10
201.61328
  20
685.5343
  0
VERTEX
  5
713
  8
Layer_2
  10
201.29004
  20
684.21637
  0
VERTEX
  5
714
  8
Layer_2
  10
199.78528
  20
676.89063
  0
VERTEX
  5
715
  8
Layer_2
  10
198.24207
  20
669.57343
  0
VERTEX
  5
716
  8
Layer_2
  10
197.66907
  20
666.63818
  0
VERTEX
  5
717
  8
Layer_2
  10
197.12598
  20
663.69727
  0
VERTEX
  5
718
  8
Layer_2
  10
196.61292
  20
660.75085
  0
VERTEX
  5
719
  8
Layer_2
  10
196.13
  20
657.79895
  0
VERTEX
  5
71a
  8
Layer_2
  10
195.0238
  20
650.71521
  0
VERTEX
  5
71b
  8
Layer_2
  10
194.00171
  20
643.61884
  0
VERTEX
  5
71c
  8
Layer_2
  10
193.06372
  20
636.5105
  0
VERTEX
  5
71d
  8
Layer_2
  10
192.20996
  20
629.39075
  0
VERTEX
  5
71e
  8
Layer_2
  10
191.54468
  20
623.41571
  0
VERTEX
  5
71f
  8
Layer_2
  10
190.9292
  20
617.43555
  0
VERTEX
  5
720
  8
Layer_2
  10
190.3634
  20
611.45056
  0
VERTEX
  5
721
  8
Layer_2
  10
189.84741
  20
605.46112
  0
VERTEX
  5
722
  8
Layer_2
  10
189.38123
  20
599.46741
  0
VERTEX
  5
723
  8
Layer_2
  10
188.96484
  20
593.46985
  0
VERTEX
  5
724
  8
Layer_2
  10
188.59839
  20
587.46863
  0
VERTEX
  5
725
  8
Layer_2
  10
188.28198
  20
581.46411
  0
VERTEX
  5
726
  8
Layer_2
  10
188.19434
  20
578.5556
  0
VERTEX
  5
727
  8
Layer_2
  10
188.16199
  20
575.64594
  0
VERTEX
  5
728
  8
Layer_2
  10
188.17004
  20
575.45093
  0
SEQEND
  0
POLYLINE
  5
72a
  8
Layer_2
  62
0
  70
1
  66
1
  10
0
  20
0
  30
0
  0
VERTEX
  5
72a
  8
Layer_2
  10
411.31091
  20
662.90857
  0
VERTEX
  5
72b
  8
Layer_2
  10
411.41809
  20
662.9342
  0
VERTEX
  5
72c
  8
Layer_2
  10
411.53851
  20
662.99567
  0
VERTEX
  5
72d
  8
Layer_2
  10
411.67029
  20
663.08777
  0
VERTEX
  5
72e
  8
Layer_2
  10
411.81128
  20
663.20532
  0
VERTEX
  5
72f
  8
Layer_2
  10
412.1134
  20
663.49689
  0
VERTEX
  5
730
  8
Layer_2
  10
412.42908
  20
663.82953
  0
VERTEX
  5
731
  8
Layer_2
  10
412.74255
  20
664.16266
  0
VERTEX
  5
732
  8
Layer_2
  10
413.03821
  20
664.45557
  0
VERTEX
  5
733
  8
Layer_2
  10
413.17432
  20
664.57422
  0
VERTEX
  5
734
  8
Layer_2
  10
413.30005
  20
664.66748
  0
VERTEX
  5
735
  8
Layer_2
  10
413.41345
  20
664.73041
  0
VERTEX
  5
736
  8
Layer_2
  10
413.51245
  20
664.75781
  0
VERTEX
  5
737
  8
Layer_2
  10
413.6203
  20
664.7467
  0
VERTEX
  5
738
  8
Layer_2
  10
413.75037
  20
664.70007
  0
VERTEX
  5
739
  8
Layer_2
  10
413.89935
  20
664.62329
  0
VERTEX
  5
73a
  8
Layer_2
  10
414.06396
  20
664.52191
  0
VERTEX
  5
73b
  8
Layer_2
  10
414.42712
  20
664.26654
  0
VERTEX
  5
73c
  8
Layer_2
  10
414.81372
  20
663.97705
  0
VERTEX
  5
73d
  8
Layer_2
  10
415.19775
  20
663.69653
  0
VERTEX
  5
73e
  8
Layer_2
  10
415.55304
  20
663.46814
  0
VERTEX
  5
73f
  8
Layer_2
  10
415.71179
  20
663.38696
  0
VERTEX
  5
740
  8
Layer_2
  10
415.85352
  20
663.33496
  0
VERTEX
  5
741
  8
Layer_2
  10
415.97504
  20
663.31757
  0
VERTEX
  5
742
  8
Layer_2
  10
416.07306
  20
663.34015
  0
VERTEX
  5
743
  8
Layer_2
  10
416.14777
  20
663.40747
  0
VERTEX
  5
744
  8
Layer_2
  10
416.20319
  20
663.51703
  0
VERTEX
  5
745
  8
Layer_2
  10
416.24182
  20
663.66296
  0
VERTEX
  5
746
  8
Layer_2
  10
416.26636
  20
663.83954
  0
VERTEX
  5
747
  8
Layer_2
  10
416.28302
  20
664.2616
  0
VERTEX
  5
748
  8
Layer_2
  10
416.27344
  20
664.73706
  0
VERTEX
  5
749
  8
Layer_2
  10
416.258
  20
665.21985
  0
VERTEX
  5
74a
  8
Layer_2
  10
416.25708
  20
665.66382
  0
VERTEX
  5
74b
  8
Layer_2
  10
416.26843
  20
665.85681
  0
VERTEX
  5
74c
  8
Layer_2
  10
416.29095
  20
666.02289
  0
VERTEX
  5
74d
  8
Layer_2
  10
416.32733
  20
666.15613
  0
VERTEX
  5
74e
  8
Layer_2
  10
416.38007
  20
666.25092
  0
VERTEX
  5
74f
  8
Layer_2
  10
416.46423
  20
666.31927
  0
VERTEX
  5
750
  8
Layer_2
  10
416.58917
  20
666.3783
  0
VERTEX
  5
751
  8
Layer_2
  10
416.74878
  20
666.42932
  0
VERTEX
  5
752
  8
Layer_2
  10
416.93689
  20
666.474
  0
VERTEX
  5
753
  8
Layer_2
  10
417.37427
  20
666.55029
  0
VERTEX
  5
754
  8
Layer_2
  10
417.85229
  20
666.61896
  0
VERTEX
  5
755
  8
Layer_2
  10
418.32214
  20
666.6922
  0
VERTEX
  5
756
  8
Layer_2
  10
418.73486
  20
666.78192
  0
VERTEX
  5
757
  8
Layer_2
  10
418.90448
  20
666.83679
  0
VERTEX
  5
758
  8
Layer_2
  10
419.0415
  20
666.90027
  0
VERTEX
  5
759
  8
Layer_2
  10
419.13977
  20
666.97388
  0
VERTEX
  5
75a
  8
Layer_2
  10
419.19305
  20
667.05914
  0
VERTEX
  5
75b
  8
Layer_2
  10
419.19824
  20
667.15961
  0
VERTEX
  5
75c
  8
Layer_2
  10
419.16003
  20
667.27625
  0
VERTEX
  5
75d
  8
Layer_2
  10
419.08423
  20
667.4068
  0
VERTEX
  5
75e
  8
Layer_2
  10
418.97662
  20
667.54901
  0
VERTEX
  5
75f
  8
Layer_2
  10
418.68994
  20
667.85919
  0
VERTEX
  5
760
  8
Layer_2
  10
418.34698
  20
668.18866
  0
VERTEX
  5
761
  8
Layer_2
  10
417.99469
  20
668.5191
  0
VERTEX
  5
762
  8
Layer_2
  10
417.68011
  20
668.8324
  0
VERTEX
  5
763
  8
Layer_2
  10
417.5517
  20
668.97687
  0
VERTEX
  5
764
  8
Layer_2
  10
417.45026
  20
669.11023
  0
VERTEX
  5
765
  8
Layer_2
  10
417.38171
  20
669.23022
  0
VERTEX
  5
766
  8
Layer_2
  10
417.35199
  20
669.33447
  0
VERTEX
  5
767
  8
Layer_2
  10
417.36316
  20
669.44232
  0
VERTEX
  5
768
  8
Layer_2
  10
417.40979
  20
669.57239
  0
VERTEX
  5
769
  8
Layer_2
  10
417.48651
  20
669.72131
  0
VERTEX
  5
76a
  8
Layer_2
  10
417.58789
  20
669.88599
  0
VERTEX
  5
76b
  8
Layer_2
  10
417.84326
  20
670.24915
  0
VERTEX
  5
76c
  8
Layer_2
  10
418.13281
  20
670.6358
  0
VERTEX
  5
76d
  8
Layer_2
  10
418.41339
  20
671.01984
  0
VERTEX
  5
76e
  8
Layer_2
  10
418.64178
  20
671.37512
  0
VERTEX
  5
76f
  8
Layer_2
  10
418.72296
  20
671.53387
  0
VERTEX
  5
770
  8
Layer_2
  10
418.7749
  20
671.67566
  0
VERTEX
  5
771
  8
Layer_2
  10
418.7923
  20
671.79712
  0
VERTEX
  5
772
  8
Layer_2
  10
418.76978
  20
671.89514
  0
VERTEX
  5
773
  8
Layer_2
  10
418.70239
  20
671.96985
  0
VERTEX
  5
774
  8
Layer_2
  10
418.5929
  20
672.02533
  0
VERTEX
  5
775
  8
Layer_2
  10
418.4469
  20
672.06403
  0
VERTEX
  5
776
  8
Layer_2
  10
418.27032
  20
672.0885
  0
VERTEX
  5
777
  8
Layer_2
  10
417.84827
  20
672.10516
  0
VERTEX
  5
778
  8
Layer_2
  10
417.3728
  20
672.09558
  0
VERTEX
  5
779
  8
Layer_2
  10
416.89001
  20
672.08014
  0
VERTEX
  5
77a
  8
Layer_2
  10
416.44604
  20
672.07922
  0
VERTEX
  5
77b
  8
Layer_2
  10
416.25305
  20
672.09052
  0
VERTEX
  5
77c
  8
Layer_2
  10
416.08698
  20
672.1131
  0
VERTEX
  5
77d
  8
Layer_2
  10
415.95367
  20
672.14948
  0
VERTEX
  5
77e
  8
Layer_2
  10
415.85895
  20
672.20215
  0
VERTEX
  5
77f
  8
Layer_2
  10
415.79065
  20
672.28632
  0
VERTEX
  5
780
  8
Layer_2
  10
415.73157
  20
672.41125
  0
VERTEX
  5
781
  8
Layer_2
  10
415.68054
  20
672.5708
  0
VERTEX
  5
782
  8
Layer_2
  10
415.63586
  20
672.75897
  0
VERTEX
  5
783
  8
Layer_2
  10
415.55963
  20
673.19635
  0
VERTEX
  5
784
  8
Layer_2
  10
415.49091
  20
673.6745
  0
VERTEX
  5
785
  8
Layer_2
  10
415.41772
  20
674.14441
  0
VERTEX
  5
786
  8
Layer_2
  10
415.328
  20
674.55713
  0
VERTEX
  5
787
  8
Layer_2
  10
415.27319
  20
674.72681
  0
VERTEX
  5
788
  8
Layer_2
  10
415.20972
  20
674.86377
  0
VERTEX
  5
789
  8
Layer_2
  10
415.13611
  20
674.96204
  0
VERTEX
  5
78a
  8
Layer_2
  10
415.05084
  20
675.01538
  0
VERTEX
  5
78b
  8
Layer_2
  10
414.95038
  20
675.02063
  0
VERTEX
  5
78c
  8
Layer_2
  10
414.83374
  20
674.98236
  0
VERTEX
  5
78d
  8
Layer_2
  10
414.70319
  20
674.90649
  0
VERTEX
  5
78e
  8
Layer_2
  10
414.56097
  20
674.79895
  0
VERTEX
  5
78f
  8
Layer_2
  10
414.25079
  20
674.51233
  0
VERTEX
  5
790
  8
Layer_2
  10
413.92139
  20
674.16931
  0
VERTEX
  5
791
  8
Layer_2
  10
413.59088
  20
673.81708
  0
VERTEX
  5
792
  8
Layer_2
  10
413.27759
  20
673.50244
  0
VERTEX
  5
793
  8
Layer_2
  10
413.13312
  20
673.37402
  0
VERTEX
  5
794
  8
Layer_2
  10
412.99976
  20
673.27258
  0
VERTEX
  5
795
  8
Layer_2
  10
412.87976
  20
673.20404
  0
VERTEX
  5
796
  8
Layer_2
  10
412.77551
  20
673.17432
  0
VERTEX
  5
797
  8
Layer_2
  10
412.66766
  20
673.18542
  0
VERTEX
  5
798
  8
Layer_2
  10
412.5376
  20
673.23206
  0
VERTEX
  5
799
  8
Layer_2
  10
412.38861
  20
673.30884
  0
VERTEX
  5
79a
  8
Layer_2
  10
412.224
  20
673.41022
  0
VERTEX
  5
79b
  8
Layer_2
  10
411.86084
  20
673.66559
  0
VERTEX
  5
79c
  8
Layer_2
  10
411.47424
  20
673.95508
  0
VERTEX
  5
79d
  8
Layer_2
  10
411.09021
  20
674.2356
  0
VERTEX
  5
79e
  8
Layer_2
  10
410.73499
  20
674.46399
  0
VERTEX
  5
79f
  8
Layer_2
  10
410.57629
  20
674.54517
  0
VERTEX
  5
7a0
  8
Layer_2
  10
410.43451
  20
674.59717
  0
VERTEX
  5
7a1
  8
Layer_2
  10
410.31299
  20
674.61456
  0
VERTEX
  5
7a2
  8
Layer_2
  10
410.21497
  20
674.59204
  0
VERTEX
  5
7a3
  8
Layer_2
  10
410.14032
  20
674.52466
  0
VERTEX
  5
7a4
  8
Layer_2
  10
410.08484
  20
674.4151
  0
VERTEX
  5
7a5
  8
Layer_2
  10
410.04614
  20
674.26917
  0
VERTEX
  5
7a6
  8
Layer_2
  10
410.02161
  20
674.09259
  0
VERTEX
  5
7a7
  8
Layer_2
  10
410.00494
  20
673.67053
  0
VERTEX
  5
7a8
  8
Layer_2
  10
410.01453
  20
673.19507
  0
VERTEX
  5
7a9
  8
Layer_2
  10
410.02997
  20
672.71228
  0
VERTEX
  5
7aa
  8
Layer_2
  10
410.03088
  20
672.26831
  0
VERTEX
  5
7ab
  8
Layer_2
  10
410.01953
  20
672.07532
  0
VERTEX
  5
7ac
  8
Layer_2
  10
409.99701
  20
671.9093
  0
VERTEX
  5
7ad
  8
Layer_2
  10
409.96063
  20
671.776
  0
VERTEX
  5
7ae
  8
Layer_2
  10
409.9079
  20
671.68127
  0
VERTEX
  5
7af
  8
Layer_2
  10
409.82373
  20
671.61292
  0
VERTEX
  5
7b0
  8
Layer_2
  10
409.69879
  20
671.55389
  0
VERTEX
  5
7b1
  8
Layer_2
  10
409.53918
  20
671.50281
  0
VERTEX
  5
7b2
  8
Layer_2
  10
409.35107
  20
671.45813
  0
VERTEX
  5
7b3
  8
Layer_2
  10
408.9137
  20
671.3819
  0
VERTEX
  5
7b4
  8
Layer_2
  10
408.43561
  20
671.31317
  0
VERTEX
  5
7b5
  8
Layer_2
  10
407.9657
  20
671.23999
  0
VERTEX
  5
7b6
  8
Layer_2
  10
407.55298
  20
671.15021
  0
VERTEX
  5
7b7
  8
Layer_2
  10
407.38336
  20
671.0954
  0
VERTEX
  5
7b8
  8
Layer_2
  10
407.24634
  20
671.03192
  0
VERTEX
  5
7b9
  8
Layer_2
  10
407.14807
  20
670.95825
  0
VERTEX
  5
7ba
  8
Layer_2
  10
407.09479
  20
670.87305
  0
VERTEX
  5
7bb
  8
Layer_2
  10
407.0896
  20
670.77258
  0
VERTEX
  5
7bc
  8
Layer_2
  10
407.12781
  20
670.65588
  0
VERTEX
  5
7bd
  8
Layer_2
  10
407.20361
  20
670.52539
  0
VERTEX
  5
7be
  8
Layer_2
  10
407.31122
  20
670.38318
  0
VERTEX
  5
7bf
  8
Layer_2
  10
407.5979
  20
670.073
  0
VERTEX
  5
7c0
  8
Layer_2
  10
407.94086
  20
669.74353
  0
VERTEX
  5
7c1
  8
Layer_2
  10
408.29315
  20
669.41309
  0
VERTEX
  5
7c2
  8
Layer_2
  10
408.60773
  20
669.09979
  0
VERTEX
  5
7c3
  8
Layer_2
  10
408.73615
  20
668.95532
  0
VERTEX
  5
7c4
  8
Layer_2
  10
408.83759
  20
668.8219
  0
VERTEX
  5
7c5
  8
Layer_2
  10
408.90613
  20
668.70197
  0
VERTEX
  5
7c6
  8
Layer_2
  10
408.93585
  20
668.59766
  0
VERTEX
  5
7c7
  8
Layer_2
  10
408.92468
  20
668.48987
  0
VERTEX
  5
7c8
  8
Layer_2
  10
408.87805
  20
668.3598
  0
VERTEX
  5
7c9
  8
Layer_2
  10
408.80133
  20
668.21082
  0
VERTEX
  5
7ca
  8
Layer_2
  10
408.69995
  20
668.0462
  0
VERTEX
  5
7cb
  8
Layer_2
  10
408.44458
  20
667.68298
  0
VERTEX
  5
7cc
  8
Layer_2
  10
408.15509
  20
667.29639
  0
VERTEX
  5
7cd
  8
Layer_2
  10
407.87463
  20
666.91235
  0
VERTEX
  5
7ce
  8
Layer_2
  10
407.64624
  20
666.55701
  0
VERTEX
  5
7cf
  8
Layer_2
  10
407.56506
  20
666.39832
  0
VERTEX
  5
7d0
  8
Layer_2
  10
407.51306
  20
666.25653
  0
VERTEX
  5
7d1
  8
Layer_2
  10
407.49567
  20
666.13501
  0
VERTEX
  5
7d2
  8
Layer_2
  10
407.51825
  20
666.03699
  0
VERTEX
  5
7d3
  8
Layer_2
  10
407.58569
  20
665.96228
  0
VERTEX
  5
7d4
  8
Layer_2
  10
407.69519
  20
665.90686
  0
VERTEX
  5
7d5
  8
Layer_2
  10
407.84106
  20
665.86816
  0
VERTEX
  5
7d6
  8
Layer_2
  10
408.01764
  20
665.84363
  0
VERTEX
  5
7d7
  8
Layer_2
  10
408.4397
  20
665.82697
  0
VERTEX
  5
7d8
  8
Layer_2
  10
408.91516
  20
665.83655
  0
VERTEX
  5
7d9
  8
Layer_2
  10
409.39795
  20
665.85199
  0
VERTEX
  5
7da
  8
Layer_2
  10
409.84192
  20
665.85291
  0
VERTEX
  5
7db
  8
Layer_2
  10
410.03491
  20
665.84161
  0
VERTEX
  5
7dc
  8
Layer_2
  10
410.20093
  20
665.81903
  0
VERTEX
  5
7dd
  8
Layer_2
  10
410.33417
  20
665.78271
  0
VERTEX
  5
7de
  8
Layer_2
  10
410.42896
  20
665.72998
  0
VERTEX
  5
7df
  8
Layer_2
  10
410.49731
  20
665.64581
  0
VERTEX
  5
7e0
  8
Layer_2
  10
410.55627
  20
665.52087
  0
VERTEX
  5
7e1
  8
Layer_2
  10
410.6073
  20
665.36133
  0
VERTEX
  5
7e2
  8
Layer_2
  10
410.6521
  20
665.17322
  0
VERTEX
  5
7e3
  8
Layer_2
  10
410.72833
  20
664.73578
  0
VERTEX
  5
7e4
  8
Layer_2
  10
410.797
  20
664.25769
  0
VERTEX
  5
7e5
  8
Layer_2
  10
410.87024
  20
663.78772
  0
VERTEX
  5
7e6
  8
Layer_2
  10
410.95996
  20
663.375
  0
VERTEX
  5
7e7
  8
Layer_2
  10
411.01477
  20
663.20532
  0
VERTEX
  5
7e8
  8
Layer_2
  10
411.07825
  20
663.06836
  0
VERTEX
  5
7e9
  8
Layer_2
  10
411.15198
  20
662.97009
  0
VERTEX
  5
7ea
  8
Layer_2
  10
411.23718
  20
662.91675
  0
VERTEX
  5
7eb
  8
Layer_2
  10
411.27277
  20
662.90942
  0
VERTEX
  5
7ec
  8
Layer_2
  10
411.31091
  20
662.90857
  0
SEQEND
  0
POLYLINE
  5
7ee
  8
Layer_2
  62
0
  70
1
  66
1
  10
0
  20
0
  30
0
  0
VERTEX
  5
7ee
  8
Layer_2
  10
210.28662
  20
663.3147
  0
VERTEX
  5
7ef
  8
Layer_2
  10
210.39648
  20
663.32141
  0
VERTEX
  5
7f0
  8
Layer_2
  10
210.52588
  20
663.36102
  0
VERTEX
  5
7f1
  8
Layer_2
  10
210.67139
  20
663.42883
  0
VERTEX
  5
7f2
  8
Layer_2
  10
210.83081
  20
663.52014
  0
VERTEX
  5
7f3
  8
Layer_2
  10
211.17896
  20
663.75476
  0
VERTEX
  5
7f4
  8
Layer_2
  10
211.54773
  20
664.02759
  0
VERTEX
  5
7f5
  8
Layer_2
  10
211.91431
  20
664.30115
  0
VERTEX
  5
7f6
  8
Layer_2
  10
212.25635
  20
664.53833
  0
VERTEX
  5
7f7
  8
Layer_2
  10
212.41113
  20
664.63147
  0
VERTEX
  5
7f8
  8
Layer_2
  10
212.55103
  20
664.70154
  0
VERTEX
  5
7f9
  8
Layer_2
  10
212.67358
  20
664.74384
  0
VERTEX
  5
7fa
  8
Layer_2
  10
212.77588
  20
664.75366
  0
VERTEX
  5
7fb
  8
Layer_2
  10
212.88013
  20
664.72394
  0
VERTEX
  5
7fc
  8
Layer_2
  10
213.00012
  20
664.6554
  0
VERTEX
  5
7fd
  8
Layer_2
  10
213.13354
  20
664.55396
  0
VERTEX
  5
7fe
  8
Layer_2
  10
213.27795
  20
664.42554
  0
VERTEX
  5
7ff
  8
Layer_2
  10
213.59131
  20
664.11096
  0
VERTEX
  5
800
  8
Layer_2
  10
213.92188
  20
663.75873
  0
VERTEX
  5
801
  8
Layer_2
  10
214.25122
  20
663.41577
  0
VERTEX
  5
802
  8
Layer_2
  10
214.56152
  20
663.12915
  0
VERTEX
  5
803
  8
Layer_2
  10
214.70361
  20
663.02167
  0
VERTEX
  5
804
  8
Layer_2
  10
214.83423
  20
662.94586
  0
VERTEX
  5
805
  8
Layer_2
  10
214.95093
  20
662.90759
  0
VERTEX
  5
806
  8
Layer_2
  10
215.05139
  20
662.91284
  0
VERTEX
  5
807
  8
Layer_2
  10
215.13672
  20
662.96619
  0
VERTEX
  5
808
  8
Layer_2
  10
215.21033
  20
663.06445
  0
VERTEX
  5
809
  8
Layer_2
  10
215.2738
  20
663.20142
  0
VERTEX
  5
80a
  8
Layer_2
  10
215.32861
  20
663.37109
  0
VERTEX
  5
80b
  8
Layer_2
  10
215.41833
  20
663.78381
  0
VERTEX
  5
80c
  8
Layer_2
  10
215.49146
  20
664.25378
  0
VERTEX
  5
80d
  8
Layer_2
  10
215.56006
  20
664.73187
  0
VERTEX
  5
80e
  8
Layer_2
  10
215.63623
  20
665.16931
  0
VERTEX
  5
80f
  8
Layer_2
  10
215.68091
  20
665.35742
  0
VERTEX
  5
810
  8
Layer_2
  10
215.73193
  20
665.51697
  0
VERTEX
  5
811
  8
Layer_2
  10
215.79089
  20
665.64197
  0
VERTEX
  5
812
  8
Layer_2
  10
215.85925
  20
665.72607
  0
VERTEX
  5
813
  8
Layer_2
  10
215.95386
  20
665.77881
  0
VERTEX
  5
814
  8
Layer_2
  10
216.08716
  20
665.81519
  0
VERTEX
  5
815
  8
Layer_2
  10
216.2533
  20
665.83777
  0
VERTEX
  5
816
  8
Layer_2
  10
216.44629
  20
665.84912
  0
VERTEX
  5
817
  8
Layer_2
  10
216.89014
  20
665.84827
  0
VERTEX
  5
818
  8
Layer_2
  10
217.37292
  20
665.83289
  0
VERTEX
  5
819
  8
Layer_2
  10
217.84839
  20
665.82336
  0
VERTEX
  5
81a
  8
Layer_2
  10
218.27039
  20
665.84009
  0
VERTEX
  5
81b
  8
Layer_2
  10
218.4469
  20
665.86462
  0
VERTEX
  5
81c
  8
Layer_2
  10
218.5929
  20
665.90338
  0
VERTEX
  5
81d
  8
Layer_2
  10
218.70239
  20
665.95886
  0
VERTEX
  5
81e
  8
Layer_2
  10
218.7699
  20
666.03357
  0
VERTEX
  5
81f
  8
Layer_2
  10
218.79248
  20
666.13159
  0
VERTEX
  5
820
  8
Layer_2
  10
218.77515
  20
666.25311
  0
VERTEX
  5
821
  8
Layer_2
  10
218.72314
  20
666.3949
  0
VERTEX
  5
822
  8
Layer_2
  10
218.64185
  20
666.55359
  0
VERTEX
  5
823
  8
Layer_2
  10
218.41333
  20
666.90881
  0
VERTEX
  5
824
  8
Layer_2
  10
218.13281
  20
667.29285
  0
VERTEX
  5
825
  8
Layer_2
  10
217.84326
  20
667.67944
  0
VERTEX
  5
826
  8
Layer_2
  10
217.58789
  20
668.0426
  0
VERTEX
  5
827
  8
Layer_2
  10
217.48633
  20
668.20715
  0
VERTEX
  5
828
  8
Layer_2
  10
217.40967
  20
668.35614
  0
VERTEX
  5
829
  8
Layer_2
  10
217.36304
  20
668.48621
  0
VERTEX
  5
82a
  8
Layer_2
  10
217.35181
  20
668.59406
  0
VERTEX
  5
82b
  8
Layer_2
  10
217.38159
  20
668.6983
  0
VERTEX
  5
82c
  8
Layer_2
  10
217.4502
  20
668.81824
  0
VERTEX
  5
82d
  8
Layer_2
  10
217.55151
  20
668.95166
  0
VERTEX
  5
82e
  8
Layer_2
  10
217.67993
  20
669.09619
  0
VERTEX
  5
82f
  8
Layer_2
  10
217.99463
  20
669.40948
  0
VERTEX
  5
830
  8
Layer_2
  10
218.34668
  20
669.73999
  0
VERTEX
  5
831
  8
Layer_2
  10
218.6897
  20
670.06946
  0
VERTEX
  5
832
  8
Layer_2
  10
218.97632
  20
670.37976
  0
VERTEX
  5
833
  8
Layer_2
  10
219.08386
  20
670.52197
  0
VERTEX
  5
834
  8
Layer_2
  10
219.15967
  20
670.65253
  0
VERTEX
  5
835
  8
Layer_2
  10
219.19788
  20
670.76917
  0
VERTEX
  5
836
  8
Layer_2
  10
219.19275
  20
670.86963
  0
VERTEX
  5
837
  8
Layer_2
  10
219.1394
  20
670.9549
  0
VERTEX
  5
838
  8
Layer_2
  10
219.04126
  20
671.0285
  0
VERTEX
  5
839
  8
Layer_2
  10
218.9043
  20
671.09192
  0
VERTEX
  5
83a
  8
Layer_2
  10
218.7345
  20
671.14673
  0
VERTEX
  5
83b
  8
Layer_2
  10
218.32178
  20
671.23645
  0
VERTEX
  5
83c
  8
Layer_2
  10
217.85181
  20
671.30957
  0
VERTEX
  5
83d
  8
Layer_2
  10
217.37378
  20
671.37817
  0
VERTEX
  5
83e
  8
Layer_2
  10
216.93628
  20
671.45435
  0
VERTEX
  5
83f
  8
Layer_2
  10
216.74805
  20
671.49902
  0
VERTEX
  5
840
  8
Layer_2
  10
216.5885
  20
671.55011
  0
VERTEX
  5
841
  8
Layer_2
  10
216.46362
  20
671.60907
  0
VERTEX
  5
842
  8
Layer_2
  10
216.37939
  20
671.67743
  0
VERTEX
  5
843
  8
Layer_2
  10
216.32666
  20
671.77222
  0
VERTEX
  5
844
  8
Layer_2
  10
216.29028
  20
671.90546
  0
VERTEX
  5
845
  8
Layer_2
  10
216.2677
  20
672.07147
  0
VERTEX
  5
846
  8
Layer_2
  10
216.25635
  20
672.26453
  0
VERTEX
  5
847
  8
Layer_2
  10
216.25732
  20
672.7085
  0
VERTEX
  5
848
  8
Layer_2
  10
216.27271
  20
673.19128
  0
VERTEX
  5
849
  8
Layer_2
  10
216.28223
  20
673.66675
  0
VERTEX
  5
84a
  8
Layer_2
  10
216.26563
  20
674.08881
  0
VERTEX
  5
84b
  8
Layer_2
  10
216.24097
  20
674.26538
  0
VERTEX
  5
84c
  8
Layer_2
  10
216.20227
  20
674.41138
  0
VERTEX
  5
84d
  8
Layer_2
  10
216.14685
  20
674.52087
  0
VERTEX
  5
84e
  8
Layer_2
  10
216.07214
  20
674.58826
  0
VERTEX
  5
84f
  8
Layer_2
  10
215.97412
  20
674.61084
  0
VERTEX
  5
850
  8
Layer_2
  10
215.85254
  20
674.59338
  0
VERTEX
  5
851
  8
Layer_2
  10
215.71069
  20
674.54138
  0
VERTEX
  5
852
  8
Layer_2
  10
215.552
  20
674.46021
  0
VERTEX
  5
853
  8
Layer_2
  10
215.1969
  20
674.23169
  0
VERTEX
  5
854
  8
Layer_2
  10
214.81287
  20
673.95117
  0
VERTEX
  5
855
  8
Layer_2
  10
214.42627
  20
673.66162
  0
VERTEX
  5
856
  8
Layer_2
  10
214.06311
  20
673.40619
  0
VERTEX
  5
857
  8
Layer_2
  10
213.89868
  20
673.30475
  0
VERTEX
  5
858
  8
Layer_2
  10
213.74963
  20
673.22803
  0
VERTEX
  5
859
  8
Layer_2
  10
213.61963
  20
673.1814
  0
VERTEX
  5
85a
  8
Layer_2
  10
213.51172
  20
673.17017
  0
VERTEX
  5
85b
  8
Layer_2
  10
213.40747
  20
673.19995
  0
VERTEX
  5
85c
  8
Layer_2
  10
213.28748
  20
673.26843
  0
VERTEX
  5
85d
  8
Layer_2
  10
213.15405
  20
673.36987
  0
VERTEX
  5
85e
  8
Layer_2
  10
213.00964
  20
673.49829
  0
VERTEX
  5
85f
  8
Layer_2
  10
212.69629
  20
673.81287
  0
VERTEX
  5
860
  8
Layer_2
  10
212.36572
  20
674.1651
  0
VERTEX
  5
861
  8
Layer_2
  10
212.03638
  20
674.50806
  0
VERTEX
  5
862
  8
Layer_2
  10
211.72607
  20
674.79468
  0
VERTEX
  5
863
  8
Layer_2
  10
211.58398
  20
674.90216
  0
VERTEX
  5
864
  8
Layer_2
  10
211.45337
  20
674.97797
  0
VERTEX
  5
865
  8
Layer_2
  10
211.33667
  20
675.01624
  0
VERTEX
  5
866
  8
Layer_2
  10
211.23621
  20
675.01099
  0
VERTEX
  5
867
  8
Layer_2
  10
211.15088
  20
674.95764
  0
VERTEX
  5
868
  8
Layer_2
  10
211.07727
  20
674.85938
  0
VERTEX
  5
869
  8
Layer_2
  10
211.01379
  20
674.72241
  0
VERTEX
  5
86a
  8
Layer_2
  10
210.95898
  20
674.55273
  0
VERTEX
  5
86b
  8
Layer_2
  10
210.86926
  20
674.14001
  0
VERTEX
  5
86c
  8
Layer_2
  10
210.79614
  20
673.6701
  0
VERTEX
  5
86d
  8
Layer_2
  10
210.72754
  20
673.19196
  0
VERTEX
  5
86e
  8
Layer_2
  10
210.65137
  20
672.75458
  0
VERTEX
  5
86f
  8
Layer_2
  10
210.60669
  20
672.56641
  0
VERTEX
  5
870
  8
Layer_2
  10
210.55566
  20
672.40686
  0
VERTEX
  5
871
  8
Layer_2
  10
210.4967
  20
672.28192
  0
VERTEX
  5
872
  8
Layer_2
  10
210.42834
  20
672.19775
  0
VERTEX
  5
873
  8
Layer_2
  10
210.33374
  20
672.14502
  0
VERTEX
  5
874
  8
Layer_2
  10
210.20044
  20
672.10864
  0
VERTEX
  5
875
  8
Layer_2
  10
210.0343
  20
672.08606
  0
VERTEX
  5
876
  8
Layer_2
  10
209.84131
  20
672.07471
  0
VERTEX
  5
877
  8
Layer_2
  10
209.39722
  20
672.07562
  0
VERTEX
  5
878
  8
Layer_2
  10
208.91455
  20
672.09094
  0
VERTEX
  5
879
  8
Layer_2
  10
208.43921
  20
672.10046
  0
VERTEX
  5
87a
  8
Layer_2
  10
208.01709
  20
672.08374
  0
VERTEX
  5
87b
  8
Layer_2
  10
207.84058
  20
672.0592
  0
VERTEX
  5
87c
  8
Layer_2
  10
207.69458
  20
672.02051
  0
VERTEX
  5
87d
  8
Layer_2
  10
207.58521
  20
671.96509
  0
VERTEX
  5
87e
  8
Layer_2
  10
207.5177
  20
671.89032
  0
VERTEX
  5
87f
  8
Layer_2
  10
207.49512
  20
671.7923
  0
VERTEX
  5
880
  8
Layer_2
  10
207.51245
  20
671.67078
  0
VERTEX
  5
881
  8
Layer_2
  10
207.56445
  20
671.52905
  0
VERTEX
  5
882
  8
Layer_2
  10
207.64575
  20
671.37036
  0
VERTEX
  5
883
  8
Layer_2
  10
207.87415
  20
671.01508
  0
VERTEX
  5
884
  8
Layer_2
  10
208.15466
  20
670.6311
  0
VERTEX
  5
885
  8
Layer_2
  10
208.44434
  20
670.24445
  0
VERTEX
  5
886
  8
Layer_2
  10
208.69971
  20
669.88135
  0
VERTEX
  5
887
  8
Layer_2
  10
208.80127
  20
669.71674
  0
VERTEX
  5
888
  8
Layer_2
  10
208.87793
  20
669.56775
  0
VERTEX
  5
889
  8
Layer_2
  10
208.92456
  20
669.43774
  0
VERTEX
  5
88a
  8
Layer_2
  10
208.93567
  20
669.32983
  0
VERTEX
  5
88b
  8
Layer_2
  10
208.90601
  20
669.22559
  0
VERTEX
  5
88c
  8
Layer_2
  10
208.8374
  20
669.10559
  0
VERTEX
  5
88d
  8
Layer_2
  10
208.73596
  20
668.97223
  0
VERTEX
  5
88e
  8
Layer_2
  10
208.60742
  20
668.82776
  0
VERTEX
  5
88f
  8
Layer_2
  10
208.29297
  20
668.5144
  0
VERTEX
  5
890
  8
Layer_2
  10
207.94067
  20
668.1839
  0
VERTEX
  5
891
  8
Layer_2
  10
207.59778
  20
667.85443
  0
VERTEX
  5
892
  8
Layer_2
  10
207.31128
  20
667.54419
  0
VERTEX
  5
893
  8
Layer_2
  10
207.20374
  20
667.40198
  0
VERTEX
  5
894
  8
Layer_2
  10
207.12793
  20
667.27136
  0
VERTEX
  5
895
  8
Layer_2
  10
207.08972
  20
667.15472
  0
VERTEX
  5
896
  8
Layer_2
  10
207.09485
  20
667.05426
  0
VERTEX
  5
897
  8
Layer_2
  10
207.14819
  20
666.96899
  0
VERTEX
  5
898
  8
Layer_2
  10
207.24634
  20
666.89539
  0
VERTEX
  5
899
  8
Layer_2
  10
207.3833
  20
666.83191
  0
VERTEX
  5
89a
  8
Layer_2
  10
207.5531
  20
666.7771
  0
VERTEX
  5
89b
  8
Layer_2
  10
207.96582
  20
666.68744
  0
VERTEX
  5
89c
  8
Layer_2
  10
208.43579
  20
666.61432
  0
VERTEX
  5
89d
  8
Layer_2
  10
208.91382
  20
666.54565
  0
VERTEX
  5
89e
  8
Layer_2
  10
209.35132
  20
666.46948
  0
VERTEX
  5
89f
  8
Layer_2
  10
209.53943
  20
666.4248
  0
VERTEX
  5
8a0
  8
Layer_2
  10
209.69897
  20
666.37378
  0
VERTEX
  5
8a1
  8
Layer_2
  10
209.82397
  20
666.31482
  0
VERTEX
  5
8a2
  8
Layer_2
  10
209.90808
  20
666.24646
  0
VERTEX
  5
8a3
  8
Layer_2
  10
209.96082
  20
666.15173
  0
VERTEX
  5
8a4
  8
Layer_2
  10
209.99719
  20
666.01843
  0
VERTEX
  5
8a5
  8
Layer_2
  10
210.01978
  20
665.85242
  0
VERTEX
  5
8a6
  8
Layer_2
  10
210.03125
  20
665.65936
  0
VERTEX
  5
8a7
  8
Layer_2
  10
210.03027
  20
665.21539
  0
VERTEX
  5
8a8
  8
Layer_2
  10
210.01489
  20
664.7326
  0
VERTEX
  5
8a9
  8
Layer_2
  10
210.00537
  20
664.25708
  0
VERTEX
  5
8aa
  8
Layer_2
  10
210.02197
  20
663.83508
  0
VERTEX
  5
8ab
  8
Layer_2
  10
210.04663
  20
663.65845
  0
VERTEX
  5
8ac
  8
Layer_2
  10
210.08533
  20
663.51251
  0
VERTEX
  5
8ad
  8
Layer_2
  10
210.14075
  20
663.40302
  0
VERTEX
  5
8ae
  8
Layer_2
  10
210.21545
  20
663.33563
  0
VERTEX
  5
8af
  8
Layer_2
  10
210.24927
  20
663.32227
  0
VERTEX
  5
8b0
  8
Layer_2
  10
210.28662
  20
663.3147
  0
SEQEND
  0
POLYLINE
  5
8b2
  8
Layer_2
  62
0
  70
1
  66
1
  10
0
  20
0
  30
0
  0
VERTEX
  5
8b2
  8
Layer_2
  10
443.85394
  20
666.79309
  0
VERTEX
  5
8b3
  8
Layer_2
  10
443.91394
  20
666.66888
  0
VERTEX
  5
8b4
  8
Layer_2
  10
444.00598
  20
666.5531
  0
VERTEX
  5
8b5
  8
Layer_2
  10
444.1994
  20
666.41052
  0
VERTEX
  5
8b6
  8
Layer_2
  10
444.44592
  20
666.31311
  0
VERTEX
  5
8b7
  8
Layer_2
  10
444.64008
  20
666.28015
  0
VERTEX
  5
8b8
  8
Layer_2
  10
444.83795
  20
666.25977
  0
VERTEX
  5
8b9
  8
Layer_2
  10
467.83795
  20
666.25977
  0
VERTEX
  5
8ba
  8
Layer_2
  10
468.03687
  20
666.27728
  0
VERTEX
  5
8bb
  8
Layer_2
  10
468.22998
  20
666.31311
  0
VERTEX
  5
8bc
  8
Layer_2
  10
468.39795
  20
666.3717
  0
VERTEX
  5
8bd
  8
Layer_2
  10
468.53949
  20
666.45868
  0
VERTEX
  5
8be
  8
Layer_2
  10
468.66992
  20
666.5531
  0
VERTEX
  5
8bf
  8
Layer_2
  10
468.75793
  20
666.66504
  0
VERTEX
  5
8c0
  8
Layer_2
  10
468.81378
  20
666.79333
  0
VERTEX
  5
8c1
  8
Layer_2
  10
468.83795
  20
666.92639
  0
VERTEX
  5
8c2
  8
Layer_2
  10
468.83795
  20
667.59302
  0
VERTEX
  5
8c3
  8
Layer_2
  10
468.81396
  20
667.72644
  0
VERTEX
  5
8c4
  8
Layer_2
  10
468.75391
  20
667.84955
  0
VERTEX
  5
8c5
  8
Layer_2
  10
468.66992
  20
667.96643
  0
VERTEX
  5
8c6
  8
Layer_2
  10
468.54785
  20
668.06836
  0
VERTEX
  5
8c7
  8
Layer_2
  10
468.39832
  20
668.15039
  0
VERTEX
  5
8c8
  8
Layer_2
  10
468.22656
  20
668.20984
  0
VERTEX
  5
8c9
  8
Layer_2
  10
468.03796
  20
668.24377
  0
VERTEX
  5
8ca
  8
Layer_2
  10
467.83795
  20
668.25977
  0
VERTEX
  5
8cb
  8
Layer_2
  10
462.06195
  20
668.25977
  0
VERTEX
  5
8cc
  8
Layer_2
  10
461.98669
  20
668.18799
  0
VERTEX
  5
8cd
  8
Layer_2
  10
461.90198
  20
668.12109
  0
VERTEX
  5
8ce
  8
Layer_2
  10
461.74994
  20
668.03577
  0
VERTEX
  5
8cf
  8
Layer_2
  10
461.57367
  20
667.97467
  0
VERTEX
  5
8d0
  8
Layer_2
  10
461.38458
  20
667.93842
  0
VERTEX
  5
8d1
  8
Layer_2
  10
461.18817
  20
667.92676
  0
VERTEX
  5
8d2
  8
Layer_2
  10
460.98999
  20
667.9397
  0
VERTEX
  5
8d3
  8
Layer_2
  10
460.80591
  20
667.97705
  0
VERTEX
  5
8d4
  8
Layer_2
  10
460.63757
  20
668.04053
  0
VERTEX
  5
8d5
  8
Layer_2
  10
460.48596
  20
668.12109
  0
VERTEX
  5
8d6
  8
Layer_2
  10
460.36597
  20
668.21704
  0
VERTEX
  5
8d7
  8
Layer_2
  10
460.32593
  20
668.25977
  0
VERTEX
  5
8d8
  8
Layer_2
  10
452.34192
  20
668.25977
  0
VERTEX
  5
8d9
  8
Layer_2
  10
452.30994
  20
668.21704
  0
VERTEX
  5
8da
  8
Layer_2
  10
452.06488
  20
668.0531
  0
VERTEX
  5
8db
  8
Layer_2
  10
451.76074
  20
667.95483
  0
VERTEX
  5
8dc
  8
Layer_2
  10
451.42517
  20
667.92773
  0
VERTEX
  5
8dd
  8
Layer_2
  10
451.08594
  20
667.97705
  0
VERTEX
  5
8de
  8
Layer_2
  10
450.82025
  20
668.09644
  0
VERTEX
  5
8df
  8
Layer_2
  10
450.61395
  20
668.25977
  0
VERTEX
  5
8e0
  8
Layer_2
  10
444.83795
  20
668.25977
  0
VERTEX
  5
8e1
  8
Layer_2
  10
444.63794
  20
668.24377
  0
VERTEX
  5
8e2
  8
Layer_2
  10
444.45142
  20
668.20593
  0
VERTEX
  5
8e3
  8
Layer_2
  10
444.28052
  20
668.14624
  0
VERTEX
  5
8e4
  8
Layer_2
  10
444.13025
  20
668.06598
  0
VERTEX
  5
8e5
  8
Layer_2
  10
444.00598
  20
667.96643
  0
VERTEX
  5
8e6
  8
Layer_2
  10
443.91797
  20
667.85437
  0
VERTEX
  5
8e7
  8
Layer_2
  10
443.85394
  20
667.72644
  0
VERTEX
  5
8e8
  8
Layer_2
  10
443.83795
  20
667.59302
  0
VERTEX
  5
8e9
  8
Layer_2
  10
443.83795
  20
666.92639
  0
VERTEX
  5
8ea
  8
Layer_2
  10
443.85394
  20
666.79309
  0
SEQEND
  0
POLYLINE
  5
8ec
  8
Layer_2
  62
0
  70
1
  66
1
  10
0
  20
0
  30
0
  0
VERTEX
  5
8ec
  8
Layer_2
  10
444.83801
  20
675.29303
  0
VERTEX
  5
8ed
  8
Layer_2
  10
450.61401
  20
675.29303
  0
VERTEX
  5
8ee
  8
Layer_2
  10
450.7688
  20
675.15436
  0
VERTEX
  5
8ef
  8
Layer_2
  10
450.95001
  20
675.03503
  0
VERTEX
  5
8f0
  8
Layer_2
  10
451.18262
  20
674.96069
  0
VERTEX
  5
8f1
  8
Layer_2
  10
451.42999
  20
674.92102
  0
VERTEX
  5
8f2
  8
Layer_2
  10
451.59924
  20
674.92578
  0
VERTEX
  5
8f3
  8
Layer_2
  10
451.76404
  20
674.9516
  0
VERTEX
  5
8f4
  8
Layer_2
  10
451.92175
  20
674.99664
  0
VERTEX
  5
8f5
  8
Layer_2
  10
452.07001
  20
675.05908
  0
VERTEX
  5
8f6
  8
Layer_2
  10
452.19653
  20
675.14722
  0
VERTEX
  5
8f7
  8
Layer_2
  10
452.31
  20
675.24506
  0
VERTEX
  5
8f8
  8
Layer_2
  10
452.34198
  20
675.29303
  0
VERTEX
  5
8f9
  8
Layer_2
  10
460.32599
  20
675.29303
  0
VERTEX
  5
8fa
  8
Layer_2
  10
460.40216
  20
675.21277
  0
VERTEX
  5
8fb
  8
Layer_2
  10
460.48602
  20
675.13708
  0
VERTEX
  5
8fc
  8
Layer_2
  10
460.59753
  20
675.06396
  0
VERTEX
  5
8fd
  8
Layer_2
  10
460.72113
  20
675.00415
  0
VERTEX
  5
8fe
  8
Layer_2
  10
460.8551
  20
674.95978
  0
VERTEX
  5
8ff
  8
Layer_2
  10
460.99799
  20
674.93304
  0
VERTEX
  5
900
  8
Layer_2
  10
461.19385
  20
674.91888
  0
VERTEX
  5
901
  8
Layer_2
  10
461.39001
  20
674.93304
  0
VERTEX
  5
902
  8
Layer_2
  10
461.57404
  20
674.97504
  0
VERTEX
  5
903
  8
Layer_2
  10
461.80353
  20
675.07416
  0
VERTEX
  5
904
  8
Layer_2
  10
461.98999
  20
675.21503
  0
VERTEX
  5
905
  8
Layer_2
  10
462.06201
  20
675.29303
  0
VERTEX
  5
906
  8
Layer_2
  10
467.83801
  20
675.29303
  0
VERTEX
  5
907
  8
Layer_2
  10
468.04102
  20
675.27356
  0
VERTEX
  5
908
  8
Layer_2
  10
468.23798
  20
675.23303
  0
VERTEX
  5
909
  8
Layer_2
  10
468.48474
  20
675.11517
  0
VERTEX
  5
90a
  8
Layer_2
  10
468.67432
  20
674.95367
  0
VERTEX
  5
90b
  8
Layer_2
  10
468.79572
  20
674.75934
  0
VERTEX
  5
90c
  8
Layer_2
  10
468.83801
  20
674.54303
  0
VERTEX
  5
90d
  8
Layer_2
  10
468.83801
  20
673.79303
  0
VERTEX
  5
90e
  8
Layer_2
  10
468.82605
  20
673.67249
  0
VERTEX
  5
90f
  8
Layer_2
  10
468.7876
  20
673.55591
  0
VERTEX
  5
910
  8
Layer_2
  10
468.7243
  20
673.44537
  0
VERTEX
  5
911
  8
Layer_2
  10
468.638
  20
673.34302
  0
VERTEX
  5
912
  8
Layer_2
  10
468.47827
  20
673.21625
  0
VERTEX
  5
913
  8
Layer_2
  10
468.28583
  20
673.12231
  0
VERTEX
  5
914
  8
Layer_2
  10
468.06946
  20
673.06366
  0
VERTEX
  5
915
  8
Layer_2
  10
467.83801
  20
673.04303
  0
VERTEX
  5
916
  8
Layer_2
  10
462.06201
  20
673.04303
  0
VERTEX
  5
917
  8
Layer_2
  10
461.98999
  20
673.12103
  0
VERTEX
  5
918
  8
Layer_2
  10
461.90198
  20
673.19904
  0
VERTEX
  5
919
  8
Layer_2
  10
461.75
  20
673.29504
  0
VERTEX
  5
91a
  8
Layer_2
  10
461.5752
  20
673.35883
  0
VERTEX
  5
91b
  8
Layer_2
  10
461.39001
  20
673.40308
  0
VERTEX
  5
91c
  8
Layer_2
  10
461.19
  20
673.41504
  0
VERTEX
  5
91d
  8
Layer_2
  10
460.99799
  20
673.40308
  0
VERTEX
  5
91e
  8
Layer_2
  10
460.81213
  20
673.35638
  0
VERTEX
  5
91f
  8
Layer_2
  10
460.638
  20
673.28906
  0
VERTEX
  5
920
  8
Layer_2
  10
460.48749
  20
673.20178
  0
VERTEX
  5
921
  8
Layer_2
  10
460.36603
  20
673.09106
  0
VERTEX
  5
922
  8
Layer_2
  10
460.32599
  20
673.04303
  0
VERTEX
  5
923
  8
Layer_2
  10
452.34198
  20
673.04303
  0
VERTEX
  5
924
  8
Layer_2
  10
452.22699
  20
673.17365
  0
VERTEX
  5
925
  8
Layer_2
  10
452.07001
  20
673.27704
  0
VERTEX
  5
926
  8
Layer_2
  10
451.84375
  20
673.36279
  0
VERTEX
  5
927
  8
Layer_2
  10
451.59802
  20
673.40906
  0
VERTEX
  5
928
  8
Layer_2
  10
451.42896
  20
673.41162
  0
VERTEX
  5
929
  8
Layer_2
  10
451.26276
  20
673.39374
  0
VERTEX
  5
92a
  8
Layer_2
  10
451.10217
  20
673.35651
  0
VERTEX
  5
92b
  8
Layer_2
  10
450.95001
  20
673.30103
  0
VERTEX
  5
92c
  8
Layer_2
  10
450.76678
  20
673.18292
  0
VERTEX
  5
92d
  8
Layer_2
  10
450.61401
  20
673.04303
  0
VERTEX
  5
92e
  8
Layer_2
  10
444.83801
  20
673.04303
  0
VERTEX
  5
92f
  8
Layer_2
  10
444.64478
  20
673.06885
  0
VERTEX
  5
930
  8
Layer_2
  10
444.45398
  20
673.10303
  0
VERTEX
  5
931
  8
Layer_2
  10
444.28601
  20
673.16907
  0
VERTEX
  5
932
  8
Layer_2
  10
444.19934
  20
673.2207
  0
VERTEX
  5
933
  8
Layer_2
  10
444.11798
  20
673.27704
  0
VERTEX
  5
934
  8
Layer_2
  10
444.00012
  20
673.38934
  0
VERTEX
  5
935
  8
Layer_2
  10
443.91327
  20
673.51514
  0
VERTEX
  5
936
  8
Layer_2
  10
443.8587
  20
673.65082
  0
VERTEX
  5
937
  8
Layer_2
  10
443.83801
  20
673.79303
  0
VERTEX
  5
938
  8
Layer_2
  10
443.83801
  20
674.54303
  0
VERTEX
  5
939
  8
Layer_2
  10
443.8645
  20
674.69946
  0
VERTEX
  5
93a
  8
Layer_2
  10
443.93109
  20
674.84735
  0
VERTEX
  5
93b
  8
Layer_2
  10
444.03516
  20
674.98254
  0
VERTEX
  5
93c
  8
Layer_2
  10
444.17401
  20
675.10107
  0
VERTEX
  5
93d
  8
Layer_2
  10
444.28601
  20
675.16705
  0
VERTEX
  5
93e
  8
Layer_2
  10
444.45398
  20
675.23303
  0
VERTEX
  5
93f
  8
Layer_2
  10
444.64441
  20
675.26904
  0
VERTEX
  5
940
  8
Layer_2
  10
444.83801
  20
675.29303
  0
SEQEND
  0
POLYLINE
  5
942
  8
Layer_2
  62
0
  66
1
  10
0
  20
0
  30
0
  0
VERTEX
  5
942
  8
Layer_2
  10
443.83801
  20
679.87335
  0
VERTEX
  5
943
  8
Layer_2
  10
443.83801
  20
688.72473
  0
VERTEX
  5
944
  8
Layer_2
  10
443.85828
  20
688.95618
  0
VERTEX
  5
945
  8
Layer_2
  10
443.91656
  20
689.17181
  0
VERTEX
  5
946
  8
Layer_2
  10
444.00879
  20
689.36694
  0
VERTEX
  5
947
  8
Layer_2
  10
444.13092
  20
689.53693
  0
VERTEX
  5
948
  8
Layer_2
  10
444.27893
  20
689.67719
  0
VERTEX
  5
949
  8
Layer_2
  10
444.44879
  20
689.78308
  0
VERTEX
  5
94a
  8
Layer_2
  10
444.63647
  20
689.84998
  0
VERTEX
  5
94b
  8
Layer_2
  10
444.83801
  20
689.87335
  0
VERTEX
  5
94c
  8
Layer_2
  10
467.83801
  20
689.87335
  0
VERTEX
  5
94d
  8
Layer_2
  10
468.03955
  20
689.84998
  0
VERTEX
  5
94e
  8
Layer_2
  10
468.22723
  20
689.78308
  0
VERTEX
  5
94f
  8
Layer_2
  10
468.39709
  20
689.67719
  0
VERTEX
  5
950
  8
Layer_2
  10
468.5451
  20
689.53693
  0
VERTEX
  5
951
  8
Layer_2
  10
468.66724
  20
689.36694
  0
VERTEX
  5
952
  8
Layer_2
  10
468.75946
  20
689.17181
  0
VERTEX
  5
953
  8
Layer_2
  10
468.81775
  20
688.95618
  0
VERTEX
  5
954
  8
Layer_2
  10
468.83801
  20
688.72473
  0
VERTEX
  5
955
  8
Layer_2
  10
468.83801
  20
679.87335
  0
SEQEND
  0
ENDSEC
  0
EOF
