<?xml version="1.0" encoding="UTF-8"?>
<svg xmlns="http://www.w3.org/2000/svg" width="671.440mm" height="278.187mm" viewBox="-1138.439941 115.812897 671.439941 278.187134">
    <path transform="matrix(-1.028570 0.000000 0.000000 1.000000 26.227585 -52.551983)" style="stroke:#ff0000;stroke-width:0.05mm;fill:none" d="M987.919983,329.743988C987.452271,341.365845,986.30896,352.950958,984.495972,364.440002C983.791138,368.649536,982.92926,372.830872,981.911987,376.976013C981.053955,380.339325,979.990845,383.64682,978.728027,386.880005C977.592163,389.593567,976.19928,392.192078,974.567993,394.640015C971.857239,398.791534,968.838013,402.733368,965.536011,406.432007C958.306152,414.582214,950.282532,421.992065,941.583984,428.552002C940.499023,429.328827,939.348022,430.008881,938.143982,430.584015C935.550659,431.893066,932.856628,432.992371,930.088013,433.872009C925.542053,435.375854,920.913208,436.615265,916.223999,437.584015C908.547607,439.218933,900.804138,440.52417,893.015991,441.496002C884.330627,442.615875,875.619202,443.512115,866.888,444.18399C849.717041,445.555054,832.504272,446.344849,815.280029,446.552002C807.760193,446.562256,800.241821,446.415527,792.728027,446.112C776.176514,445.551086,759.649536,444.419739,743.176025,442.720001C734.597046,441.809662,726.051392,440.61441,717.552002,439.135986C712.591919,438.246155,707.66626,437.176208,702.783997,435.928009C699.317627,435.008392,695.897522,433.921753,692.536011,432.671997C690.32605,431.816864,688.179321,430.806244,686.112,429.64801C685.187744,429.108612,684.302673,428.504669,683.463989,427.839996C675.356201,421.616333,667.843994,414.653107,661.023987,407.040009C658.405945,404.132446,655.943909,401.088135,653.64801,397.920013C651.958679,395.549194,650.401611,393.086639,648.984009,390.544006C647.218323,387.043274,645.823975,383.367188,644.823975,379.575989C643.331543,374.234802,642.174561,368.805573,641.359985,363.320007C639.885864,353.973724,638.881958,344.558929,638.35199,335.112C638.191406,332.490204,638.074097,329.865906,638,327.23999L638.023987,325.808014L638,325.808014L638,221.552002C638,213.267731,644.715698,206.552002,653,206.552002L973,206.552002C981.284302,206.552002,988,213.267731,988,221.552002L988,327.424011L987.919983,329.743988z"/>
    <path transform="matrix(-2.950120 0.000000 0.000000 1.000000 1924.759033 -52.577286)" style="stroke:#ff0000;stroke-width:0.05mm;fill:none" d="M988.013733,249.122177L986.996826,249.122177"/>
    <path transform="matrix(-2.950120 0.000000 0.000000 1.000000 1924.759033 -46.267155)" style="stroke:#ff0000;stroke-width:0.05mm;fill:none" d="M988.013733,249.122177L986.996826,249.122177"/>
    <path transform="matrix(-2.950120 0.000000 0.000000 1.000000 2281.759033 -52.577286)" style="stroke:#ff0000;stroke-width:0.05mm;fill:none" d="M988.013733,249.122177L986.996826,249.122177"/>
    <path transform="matrix(-2.950120 0.000000 0.000000 1.000000 2281.759033 -46.267155)" style="stroke:#ff0000;stroke-width:0.05mm;fill:none" d="M988.013733,249.122177L986.996826,249.122177"/>
    <path transform="matrix(-1.000000 0.000000 0.000000 1.000000 -954.379395 194.700012)" style="stroke:#ff0000;stroke-width:0.05mm;fill:none" d="M2.5,-2.5L-2.5,-2.5C-2.776142,-2.5,-3,-2.276142,-3,-2L-3,2C-3,2.276142,-2.776142,2.5,-2.5,2.5L2.5,2.5C2.776142,2.5,3,2.276142,3,2L3,-2C3,-2.276142,2.776142,-2.5,2.5,-2.5z"/>
    <rect transform="matrix(-1.000000 0.000000 0.000000 1.000000 -934.619995 194.700012)" style="stroke:#ff0000;stroke-width:0.05mm;fill:none" x="-3.000000" y="-2.500000" width="6.000000" height="5.000000" rx="0.500000"/>
    <rect transform="matrix(-1.000000 0.000000 0.000000 1.000000 -934.619995 204.700027)" style="stroke:#ff0000;stroke-width:0.05mm;fill:none" x="-3.000000" y="-2.500000" width="6.000000" height="5.000000" rx="0.500000"/>
    <rect transform="matrix(-1.000000 0.000000 0.000000 1.000000 -954.379395 204.700027)" style="stroke:#ff0000;stroke-width:0.05mm;fill:none" x="-3.000000" y="-2.500000" width="6.000000" height="5.000000" rx="0.500000"/>
    <path transform="matrix(-1.000000 0.000000 0.000000 1.000000 -685.379028 194.700012)" style="stroke:#ff0000;stroke-width:0.05mm;fill:none" d="M2.5,-2.5L-2.5,-2.5C-2.776142,-2.5,-3,-2.276142,-3,-2L-3,2C-3,2.276142,-2.776142,2.5,-2.5,2.5L2.5,2.5C2.776142,2.5,3,2.276142,3,2L3,-2C3,-2.276142,2.776142,-2.5,2.5,-2.5z"/>
    <rect transform="matrix(-1.000000 0.000000 0.000000 1.000000 -665.620422 194.700012)" style="stroke:#ff0000;stroke-width:0.05mm;fill:none" x="-3.000000" y="-2.500000" width="6.000000" height="5.000000" rx="0.500000"/>
    <rect transform="matrix(-1.000000 0.000000 0.000000 1.000000 -665.620422 204.700027)" style="stroke:#ff0000;stroke-width:0.05mm;fill:none" x="-3.000000" y="-2.500000" width="6.000000" height="5.000000" rx="0.500000"/>
    <rect transform="matrix(-1.000000 0.000000 0.000000 1.000000 -685.379028 204.700027)" style="stroke:#ff0000;stroke-width:0.05mm;fill:none" x="-3.000000" y="-2.500000" width="6.000000" height="5.000000" rx="0.500000"/>
    <ellipse transform="matrix(-1.000000 0.000000 0.000000 1.000000 -872.629639 124.314453)" style="stroke:#000000;stroke-width:0.05mm;fill:none" rx="2.500000" ry="2.000000"/>
    <ellipse transform="matrix(-1.000000 0.000000 0.000000 1.000000 -864.629639 124.314453)" style="stroke:#000000;stroke-width:0.05mm;fill:none" rx="2.500000" ry="2.000000"/>
    <ellipse transform="matrix(-1.000000 0.000000 0.000000 1.000000 -856.629639 124.314453)" style="stroke:#000000;stroke-width:0.05mm;fill:none" rx="2.500000" ry="2.000000"/>
    <ellipse transform="matrix(-1.000000 0.000000 0.000000 1.000000 -848.629639 124.314453)" style="stroke:#000000;stroke-width:0.05mm;fill:none" rx="2.500000" ry="2.000000"/>
    <ellipse transform="matrix(-1.000000 0.000000 0.000000 1.000000 -840.629639 124.314453)" style="stroke:#000000;stroke-width:0.05mm;fill:none" rx="2.500000" ry="2.000000"/>
    <ellipse transform="matrix(-1.000000 0.000000 0.000000 1.000000 -832.629639 124.314453)" style="stroke:#000000;stroke-width:0.05mm;fill:none" rx="2.500000" ry="2.000000"/>
    <ellipse transform="matrix(-1.000000 0.000000 0.000000 1.000000 -824.629639 124.314453)" style="stroke:#000000;stroke-width:0.05mm;fill:none" rx="2.500000" ry="2.000000"/>
    <ellipse transform="matrix(-1.000000 0.000000 0.000000 1.000000 -816.629639 124.314453)" style="stroke:#000000;stroke-width:0.05mm;fill:none" rx="2.500000" ry="2.000000"/>
    <ellipse transform="matrix(-1.000000 0.000000 0.000000 1.000000 -808.629639 124.314453)" style="stroke:#000000;stroke-width:0.05mm;fill:none" rx="2.500000" ry="2.000000"/>
    <ellipse transform="matrix(-1.000000 0.000000 0.000000 1.000000 -800.629639 124.314453)" style="stroke:#000000;stroke-width:0.05mm;fill:none" rx="2.500000" ry="2.000000"/>
    <ellipse transform="matrix(-1.000000 0.000000 0.000000 1.000000 -792.629639 124.314453)" style="stroke:#000000;stroke-width:0.05mm;fill:none" rx="2.500000" ry="2.000000"/>
    <ellipse transform="matrix(-1.000000 0.000000 0.000000 1.000000 -784.629639 124.314453)" style="stroke:#000000;stroke-width:0.05mm;fill:none" rx="2.500000" ry="2.000000"/>
    <ellipse transform="matrix(-1.000000 0.000000 0.000000 1.000000 -776.629639 124.314453)" style="stroke:#000000;stroke-width:0.05mm;fill:none" rx="2.500000" ry="2.000000"/>
    <ellipse transform="matrix(-1.000000 0.000000 0.000000 1.000000 -768.629639 124.314453)" style="stroke:#000000;stroke-width:0.05mm;fill:none" rx="2.500000" ry="2.000000"/>
    <ellipse transform="matrix(-1.000000 0.000000 0.000000 1.000000 -760.629639 124.314453)" style="stroke:#000000;stroke-width:0.05mm;fill:none" rx="2.500000" ry="2.000000"/>
    <ellipse transform="matrix(-1.000000 0.000000 0.000000 1.000000 -752.629639 124.314453)" style="stroke:#000000;stroke-width:0.05mm;fill:none" rx="2.500000" ry="2.000000"/>
    <ellipse transform="matrix(-1.000000 0.000000 0.000000 1.000000 -872.629639 132.314453)" style="stroke:#000000;stroke-width:0.05mm;fill:none" rx="2.500000" ry="2.000000"/>
    <ellipse transform="matrix(-1.000000 0.000000 0.000000 1.000000 -864.629639 132.314453)" style="stroke:#000000;stroke-width:0.05mm;fill:none" rx="2.500000" ry="2.000000"/>
    <ellipse transform="matrix(-1.000000 0.000000 0.000000 1.000000 -856.629639 132.314453)" style="stroke:#000000;stroke-width:0.05mm;fill:none" rx="2.500000" ry="2.000000"/>
    <ellipse transform="matrix(-1.000000 0.000000 0.000000 1.000000 -848.629639 132.314453)" style="stroke:#000000;stroke-width:0.05mm;fill:none" rx="2.500000" ry="2.000000"/>
    <ellipse transform="matrix(-1.000000 0.000000 0.000000 1.000000 -840.629639 132.314453)" style="stroke:#000000;stroke-width:0.05mm;fill:none" rx="2.500000" ry="2.000000"/>
    <ellipse transform="matrix(-1.000000 0.000000 0.000000 1.000000 -832.629639 132.314453)" style="stroke:#000000;stroke-width:0.05mm;fill:none" rx="2.500000" ry="2.000000"/>
    <ellipse transform="matrix(-1.000000 0.000000 0.000000 1.000000 -824.629639 132.314453)" style="stroke:#000000;stroke-width:0.05mm;fill:none" rx="2.500000" ry="2.000000"/>
    <ellipse transform="matrix(-1.000000 0.000000 0.000000 1.000000 -816.629639 132.314453)" style="stroke:#000000;stroke-width:0.05mm;fill:none" rx="2.500000" ry="2.000000"/>
    <ellipse transform="matrix(-1.000000 0.000000 0.000000 1.000000 -808.629639 132.314453)" style="stroke:#000000;stroke-width:0.05mm;fill:none" rx="2.500000" ry="2.000000"/>
    <ellipse transform="matrix(-1.000000 0.000000 0.000000 1.000000 -800.629639 132.314453)" style="stroke:#000000;stroke-width:0.05mm;fill:none" rx="2.500000" ry="2.000000"/>
    <ellipse transform="matrix(-1.000000 0.000000 0.000000 1.000000 -792.629639 132.314453)" style="stroke:#000000;stroke-width:0.05mm;fill:none" rx="2.500000" ry="2.000000"/>
    <ellipse transform="matrix(-1.000000 0.000000 0.000000 1.000000 -784.629639 132.314453)" style="stroke:#000000;stroke-width:0.05mm;fill:none" rx="2.500000" ry="2.000000"/>
    <ellipse transform="matrix(-1.000000 0.000000 0.000000 1.000000 -776.629639 132.314453)" style="stroke:#000000;stroke-width:0.05mm;fill:none" rx="2.500000" ry="2.000000"/>
    <ellipse transform="matrix(-1.000000 0.000000 0.000000 1.000000 -768.629639 132.314453)" style="stroke:#000000;stroke-width:0.05mm;fill:none" rx="2.500000" ry="2.000000"/>
    <ellipse transform="matrix(-1.000000 0.000000 0.000000 1.000000 -760.629639 132.314453)" style="stroke:#000000;stroke-width:0.05mm;fill:none" rx="2.500000" ry="2.000000"/>
    <ellipse transform="matrix(-1.000000 0.000000 0.000000 1.000000 -752.629639 132.314453)" style="stroke:#000000;stroke-width:0.05mm;fill:none" rx="2.500000" ry="2.000000"/>
    <path transform="matrix(-1.000000 0.000000 0.000000 1.000000 -77.721603 -0.251007)" style="stroke:#000000;stroke-width:0.05mm;fill:none" d="M483.600006,118.816002C484.628387,118.813766,485.490356,119.592651,485.59201,120.615997L485.600006,120.816002L485.600006,135.815994C485.604675,136.84787,484.819458,137.712585,483.791992,137.807999L483.600006,137.815994L480.600006,137.815994L480.600006,136.119995L473.256012,136.376007L473.256012,120.255997L480.600006,120.512001L480.600006,118.816002L483.600006,118.816002z"/>
    <path transform="matrix(0.562930 0.000000 0.000000 0.898459 -1192.498413 -119.739998)" style="stroke:#000000;stroke-width:0.05mm;fill:none" d="M1060,290C1055,290,1055,280,1050,280C1045,280,1045,290,1040,290C1035,290,1035,280,1030,280C1025,280,1025,290,1020,290"/>
    <path transform="matrix(0.562930 0.000000 0.000000 0.898459 -1215.018433 -119.739998)" style="stroke:#000000;stroke-width:0.05mm;fill:none" d="M1060,290C1055,290,1055,280,1050,280C1045,280,1045,290,1040,290C1035,290,1035,280,1030,280C1025,280,1025,290,1020,290"/>
    <path transform="matrix(0.562930 0.000000 0.000000 -0.898459 -1192.498413 376.365997)" style="stroke:#000000;stroke-width:0.05mm;fill:none" d="M1060,290C1055,290,1055,280,1050,280C1045,280,1045,290,1040,290C1035,290,1035,280,1030,280C1025,280,1025,290,1020,290"/>
    <path transform="matrix(0.562930 0.000000 0.000000 -0.898459 -1215.018433 376.365997)" style="stroke:#000000;stroke-width:0.05mm;fill:none" d="M1060,290C1055,290,1055,280,1050,280C1045,280,1045,290,1040,290C1035,290,1035,280,1030,280C1025,280,1025,290,1020,290"/>
    <ellipse transform="translate(-607.054382 128.667007)" style="stroke:#000000;stroke-width:0.05mm;fill:none" rx="2.062262" ry="7.500001"/>
    <ellipse transform="translate(-629.572388 128.667007)" style="stroke:#000000;stroke-width:0.05mm;fill:none" rx="2.062262" ry="7.499997"/>
    <ellipse transform="translate(-618.313354 128.667007)" style="stroke:#000000;stroke-width:0.05mm;fill:none" rx="2.062262" ry="7.500001"/>
    <path transform="matrix(0.562930 0.000000 0.000000 -0.898459 -1169.898438 376.365997)" style="stroke:#000000;stroke-width:0.05mm;fill:none" d="M1060,290C1055,290,1055,280,1050,280C1045,280,1045,290,1040,290C1035,290,1035,280,1030,280C1025,280,1025,290,1020,290"/>
    <ellipse transform="translate(-595.709412 128.667007)" style="stroke:#000000;stroke-width:0.05mm;fill:none" rx="2.062262" ry="7.500001"/>
    <ellipse transform="translate(-584.450378 128.667007)" style="stroke:#000000;stroke-width:0.05mm;fill:none" rx="2.062262" ry="7.500001"/>
    <path transform="matrix(0.562930 0.000000 0.000000 0.898459 -1169.898438 -119.739998)" style="stroke:#000000;stroke-width:0.05mm;fill:none" d="M1060,290C1055,290,1055,280,1050,280C1045,280,1045,290,1040,290C1035,290,1035,280,1030,280C1025,280,1025,290,1020,290"/>
    <path transform="matrix(0.562930 0.000000 0.000000 0.898459 -1604.474121 -119.739998)" style="stroke:#000000;stroke-width:0.05mm;fill:none" d="M1060,290C1055,290,1055,280,1050,280C1045,280,1045,290,1040,290C1035,290,1035,280,1030,280C1025,280,1025,290,1020,290"/>
    <path transform="matrix(0.562930 0.000000 0.000000 0.898459 -1626.994141 -119.739998)" style="stroke:#000000;stroke-width:0.05mm;fill:none" d="M1060,290C1055,290,1055,280,1050,280C1045,280,1045,290,1040,290C1035,290,1035,280,1030,280C1025,280,1025,290,1020,290"/>
    <path transform="matrix(0.562930 0.000000 0.000000 -0.898459 -1604.474121 376.365997)" style="stroke:#000000;stroke-width:0.05mm;fill:none" d="M1060,290C1055,290,1055,280,1050,280C1045,280,1045,290,1040,290C1035,290,1035,280,1030,280C1025,280,1025,290,1020,290"/>
    <path transform="matrix(0.562930 0.000000 0.000000 -0.898459 -1626.994141 376.365997)" style="stroke:#000000;stroke-width:0.05mm;fill:none" d="M1060,290C1055,290,1055,280,1050,280C1045,280,1045,290,1040,290C1035,290,1035,280,1030,280C1025,280,1025,290,1020,290"/>
    <ellipse transform="translate(-1019.030090 128.667007)" style="stroke:#000000;stroke-width:0.05mm;fill:none" rx="2.062262" ry="7.500001"/>
    <ellipse transform="translate(-1041.548096 128.667007)" style="stroke:#000000;stroke-width:0.05mm;fill:none" rx="2.062262" ry="7.499997"/>
    <ellipse transform="translate(-1030.289063 128.667007)" style="stroke:#000000;stroke-width:0.05mm;fill:none" rx="2.062262" ry="7.500001"/>
    <path transform="matrix(0.562930 0.000000 0.000000 -0.898459 -1581.874146 376.365997)" style="stroke:#000000;stroke-width:0.05mm;fill:none" d="M1060,290C1055,290,1055,280,1050,280C1045,280,1045,290,1040,290C1035,290,1035,280,1030,280C1025,280,1025,290,1020,290"/>
    <ellipse transform="translate(-1007.685120 128.667007)" style="stroke:#000000;stroke-width:0.05mm;fill:none" rx="2.062262" ry="7.500001"/>
    <ellipse transform="translate(-996.426086 128.667007)" style="stroke:#000000;stroke-width:0.05mm;fill:none" rx="2.062262" ry="7.500001"/>
    <path transform="matrix(0.562930 0.000000 0.000000 0.898459 -1581.874146 -119.739998)" style="stroke:#000000;stroke-width:0.05mm;fill:none" d="M1060,290C1055,290,1055,280,1050,280C1045,280,1045,290,1040,290C1035,290,1035,280,1030,280C1025,280,1025,290,1020,290"/>
    <path transform="matrix(-1.000000 0.000000 0.000000 1.000000 -53.377602 -0.251007)" style="stroke:#000000;stroke-width:0.05mm;fill:none" d="M483.600006,118.816002C484.628387,118.813766,485.490356,119.592651,485.59201,120.615997L485.600006,120.816002L485.600006,135.815994C485.604675,136.84787,484.819458,137.712585,483.791992,137.807999L483.600006,137.815994L480.600006,137.815994L480.600006,136.119995L473.256012,136.376007L473.256012,120.255997L480.600006,120.512001L480.600006,118.816002L483.600006,118.816002z"/>
    <path transform="matrix(-1.000000 0.000000 0.000000 1.000000 -29.033600 -0.251007)" style="stroke:#000000;stroke-width:0.05mm;fill:none" d="M483.600006,118.816002C484.628387,118.813766,485.490356,119.592651,485.59201,120.615997L485.600006,120.816002L485.600006,135.815994C485.604675,136.84787,484.819458,137.712585,483.791992,137.807999L483.600006,137.815994L480.600006,137.815994L480.600006,136.119995L473.256012,136.376007L473.256012,120.255997L480.600006,120.512001L480.600006,118.816002L483.600006,118.816002z"/>
    <path transform="matrix(-1.000000 0.000000 0.000000 1.000000 -4.689610 -0.251007)" style="stroke:#000000;stroke-width:0.05mm;fill:none" d="M483.600006,118.816002C484.628387,118.813766,485.490356,119.592651,485.59201,120.615997L485.600006,120.816002L485.600006,135.815994C485.604675,136.84787,484.819458,137.712585,483.791992,137.807999L483.600006,137.815994L480.600006,137.815994L480.600006,136.119995L473.256012,136.376007L473.256012,120.255997L480.600006,120.512001L480.600006,118.816002L483.600006,118.816002z"/>
    <path transform="matrix(-1.000000 0.000000 0.000000 1.000000 0.000000 0.000000)" style="stroke:#000000;stroke-width:0.05mm;fill:none" d="M1096.432007,115.823997C1097.059937,115.875153,1097.442749,116.207947,1098,116.711998L1103.712036,121.608002C1103.587769,120.649277,1103.475708,119.689537,1103.375977,118.727997L1103.416016,118.655998C1103.692261,118.427567,1104.082642,118.394943,1104.391968,118.575996C1105.828247,119.614899,1107.284424,120.625633,1108.76001,121.608002C1108.644409,120.648621,1108.535156,119.688766,1108.432007,118.727997L1108.472046,118.664001C1108.638672,118.475403,1108.904419,118.410103,1109.144043,118.487999C1109.248901,118.504662,1109.352661,118.529266,1109.447998,118.575996C1110.889893,119.60199,1112.344238,120.613373,1113.807983,121.608002C1113.699829,120.623383,1113.598511,119.712463,1113.488037,118.727997L1113.527954,118.655998C1113.675415,118.542343,1113.853882,118.476357,1114.040039,118.472C1114.200928,118.46357,1114.360352,118.502869,1114.504028,118.575996C1115.942749,119.608093,1117.39563,120.618523,1118.864014,121.608002C1118.760498,120.647377,1118.651123,119.687576,1118.536011,118.727997C1118.621582,118.573677,1118.783813,118.473732,1118.959961,118.472C1119.093018,118.447533,1119.229492,118.459778,1119.359985,118.496002L1119.552002,118.575996C1120.994263,119.602417,1122.447754,120.613228,1123.911987,121.608002C1123.803711,120.622704,1123.702637,119.712448,1123.592041,118.727997L1123.631958,118.655998L1123.744019,118.584C1123.815796,118.534554,1123.897949,118.502037,1123.984009,118.487999C1124.068848,118.475487,1124.154419,118.468727,1124.23999,118.463997C1124.324585,118.472992,1124.407593,118.492447,1124.488037,118.519997L1124.608032,118.575996C1126.050171,119.598572,1127.501221,120.609558,1128.959961,121.608002C1128.863403,120.647232,1128.759399,119.687187,1128.647949,118.727997L1128.687988,118.655998C1128.964722,118.429779,1129.352539,118.400421,1129.66394,118.575996L1132.864014,120.816002L1135.439941,120.816002C1137.096069,120.817749,1138.437866,122.15992,1138.439941,123.816002L1138.439941,132.815994C1138.436523,134.471848,1137.095825,135.814468,1135.439941,135.815994L1132.832031,135.815994L1129.66394,138.031998C1129.334351,138.242386,1128.89856,138.180054,1128.647949,137.880005C1128.789063,136.916382,1128.893188,135.947601,1128.959961,134.975998C1127.51709,135.99646,1126.057861,137.021118,1124.608032,138.031998C1124.307129,138.200882,1123.935547,138.178345,1123.656006,137.975998L1123.592041,137.880005C1123.709229,136.912827,1123.815796,135.945465,1123.911987,134.975998L1122.42395,135.983994L1119.552002,138.031998L1119.447998,138.087997C1119.153809,138.203156,1118.819824,138.152985,1118.57605,137.951996L1118.536011,137.880005C1118.649414,136.914429,1118.759155,135.942642,1118.864014,134.975998C1117.556152,135.894043,1115.813477,137.115723,1114.504028,138.031998C1114.306152,138.140884,1114.074707,138.175934,1113.855957,138.119995L1113.647949,138.048004C1113.607178,138.016953,1113.566895,137.985291,1113.527954,137.951996L1113.488037,137.880005C1113.605225,136.913589,1113.711914,135.944717,1113.807983,134.975998C1112.359375,136.001373,1110.906006,137.020111,1109.447998,138.031998C1109.117065,138.241623,1108.681152,138.18248,1108.432007,137.880005C1108.544189,136.913818,1108.653809,135.942947,1108.76001,134.975998C1107.325439,135.983887,1105.830566,137.029785,1104.391968,138.031998L1104.280029,138.087997C1104.176025,138.13826,1104.059082,138.155487,1103.94397,138.143997L1103.832031,138.136002C1103.75769,138.123413,1103.685425,138.101364,1103.615967,138.072006L1103.52002,138.016006L1103.42395,137.944L1103.375977,137.880005C1103.484253,136.915604,1103.59729,135.939606,1103.712036,134.975998C1102.653687,135.843597,1097.65979,140.150269,1097.003662,140.536469C1096.816528,140.646622,1096.403564,140.798508,1096.208008,140.815994L475,140.815994C470.582214,140.814621,467.001129,137.233795,467,132.815994L467,123.816002C467.000061,119.397476,470.581482,115.816017,475,115.816002L1096.208008,115.816002L1096.432007,115.823997z"/>
    <path transform="matrix(-1.200000 0.000000 0.000000 1.263160 -931.645020 133.317001)" style="stroke:#000000;stroke-width:0.05mm;fill:none" d="M-5.000027,1.900006L-0.570159,1.859441L-0.569661,2.090703L4,1.900009C4.552307,1.900009,5,1.452301,5,0.900009L5,-0.900009C5,-1.452301,4.552307,-1.900009,4,-1.900009L-0.571584,-2.09213L-0.570159,-1.900007L-5.000027,-1.900006"/>
    <path transform="matrix(-1.000000 0.000000 0.000000 1.000000 -929.645020 123.318001)" style="stroke:#500a78;stroke-width:0.05mm;fill:none" d="M2.5,-2.5L-2.5,-2.5C-2.776142,-2.5,-3,-2.276142,-3,-2L-3,2C-3,2.276142,-2.776142,2.5,-2.5,2.5L2.5,2.5C2.776142,2.5,3,2.276142,3,2L3,-2C3,-2.276142,2.776142,-2.5,2.5,-2.5z"/>
    <rect transform="matrix(-1.000000 0.000000 0.000000 1.000000 -909.645020 123.318001)" style="stroke:#500a78;stroke-width:0.05mm;fill:none" x="-3.000000" y="-2.500000" width="6.000000" height="5.000000" rx="0.500000"/>
    <rect transform="matrix(-1.000000 0.000000 0.000000 1.000000 -909.645020 133.317993)" style="stroke:#500a78;stroke-width:0.05mm;fill:none" x="-3.000000" y="-2.500000" width="6.000000" height="5.000000" rx="0.500000"/>
    <rect transform="matrix(-1.000000 0.000000 0.000000 1.000000 -929.645020 133.317993)" style="stroke:#500a78;stroke-width:0.05mm;fill:none" x="-3.000000" y="-2.500000" width="6.000000" height="5.000000" rx="0.500000"/>
    <path transform="matrix(-1.200000 0.000000 0.000000 1.263160 -931.645020 123.318001)" style="stroke:#000000;stroke-width:0.05mm;fill:none" d="M-5.000027,1.900006L-0.570159,1.859441L-0.569661,2.090703L4,1.900009C4.552307,1.900009,5,1.452301,5,0.900009L5,-0.900009C5,-1.452301,4.552307,-1.900009,4,-1.900009L-0.571584,-2.09213L-0.570159,-1.900007L-5.000027,-1.900006"/>
    <path transform="matrix(1.200000 0.000000 0.000000 -1.263160 -907.645020 133.315994)" style="stroke:#000000;stroke-width:0.05mm;fill:none" d="M-5.000027,1.900006L-0.570159,1.859441L-0.569661,2.090703L4,1.900009C4.552307,1.900009,5,1.452301,5,0.900009L5,-0.900009C5,-1.452301,4.552307,-1.900009,4,-1.900009L-0.571584,-2.09213L-0.570159,-1.900007L-5.000027,-1.900006"/>
    <path transform="matrix(1.200000 0.000000 0.000000 -1.263160 -907.645020 123.316002)" style="stroke:#000000;stroke-width:0.05mm;fill:none" d="M-5.000027,1.900006L-0.570159,1.859441L-0.569661,2.090703L4,1.900009C4.552307,1.900009,5,1.452301,5,0.900009L5,-0.900009C5,-1.452301,4.552307,-1.900009,4,-1.900009L-0.571584,-2.09213L-0.570159,-1.900007L-5.000027,-1.900006"/>
    <path transform="matrix(-1.000000 0.000000 0.000000 1.000000 20.911724 -124.703003)" style="stroke:#000000;stroke-width:0.05mm;fill:none" d="M998.504028,258L986.504028,258L986.504028,256L982.504028,256L982.504028,250L986.504028,250L986.504028,248L998.504028,248"/>
    <path transform="matrix(0.000000 -0.597596 -1.000000 -0.000000 -714.314453 713.096985)" style="stroke:#000000;stroke-width:0.05mm;fill:none" d="M986.953003,247.277985L983.606262,247.277985"/>
    <path transform="matrix(-1.195190 0.000000 0.000000 1.000000 214.006516 -123.981003)" style="stroke:#000000;stroke-width:0.05mm;fill:none" d="M986.953003,247.277985L983.606262,247.277985"/>
    <path transform="matrix(0.000000 0.597596 -1.000000 0.000000 -714.314453 -456.502991)" style="stroke:#000000;stroke-width:0.05mm;fill:none" d="M986.953003,247.277985L983.606262,247.277985"/>
    <path transform="matrix(-1.195190 0.000000 0.000000 -1.000000 214.006516 380.575012)" style="stroke:#000000;stroke-width:0.05mm;fill:none" d="M986.953003,247.277985L983.606262,247.277985"/>
    <path transform="matrix(1.200000 0.000000 0.000000 1.263160 -693.614258 133.316086)" style="stroke:#000000;stroke-width:0.05mm;fill:none" d="M-5.000027,1.900006L-0.570159,1.859441L-0.569661,2.090703L4,1.900009C4.552307,1.900009,5,1.452301,5,0.900009L5,-0.900009C5,-1.452301,4.552307,-1.900009,4,-1.900009L-0.571584,-2.09213L-0.570159,-1.900007L-5.000027,-1.900006"/>
    <path transform="translate(-695.614258 123.317085)" style="stroke:#500a78;stroke-width:0.05mm;fill:none" d="M2.5,-2.5L-2.5,-2.5C-2.776142,-2.5,-3,-2.276142,-3,-2L-3,2C-3,2.276142,-2.776142,2.5,-2.5,2.5L2.5,2.5C2.776142,2.5,3,2.276142,3,2L3,-2C3,-2.276142,2.776142,-2.5,2.5,-2.5z"/>
    <rect transform="translate(-715.614258 123.317085)" style="stroke:#500a78;stroke-width:0.05mm;fill:none" x="-3.000000" y="-2.500000" width="6.000000" height="5.000000" rx="0.500000"/>
    <rect transform="translate(-715.614258 133.317078)" style="stroke:#500a78;stroke-width:0.05mm;fill:none" x="-3.000000" y="-2.500000" width="6.000000" height="5.000000" rx="0.500000"/>
    <rect transform="translate(-695.614258 133.317078)" style="stroke:#500a78;stroke-width:0.05mm;fill:none" x="-3.000000" y="-2.500000" width="6.000000" height="5.000000" rx="0.500000"/>
    <path transform="matrix(1.200000 0.000000 0.000000 1.263160 -693.614258 123.317085)" style="stroke:#000000;stroke-width:0.05mm;fill:none" d="M-5.000027,1.900006L-0.570159,1.859441L-0.569661,2.090703L4,1.900009C4.552307,1.900009,5,1.452301,5,0.900009L5,-0.900009C5,-1.452301,4.552307,-1.900009,4,-1.900009L-0.571584,-2.09213L-0.570159,-1.900007L-5.000027,-1.900006"/>
    <path transform="matrix(-1.200000 0.000000 0.000000 -1.263160 -717.614258 133.315079)" style="stroke:#000000;stroke-width:0.05mm;fill:none" d="M-5.000027,1.900006L-0.570159,1.859441L-0.569661,2.090703L4,1.900009C4.552307,1.900009,5,1.452301,5,0.900009L5,-0.900009C5,-1.452301,4.552307,-1.900009,4,-1.900009L-0.571584,-2.09213L-0.570159,-1.900007L-5.000027,-1.900006"/>
    <path transform="matrix(-1.200000 0.000000 0.000000 -1.263160 -717.614258 123.315086)" style="stroke:#000000;stroke-width:0.05mm;fill:none" d="M-5.000027,1.900006L-0.570159,1.859441L-0.569661,2.090703L4,1.900009C4.552307,1.900009,5,1.452301,5,0.900009L5,-0.900009C5,-1.452301,4.552307,-1.900009,4,-1.900009L-0.571584,-2.09213L-0.570159,-1.900007L-5.000027,-1.900006"/>
    <path transform="translate(-1646.171021 -124.703918)" style="stroke:#000000;stroke-width:0.05mm;fill:none" d="M998.504028,258L986.504028,258L986.504028,256L982.504028,256L982.504028,250L986.504028,250L986.504028,248L998.504028,248"/>
    <path transform="matrix(-0.000000 -0.597596 1.000000 -0.000000 -910.944885 713.096069)" style="stroke:#000000;stroke-width:0.05mm;fill:none" d="M986.953003,247.277985L983.606262,247.277985"/>
    <path transform="matrix(1.195190 0.000000 0.000000 1.000000 -1839.265869 -123.981918)" style="stroke:#000000;stroke-width:0.05mm;fill:none" d="M986.953003,247.277985L983.606262,247.277985"/>
    <path transform="matrix(-0.000000 0.597596 1.000000 0.000000 -910.944885 -456.503906)" style="stroke:#000000;stroke-width:0.05mm;fill:none" d="M986.953003,247.277985L983.606262,247.277985"/>
    <path transform="matrix(1.195190 0.000000 0.000000 -1.000000 -1839.265869 380.574097)" style="stroke:#000000;stroke-width:0.05mm;fill:none" d="M986.953003,247.277985L983.606262,247.277985"/>
</svg>
